STARTFONT 2.1
FONT HAN-GB2312
SIZE 14 72 72
FONTBOUNDINGBOX 14 14 0 0
STARTPROPERTIES 1
BITCOUNT 8
ENDPROPERTIES
CHARS 6836
STARTCHAR  00A8
ENCODING  168
SWIDTH  1000 0
DWIDTH  14 0
BBX  5 2 1 9
BITMAP
FFFF30FFFF
FFFF20FFFF
ENDCHAR
STARTCHAR  00B0
ENCODING  176
SWIDTH  1000 0
DWIDTH  6 0
BBX  5 5 1 6
BITMAP
40E0F0A000
E0A080FF60
F06040FF60
60FFFFE010
0020300000
ENDCHAR
STARTCHAR  00B1
ENCODING  177
SWIDTH  1000 0
DWIDTH  10 0
BBX  8 10 1 -1
BITMAP
000040FF10000000
000040FF10000000
101040FF20101010
FFFFFFFFFFFFFFFF
404060FF40404040
000040FF10000000
000040FF10000000
1010101010101010
FFFFFFFFFFFFFFFF
4040404040404040
ENDCHAR
STARTCHAR  00B7
ENCODING  183
SWIDTH  1000 0
DWIDTH  7 0
BBX  3 3 2 4
BITMAP
202000
FFFF30
FFFF30
ENDCHAR
STARTCHAR  00D7
ENCODING  215
SWIDTH  1000 0
DWIDTH  8 0
BBX  8 7 0 1
BITMAP
0080200000308000
10C0E03030F0C000
0010C0F0F0A00000
000040FFFF400000
0040FFA0A0F04000
10F0800000A0E000
0020000000002000
ENDCHAR
STARTCHAR  00F7
ENCODING  247
SWIDTH  1000 0
DWIDTH  10 0
BBX  8 8 1 1
BITMAP
0000001000000000
000040FF10000000
1010204010101010
FFFFFFFFFFFFFFFF
4040404040404040
0000001000000000
000040FF10000000
0000104000000000
ENDCHAR
STARTCHAR  02C7
ENCODING  711
SWIDTH  1000 0
DWIDTH  6 0
BBX  6 3 0 8
BITMAP
60FF8080FF60
0060FFFF6000
000060600000
ENDCHAR
STARTCHAR  02C9
ENCODING  713
SWIDTH  1000 0
DWIDTH  6 0
BBX  4 3 1 8
BITMAP
10101010
FFFFFFFF
40404040
ENDCHAR
STARTCHAR  2014
ENCODING  8212
SWIDTH  1000 0
DWIDTH  16 0
BBX  14 3 1 3
BITMAP
1010101010101010101010101010
FFFFFFFFFFFFFFFFFFFFFFFFFFFF
4040404040404040404040404040
ENDCHAR
STARTCHAR  2018
ENCODING  8216
SWIDTH  1000 0
DWIDTH  13 0
BBX  3 2 8 9
BITMAP
20F010
40FF10
ENDCHAR
STARTCHAR  2019
ENCODING  8217
SWIDTH  1000 0
DWIDTH  13 0
BBX  3 2 2 9
BITMAP
40FF10
10E000
ENDCHAR
STARTCHAR  201C
ENCODING  8220
SWIDTH  1000 0
DWIDTH  14 0
BBX  6 2 6 9
BITMAP
20F01020F010
40FF1040FF10
ENDCHAR
STARTCHAR  201D
ENCODING  8221
SWIDTH  1000 0
DWIDTH  14 0
BBX  6 2 2 9
BITMAP
40FF1040FF10
10E00010E000
ENDCHAR
STARTCHAR  2026
ENCODING  8230
SWIDTH  1000 0
DWIDTH  14 0
BBX  13 3 1 3
BITMAP
00100000000010000000001000
40FF10000040FF10000040FF10
10400000001040000000104000
ENDCHAR
STARTCHAR  2030
ENCODING  8240
SWIDTH  1000 0
DWIDTH  17 0
BBX  17 12 0 -1
BITMAP
0000000000000040FF3000000000000000
00A0FFF0800000C0C00000000000000000
40FF6080FF1030FF400000000000000000
40FF1040FF10A0C0000000000000000000
40FF2060FF30FF40000000000000000000
10E0FFFFC080E000100000000010000000
0010303010F060C0FFFF8000C0FFFF8000
0000000080E040FF6080FF40FF6080FF10
00000010F08040FF1040FF60FF1040FF10
00000060F01040FF1040FF60FF1040FF10
000000E0800030FF6080FF40FF6080FF10
000060F0100000A0FFF08000A0FFFF8000
ENDCHAR
STARTCHAR  2032
ENCODING  8242
SWIDTH  1000 0
DWIDTH  14 0
BBX  4 4 1 7
BITMAP
0020FF40
0060F000
00C0A000
10FF6000
ENDCHAR
STARTCHAR  2033
ENCODING  8243
SWIDTH  1000 0
DWIDTH  14 0
BBX  6 4 1 7
BITMAP
0030FF60FF40
0080E060F000
00E0A0C0A000
20FF60F06000
ENDCHAR
STARTCHAR  2103
ENCODING  8451
SWIDTH  1000 0
DWIDTH  15 0
BBX  15 12 0 -1
BITMAP
0060F0F0600010A0F0FFFFFFFFFF80
10FF6060F000C0C040404040404020
10FF3040FF20FF2000000000000000
0080FFFF8020FF0000000000000000
000010100030FF0000000000000000
000000000030FF0000000000000000
000000000030FF0000000000000000
000000000030FF0000000000000000
000000000020FF0000000000000000
000000000010FF2000000000000000
000000000000C0C030303030303020
00000000000010A0F0FFFFFFFFFFC0
ENDCHAR
STARTCHAR  221E
ENCODING  8734
SWIDTH  1000 0
DWIDTH  11 0
BBX  11 6 0 2
BITMAP
0000102000000020100000
0060F0FFE060E0FFFF8000
10FF4010A0FFA01040FF40
10FF4010A0FFA01040FF40
0080FFFFF080F0FFFFC000
0000306010001040400000
ENDCHAR
STARTCHAR  2234
ENCODING  8756
SWIDTH  1000 0
DWIDTH  12 0
BBX  10 12 1 -1
BITMAP
00000000101000000000
00000010FFFF10000000
00000010FFFF10000000
00000000000000000000
00000000000000000000
00000000000000000000
00000000000000000000
00000000000000000000
00000000000000000000
FFFF100000000020FFFF
FFFF100000000020FFFF
10100000000000001010
ENDCHAR
STARTCHAR  2235
ENCODING  8757
SWIDTH  1000 0
DWIDTH  13 0
BBX  10 12 1 -1
BITMAP
10100000000000001010
FFFF100000000020FFFF
FFFF100000000020FFFF
00000000000000000000
00000000000000000000
00000000000000000000
00000000000000000000
00000000000000000000
00000000000000000000
00000010FFFF10000000
00000010FFFF10000000
00000000101000000000
ENDCHAR
STARTCHAR  2236
ENCODING  8758
SWIDTH  1000 0
DWIDTH  14 0
BBX  0 0 0 0
BITMAP
ENDCHAR
STARTCHAR  2503
ENCODING  9475
SWIDTH  1000 0
DWIDTH  14 0
BBX  0 0 0 0
BITMAP
ENDCHAR
STARTCHAR  2505
ENCODING  9477
SWIDTH  1000 0
DWIDTH  14 0
BBX  12 2 1 4
BITMAP
E0F0000000F0E0000010F0C0
F0FF000000FFF0000010FFE0
ENDCHAR
STARTCHAR  2507
ENCODING  9479
SWIDTH  1000 0
DWIDTH  14 0
BBX  0 0 0 0
BITMAP
ENDCHAR
STARTCHAR  3000
ENCODING  12288
SWIDTH  1000 0
DWIDTH  14 0
BBX  0 0 0 0
BITMAP
ENDCHAR
STARTCHAR  3001
ENCODING  12289
SWIDTH  1000 0
DWIDTH  14 0
BBX  5 5 2 -2
BITMAP
1060200000
10E0A00000
0080FF2000
0010F0A000
0000406000
ENDCHAR
STARTCHAR  3002
ENCODING  12290
SWIDTH  1000 0
DWIDTH  14 0
BBX  5 5 2 -2
BITMAP
0000100000
00A0FFC000
00FF60FF20
00A0FFC000
0000200000
ENDCHAR
STARTCHAR  3008
ENCODING  12296
SWIDTH  1000 0
DWIDTH  14 0
BBX  5 13 6 -2
BITMAP
000000C0A0
000020FF40
000080E000
0010F06000
0060F01000
00E0800000
10FF400000
00A0A00000
0040FF2000
0000E08000
000060F000
000010F060
0000006080
ENDCHAR
STARTCHAR  3009
ENCODING  12297
SWIDTH  1000 0
DWIDTH  14 0
BBX  5 13 2 -2
BITMAP
20FF400000
00A0C00000
0040FF2000
0000E08000
000060F010
000010F060
000000C0A0
000020FF40
000080E000
0010F06000
0060F01000
00E0800000
20A0200000
ENDCHAR
STARTCHAR  300A
ENCODING  12298
SWIDTH  1000 0
DWIDTH  14 0
BBX  7 13 5 -2
BITMAP
000080E020FF40
0010F06080E000
0060F010F06000
00E08060F01000
40FF20E0A00000
A0C040FF200000
E08080F0000000
80E020FF400000
20FF40A0C00000
00A0C040FF2000
0040FF20E08000
0000E08060F010
000040A010A030
ENDCHAR
STARTCHAR  300B
ENCODING  12299
SWIDTH  1000 0
DWIDTH  14 0
BBX  8 13 2 -2
BITMAP
30FF30E0A0000000
00E0A060F0100000
0060F010F0600000
0000F06080E00000
000080E020FF4000
000020FF40A0C000
000000E08080F000
000040FF20E08000
0000C0C040FF2000
0020FF40A0C00000
0080E020FF400000
10F06080E0000000
30A010A060000000
ENDCHAR
STARTCHAR  300C
ENCODING  12300
SWIDTH  1000 0
DWIDTH  14 0
BBX  4 14 8 -2
BITMAP
10101000
FFFFFF80
FF402010
FF300000
FF300000
FF300000
FF300000
FF300000
FF300000
FF300000
FF300000
FF300000
FF300000
30000000
ENDCHAR
STARTCHAR  300D
ENCODING  12301
SWIDTH  1000 0
DWIDTH  14 0
BBX  5 14 2 -2
BITMAP
0000001000
000020FF00
000020FF00
000020FF00
000020FF00
000020FF00
000020FF00
000020FF00
000020FF00
000020FF00
000020FF00
000020FF00
80FFFFFF00
1030303000
ENDCHAR
STARTCHAR  300E
ENCODING  12302
SWIDTH  1000 0
DWIDTH  14 0
BBX  6 14 6 -2
BITMAP
002020202020
10FFFFFFFFE0
10FF203060E0
10FF40FFFFE0
10FF40FF0000
10FF40FF0000
10FF40FF0000
10FF40FF0000
10FF40FF0000
10FF40FF0000
10FF40FF0000
10FF40FF0000
10FFFFFF0000
003030300000
ENDCHAR
STARTCHAR  300F
ENCODING  12303
SWIDTH  1000 0
DWIDTH  14 0
BBX  6 14 1 -2
BITMAP
000000202020
000030FFFFF0
000030FF40F0
000030FF40F0
000030FF40F0
000030FF40F0
000030FF40F0
000030FF40F0
000030FF40F0
000030FF40F0
003040FF40F0
10FFFFFF40F0
10FFFFFFFFF0
003030303020
ENDCHAR
STARTCHAR  3010
ENCODING  12304
SWIDTH  1000 0
DWIDTH  14 0
BBX  4 13 8 -2
BITMAP
FFFFFFC0
FFFFFF40
FFFFF000
FFFFA000
FFFF8000
FFFF6000
FFFF6000
FFFF6000
FFFFA000
FFFFE000
FFFFFF20
FFFFFF80
80808060
ENDCHAR
STARTCHAR  3011
ENCODING  12305
SWIDTH  1000 0
DWIDTH  14 0
BBX  5 13 2 -2
BITMAP
A0FFFFFF10
40FFFFFF10
00E0FFFF10
00A0FFFF10
0060FFFF10
0060FFFF10
0040FFFF10
0060FFFF10
0080FFFF10
00C0FFFF10
10FFFFFF10
60FFFFFF10
6080808010
ENDCHAR
STARTCHAR  3014
ENCODING  12308
SWIDTH  1000 0
DWIDTH  14 0
BBX  5 14 7 -2
BITMAP
0000003020
1080E0FF40
30FF803000
30FF000000
30FF000000
30FF000000
30FF000000
30FF000000
30FF000000
30FF000000
30FF000000
30FF602000
10A0F0FF30
0000004020
ENDCHAR
STARTCHAR  3015
ENCODING  12309
SWIDTH  1000 0
DWIDTH  14 0
BBX  5 14 2 -2
BITMAP
2030000000
30FFE08010
003080FF30
000000FF30
000000FF30
000000FF30
000000FF30
000000FF30
000000FF30
000000FF30
000000FF30
002060FF30
30FFF0A010
2060000000
ENDCHAR
STARTCHAR  4E00
ENCODING  19968
SWIDTH  1000 0
DWIDTH  14 0
BBX  13 3 1 4
BITMAP
20202020202020202020202020
FFFFFFFFFFFFFFFFFFFFFFFFE0
40404040404040404040404030
ENDCHAR
STARTCHAR  4E01
ENCODING  19969
SWIDTH  1000 0
DWIDTH  14 0
BBX  13 14 1 -2
BITMAP
00000000000000000000000000
FFFFFFFFFFFFFFFFFFFFFFFFE0
20202020202020804020202020
00000000000000FF8000000000
00000000000000FF8000000000
00000000000000FF8000000000
00000000000000FF8000000000
00000000000000FF8000000000
00000000000000FF8000000000
00000000000000FF8000000000
00000000000000FF8000000000
00000020202020FF8000000000
000030FFFFFFFFFF8000000000
00001040404040402000000000
ENDCHAR
STARTCHAR  4E03
ENCODING  19971
SWIDTH  1000 0
DWIDTH  14 0
BBX  14 14 0 -2
BITMAP
0000000020801000000000000000
0000000040FF3000000000000000
0000000040FF3000000000000000
0000000040FF3000000000001010
0000000040FF606080A0E0F0FF40
40A0E0F0FFFFFFF0E0A080604010
60C0806080FF3000000000000000
0000000040FF3000000000000000
0000000040FF3000000000000000
0000000040FF3000000000000000
0000000040FF3000000000000000
0000000040FF4030303030303010
0000000040FFFFFFFFFFFFFFFF60
0000000010303030303030303010
ENDCHAR
STARTCHAR  4E07
ENCODING  19975
SWIDTH  1000 0
DWIDTH  14 0
BBX  13 13 0 -2
BITMAP
A0FFFFFFFFFFFFFFFFFFFFFFFF
2030A0E0303030303030303030
0000A0A0000000000000000000
0000E080000000000000000000
0000FFFFFFFFFFFFFFFFFFFF30
0030FF3030303030303030FF30
0060F00000000000000000FF30
0080C00000000000000000FF30
00A0A00000000000000000FF30
00E0600000000000000000FF30
10FF400000000000000000FF30
30FF100000000080FFFFFFFF30
20600000000000102020202000
ENDCHAR
STARTCHAR  4E08
ENCODING  19976
SWIDTH  1000 0
DWIDTH  14 0
BBX  14 14 0 -2
BITMAP
0000000000000000000010800000
0000000000000000000030FF0000
FFFFFFFFFFFFFFFFFFFFFFFFFF20
2030603030303030303040FF3000
0030FF0000000000000030FF0000
0030FF0000000000000030FF0000
0030FF0000000000000030FF0000
0030FF6000000000001080FF0000
0010A0FFE080202080F0F0800000
0000001080FFFFFFF08010000000
00001080E0FFC0E0FFC040000000
30A0F0F0A030000040C0FFE06000
E0E0601000000000000030A0FF00
3000000000000000000000002000
ENDCHAR
STARTCHAR  4E09
ENCODING  19977
SWIDTH  1000 0
DWIDTH  14 0
BBX  13 12 0 -1
BITMAP
00FFFFFFFFFFFFFFFFFFFFFFF0
00303030303030303030303020
00000000000000000000000000
00000000000000000000000000
00000000000000000000000000
00303030303030303030303000
10FFFFFFFFFFFFFFFFFFFFFF30
00000000000000000000000000
00000000000000000000000000
00000000000000000000000000
20303030303030303030303030
F0FFFFFFFFFFFFFFFFFFFFFFFF
ENDCHAR
STARTCHAR  4E0A
ENCODING  19978
SWIDTH  1000 0
DWIDTH  14 0
BBX  13 14 0 -2
BITMAP
00000000008030000000000000
0000000000FF60000000000000
0000000000FF60000000000000
0000000000FF60000000000000
0000000000FFFFFFFFFFFFFFC0
0000000000FF80303030303020
0000000000FF60000000000000
0000000000FF60000000000000
0000000000FF60000000000000
0000000000FF60000000000000
0000000000FF60000000000000
10101010101010101010101010
F0FFFFFFFFFFFFFFFFFFFFFFFF
10202020202020202020202020
ENDCHAR
STARTCHAR  4E0B
ENCODING  19979
SWIDTH  1000 0
DWIDTH  14 0
BBX  13 13 0 -2
BITMAP
FFFFFFFFFFFFFFFFFFFFFFFFFF
30303030303030303030303030
0000000030FF00002010000000
0000000030FF0000C0A0000000
0000000030FF000060F0100000
0000000030FF000010F0600000
0000000030FF000000A0C00000
0000000030FF00000040FF2000
0000000030FF00000000E08000
0000000030FF0000000080E000
0000000030FF00000000001000
0000000030FF00000000000000
0000000020A000000000000000
ENDCHAR
STARTCHAR  4E0C
ENCODING  19980
SWIDTH  1000 0
DWIDTH  14 0
BBX  13 13 1 -2
BITMAP
FFFFFFFFFFFFFFFFFFFFFFFFE0
30303030303030303030303020
0000A0C0000000000030FF0000
0000C0A0000000000030FF0000
0000E080000000000030FF0000
0000FF60000000000030FF0000
0020FF40000000000030FF0000
0040FF20000000000030FF0000
0060F000000000000030FF0000
0080E000000000000030FF0000
00A0C000000000000030FF0000
00E0A000000000000030FF0000
00A04000000000000020A00000
ENDCHAR
STARTCHAR  4E0D
ENCODING  19981
SWIDTH  1000 0
DWIDTH  14 0
BBX  15 14 0 -2
BITMAP
001010101010101010101010101000
00FFFFFFFFFFFFFFFFFFFFFFFFE000
0020202020F0802020202020202000
0000000080F0100000000000000000
00000000E08020FF00C0C000000000
00000060F01020FF0040FF40000000
000000E0A00020FF0000C0C0000000
000060FF200020FF000040FF300000
0000E0A0000020FF000000C0C00000
0040FF30000020FF00000040FF3000
00C0A000000020FF00000000C0C000
00301000000020FF00000000103000
00000000000020FF00000000000000
00000000000020FF00000000000000
ENDCHAR
STARTCHAR  4E0E
ENCODING  19982
SWIDTH  1000 0
DWIDTH  14 0
BBX  14 14 0 -2
BITMAP
0040100000000000000000000000
00FF300000000000000000000000
00FF30FFFFFFFFFFFFFFFFFFFF40
00FF303030303030303030303010
00FF300000000000000000000000
00FF403030303030303030303000
00FFFFFFFFFFFFFFFFFFFFFFFF00
000000000000000000000030FF00
103030303030303030303030FF00
60FFFFFFFFFFFFFFFFFFFF30FF00
000000000000000000000030FF00
000000000000000000000030FF00
000000000040FFFFFFFFFFFFFF00
0000000000103030303030303000
ENDCHAR
STARTCHAR  4E10
ENCODING  19984
SWIDTH  1000 0
DWIDTH  14 0
BBX  13 14 1 -2
BITMAP
10101010101010101010101010
FFFFFFFFFFFFFFFFFFFFFFFFE0
202020202030C0202020202010
20C000000030FF000000000000
30FF00000030FFFFFFFFFFFFA0
30FF00000030FF303030303010
30FF00000030FF000000000000
30FFFFFFFFFFFFFFFFFFFFFF30
0030303030303030303030FF30
0000000000000000000000FF30
0000000000000000000000FF30
0000000000000000000000FF30
00000030FFFFFFFFFFFFFFFF30
00000000202020202020202000
ENDCHAR
STARTCHAR  4E11
ENCODING  19985
SWIDTH  1000 0
DWIDTH  14 0
BBX  14 14 0 -2
BITMAP
0000101010101010101010101000
00F0FFFFFFFFFFFFFFFFFFFFFF00
00202020E040202020202080FF00
00000000FF30000000000080FF00
00000000FF30000000000080FF00
00000000FF30000000000080FF00
00103030FF40303030303080FF00
00A0FFFFFFFFFFFFFFFFFF80FF00
00000000FF30000000000080FF00
00000000FF30000000000080FF00
00000000FF30000000000080FF00
001010101010101010101080FF10
10FFFFFFFFFFFFFFFFFFFFC0FFC0
0020202020202020202020102010
ENDCHAR
STARTCHAR  4E13
ENCODING  19987
SWIDTH  1000 0
DWIDTH  14 0
BBX  14 14 0 -2
BITMAP
0000000080400000000000000000
00000020FF400000000000000000
40FFFFFFFFFFFFFFFFFFFFFFFF00
103030A0E0303030303030303000
202020E0A0202020202020202000
FFFFFFFFFFFFFFFFFFFFFFFFFF10
101040FF30101010101010101000
000080F000000000000000000000
0000C0FFFFFFFFFFFFFFFFFF3000
00002030303030303030A0F00000
00000000000000000000C0C00000
00000000000000000000F0600000
000000C0FFFFFFFFFFFFFF300000
0000002030303030303030000000
ENDCHAR
STARTCHAR  4E14
ENCODING  19988
SWIDTH  1000 0
DWIDTH  14 0
BBX  14 14 0 -2
BITMAP
0000101010101010101010100000
0020FFFFFFFFFFFFFFFFFFFF0000
0020FF2020202020202040FF0000
0020FF0000000000000030FF0000
0020FF1030303030303030FF0000
0020FF60FFFFFFFFFFFF30FF0000
0020FF0000000000000030FF0000
0020FF0000000000000030FF0000
0020FF60FFFFFFFFFFFF30FF0000
0020FF1030303030303030FF0000
0020FF0000000000000030FF0000
0020FF0000000000000030FF0000
A0FFFFFFFFFFFFFFFFFF80FFFF40
1020202020202020202020202010
ENDCHAR
STARTCHAR  4E15
ENCODING  19989
SWIDTH  1000 0
DWIDTH  14 0
BBX  15 14 -1 -2
BITMAP
000010101010101010101010101000
0080FFFFFFFFFFFFFFFFFFFFFFFF00
001020202080F03020202020202000
0000000010F0800000804000000000
00000000A0E010FF20A0E010000000
00000040FF4000FF2010F080000000
000010E0A00000FF200060F0200000
0000A0F0200000FF200000C0A00000
0030FF80000000FF20000030FF3000
00A0A000000000FF20000000A0C000
00000000000000FF20000000002000
001010101010101010101010101000
00FFFFFFFFFFFFFFFFFFFFFFFFFF10
002020202020202020202020202000
ENDCHAR
STARTCHAR  4E16
ENCODING  19990
SWIDTH  1000 0
DWIDTH  14 0
BBX  13 14 1 -2
BITMAP
00002000000000000000000000
0030FF0000F020000020F00000
0030FF0000FF30000030FF0000
3040FF3030FF40303040FF3020
FFFFFFFFFFFFFFFFFFFFFFFFF0
0030FF0000FF30000030FF0000
0030FF0000FF30000030FF0000
0030FF0000FF30000030FF0000
0030FF0000FF40302030FF0000
0030FF0000FFFFFFE0C0FF0000
0030FF00000000000000000000
0030FF10101010101010101010
0030FFFFFFFFFFFFFFFFFFFFC0
00002020202020202020202010
ENDCHAR
STARTCHAR  4E18
ENCODING  19992
SWIDTH  1000 0
DWIDTH  14 0
BBX  14 14 0 -2
BITMAP
0000101010101010101010101000
0030FFFFFFFFFFFFFFFFFFFFE000
0030FF2020202020202020202000
0030FF0000000000000000000000
0030FF0000000000000000000000
0030FF80FFFFFFFFFFFFFFFFFF00
0030FF10303030303040FF303000
0030FF00000000000030FF000000
0030FF00000000000030FF000000
0030FF00000000000030FF000000
0030FF00000000000030FF000000
1040FF20202020202030FF202010
A0FFFFFFFFFFFFFFFFA0FFFFFF60
1010101010101010101010101000
ENDCHAR
STARTCHAR  4E19
ENCODING  19993
SWIDTH  1000 0
DWIDTH  14 0
BBX  13 14 1 -2
BITMAP
10101010101010101010101010
FFFFFFFFFFFFFFFFFFFFFFFFE0
20202020203080202020202010
000000000030FF000000000000
FFFFFFFFFFFFFFFFFFFFFFFF30
FF4030303040FF30303030FF30
FF3000000030FF10000000FF30
FF30000000C0F080000000FF30
FF30000080E040F0200000FF30
FF300040FF4000A0C00000FF30
FF3010E0A0000020FF4000FF30
FF30103010000000202000FF30
FF30000000000000F0FFFFFF30
40100000000000002030303000
ENDCHAR
STARTCHAR  4E1A
ENCODING  19994
SWIDTH  1000 0
DWIDTH  14 0
BBX  13 14 1 -2
BITMAP
00000000C0200020C000000000
00000000FF300030FF00000000
A0A00000FF300030FF0000A0A0
80C00000FF300030FF0000C080
60E00000FF300030FF0000E060
40FF0000FF300030FF0000FF40
20FF2000FF300030FF0020FF20
00FF4000FF300030FF0040FF00
00E06000FF300030FF0060E000
00C08000FF300030FF0080A000
00000000FF300030FF00000000
10101010101010101010101000
FFFFFFFFFFFFFFFFFFFFFFFFF0
20202020202020202020202020
ENDCHAR
STARTCHAR  4E1B
ENCODING  19995
SWIDTH  1000 0
DWIDTH  14 0
BBX  14 14 0 -2
BITMAP
0000001060000000000060100000
00000030FF0000000010FF200000
00000030FF0000000010FF200000
00000030FF0000000010FF200000
00000060FF3000000040FF600000
000000E0FF8000000080FFC00000
000030FF80E0000000E0A0FF1000
0000A0E010FF300030FF10E06000
0010F06000C0800080C00080E000
0060FF100080E000E0600030FF20
00E0C0000020FF40FF200000E080
0080402020208060802020206060
00FFFFFFFFFFFFFFFFFFFFFFFFC0
0010101010101010101010101000
ENDCHAR
STARTCHAR  4E1C
ENCODING  19996
SWIDTH  1000 0
DWIDTH  14 0
BBX  13 14 1 -2
BITMAP
00000080400000000000000000
101020FF401010101010101010
FFFFFFFFFFFFFFFFFFFFFFFFA0
1010C0A0101010101010101010
0000F0600000FF200000000000
0040FF200000FF300000000000
0080E0202020FF402020202010
00E0FFFFFFFFFFFFFFFFFFFF60
001010101010FF301010101000
0080C0000000FF300060F01000
10F060000000FF300010F08000
60F010000000FF30000080E000
C0A00000FFFFFF30000020FF40
10000000303030000000001000
ENDCHAR
STARTCHAR  4E1D
ENCODING  19997
SWIDTH  1000 0
DWIDTH  14 0
BBX  14 14 0 -2
BITMAP
0000000000000000000000000000
00000080E00000000010F0600000
000010F0600000000080E0000000
000080E00040F02010F06000C0A0
0010F06000E0A00060E00060FF30
0080F03080F01000E08030E08000
10F0FFFFFF600060FFFFFFF01000
000000C0E00000000030FF600000
000060FF4000000000E0C0000000
0010E0C03030300060FF60303020
0080FFFFFFFFFF30F0FFFFFFFFC0
0010101010101010101010101000
00FFFFFFFFFFFFFFFFFFFFFFFFC0
0020202020202020202020202010
ENDCHAR
STARTCHAR  4E1E
ENCODING  19998
SWIDTH  1000 0
DWIDTH  14 0
BBX  14 14 0 -2
BITMAP
0000101010101010101010100000
0000FFFFFFFFFFFFFFFFFFE00000
0000101010101020A0FFE0600000
00000000000060E0E0601080E000
A0FFFFFFFF30FF800040F0F06000
203030E0A000FFA0106080100000
000040FF3000FFF0E03000000000
0000E0C00000FF40C0F060000000
0060FF300000FF300080FF800000
10F0C0001030FF30000040F0C000
60E04000A0FFFF3000000020C000
0000000000000000000000001000
C0FFFFFFFFFFFFFFFFFFFFFFFF30
2020202020202020202020202000
ENDCHAR
STARTCHAR  4E22
ENCODING  20002
SWIDTH  1000 0
DWIDTH  14 0
BBX  13 14 1 -2
BITMAP
00101010101010101010101000
E0FFFFFFFFFFFFFFFFFFFFFF00
202020202040C0202020202000
000000000030FF000000000000
C0FFFFFFFFFFFFFFFFFFFFE000
203030303040FF303030302000
000000000020E0000000000000
30303030303030303030303020
FFFFFFFFFFFFFFFFFFFFFFFFF0
000080A0100000000020000000
0060FF600000000000E0A00000
40FF8000000000000020F04000
E0FFFFFFFFFFFFFFFFFFFFE000
20303030303030303030302000
ENDCHAR
STARTCHAR  4E24
ENCODING  20004
SWIDTH  1000 0
DWIDTH  14 0
BBX  13 14 1 -2
BITMAP
10101010101010101010101010
FFFFFFFFFFFFFFFFFFFFFFFFC0
20202030802020308020202010
00000030FF000030FF00000000
30303040FF303040FF30303000
FFFFFFFFFFFFFFFFFFFFFFFF30
FF300030FF000030FF0000FF30
FF300040FF100030FF1000FF30
FF3000C0FF600080FF6000FF30
FF3030FFC0A000E0C0C000FF30
FF30A0E030F030F030FF10FF30
FF30C06000C080A000A040FF30
FF3000000000000040FFFFFF30
40100000000000001030303000
ENDCHAR
STARTCHAR  4E25
ENCODING  20005
SWIDTH  1000 0
DWIDTH  14 0
BBX  13 14 1 -2
BITMAP
10101010101010101010101000
FFFFFFFFFFFFFFFFFFFFFFFFA0
20202020FF402030FF40202010
00C06000FF300010FF2040FF00
00808000FF300010FF2080C000
0060A000FF300010FF20A08000
30FFFFFFFFFFFFFFFFFFFFFFA0
30FF3030303030303030303020
30FF0000000000000000000000
30FF0000000000000000000000
30FF0000000000000000000000
30FF0000000000000000000000
30FF0000000000000000000000
00100000000000000000000000
ENDCHAR
STARTCHAR  4E27
ENCODING  20007
SWIDTH  1000 0
DWIDTH  14 0
BBX  13 14 0 -2
BITMAP
00000000000020000000000000
003030303030FF403030303030
20FFFFFFFFFFFFFFFFFFFFFFFF
0020E0000000FF300000C08000
0000F0400000FF300030FF4000
0000A0A00000FF3000A0E00000
203030303030FF403030303030
A0FFFFFFFFFFFFFFFFFFFFFFFF
0000C020000000808000001060
0000FF3000000040FF80A0F0E0
0000FF300000000060FFE04000
0000FF300000000000A0F02000
0000FFFFFFFF40000000C0E010
00002020202010000000106020
ENDCHAR
STARTCHAR  4E28
ENCODING  20008
SWIDTH  1000 0
DWIDTH  14 0
BBX  2 13 6 -2
BITMAP
FF30
FF30
FF30
FF30
FF30
FF30
FF30
FF30
FF30
FF30
FF30
FF30
E020
ENDCHAR
STARTCHAR  4E2A
ENCODING  20010
SWIDTH  1000 0
DWIDTH  14 0
BBX  14 14 0 -2
BITMAP
0000000000001000000000000000
0000000020A0FFC0300000000000
00001080F0E060E0FFA020000000
0060F0F06000000060E0F0801000
C0F0801000003000000060F0F000
802000000000FF30000000108000
000000000000FF30000000000000
000000000000FF30000000000000
000000000000FF30000000000000
000000000000FF30000000000000
000000000000FF30000000000000
000000000000FF30000000000000
000000000000FF30000000000000
000000000000FF30000000000000
ENDCHAR
STARTCHAR  4E2B
ENCODING  20011
SWIDTH  1000 0
DWIDTH  14 0
BBX  13 14 1 -2
BITMAP
10000000000000000000000010
F08000000000000000001080E0
A0FFE060000000000060F0F080
0030C0FFC0300040E0FFA02000
00000040E0E000FFC030000000
00000000004000600000000000
000000000030FF000000000000
000000000030FF000000000000
000000000030FF000000000000
000000000030FF000000000000
000000000030FF000000000000
000000000030FF000000000000
000000000030FF000000000000
000000000010A0000000000000
ENDCHAR
STARTCHAR  4E2C
ENCODING  20012
SWIDTH  1000 0
DWIDTH  14 0
BBX  6 13 0 -2
BITMAP
2080200030FF
00E0A00030FF
0060F02030FF
0010F08030FF
000080F040FF
0000108060FF
0000001030FF
000040FF60FF
0000C0E030FF
0030FF4030FF
00A0E00030FF
20FF600030FF
0000000020E0
ENDCHAR
STARTCHAR  4E2D
ENCODING  20013
SWIDTH  1000 0
DWIDTH  14 0
BBX  14 14 0 -2
BITMAP
0000000000004010000000000000
000000000000FF30000000000000
003030303030FF40303030303000
20FFFFFFFFFFFFFFFFFFFFFFFF20
20FF00000000FF3000000010FF20
20FF00000000FF3000000010FF20
20FF00000000FF3000000010FF20
20FF00000000FF3000000010FF20
20FF20202020FF4020202010FF20
20FFFFFFFFFFFFFFFFFFFFC0FF20
001010101010FF30101010101000
000000000000FF30000000000000
000000000000FF30000000000000
000000000000FF30000000000000
ENDCHAR
STARTCHAR  4E30
ENCODING  20016
SWIDTH  1000 0
DWIDTH  14 0
BBX  14 13 0 -2
BITMAP
000000000010FF20000000000000
60FFFFFFFFFFFFFFFFFFFFFFFF00
103030303030FF40303030303000
000000000010FF20000000000000
001010101020FF20101010101000
00FFFFFFFFFFFFFFFFFFFFFFE000
002020202030FF30202020201000
000000000010FF20000000000000
303030303030FF40303030303000
FFFFFFFFFFFFFFFFFFFFFFFFFF10
000000000010FF20000000000000
000000000010FF20000000000000
000000000010E010000000000000
ENDCHAR
STARTCHAR  4E32
ENCODING  20018
SWIDTH  1000 0
DWIDTH  14 0
BBX  14 14 0 -2
BITMAP
0000000000004010000000000000
003030303030FF40303030303000
00FFFFFFFFFFFFFFFFFFFFFFFF00
00FF30000000FF3000000030FF00
00FF40303030FF4030301030FF00
00FFFFFFFFFFFFFFFFFFA0E0FF00
000000000000FF30000000000000
20FFFFFFFFFFFFFFFFFFFFFFFF20
20FF30303030FF4030303030FF20
20FF10000000FF3000000010FF20
20FF30303030FF4030303020FF20
20FFFFFFFFFFFFFFFFFFFFC0FF20
000000000000FF30000000000000
000000000000FF30000000000000
ENDCHAR
STARTCHAR  4E34
ENCODING  20020
SWIDTH  1000 0
DWIDTH  14 0
BBX  14 14 0 -2
BITMAP
0000000000001000000000000000
00000030FF00FF60000000000000
10FF1030FF00FFFFFFFFFFFFFF60
10FF1030FF003030303030303010
10FF1030FF00000060E000000000
10FF1030FF00000010F040000000
10FF1030FF003030303030303000
10FF1030FF00FFFFFFFFFFFFFF00
10FF1030FF00FF2010600030FF00
10FF1030FF00FF2020FF1030FF00
10FF1030FF00FF2020FF1030FF00
10FF1030FF00FF2010601030FF00
10E01030FF00FFFFFFFFFFA0FF00
00000020C0002020202020202000
ENDCHAR
STARTCHAR  4E36
ENCODING  20022
SWIDTH  1000 0
DWIDTH  14 0
BBX  5 6 2 2
BITMAP
40C0300000
10F0A00000
0080FF3000
0010F0A000
000080FF20
0000001000
ENDCHAR
STARTCHAR  4E38
ENCODING  20024
SWIDTH  1000 0
DWIDTH  14 0
BBX  14 14 0 -2
BITMAP
0000000010300000000000000000
00000000A0A00000000000000000
10303030E0803030303030000000
40FFFFFFFFFFFFFFFFFFFF000000
00000040F00000000030FF000000
00000080C00000000030FF000000
108010C0800000000030FF000000
10E0F0FF400000000030FF000000
000080FFF08010000030FF000000
000080E060E0F0200030FF000000
0000C0A0000060100030FF000000
0000F060000000000030FF000000
0030FF20000000000030FFFFFFA0
0040A00000000000000030303020
ENDCHAR
STARTCHAR  4E39
ENCODING  20025
SWIDTH  1000 0
DWIDTH  14 0
BBX  14 14 0 -2
BITMAP
0000101010101010101010100000
0010FFFFFFFFFFFFFFFFFFFF0000
0010FF3020202020202040FF0000
0010FF100000F080000030FF0000
0010FF100000A0C0000030FF0000
0010FF10000060F0100030FF0000
0010FF1000001020000030FF0000
A0FFFFFFFFFFFFFFFFFF80FFFF40
2040FF4030303030303040FF3010
0010FF1000000000000030FF0000
0010FF1000000000000030FF0000
0010FF1000000000000030FF0000
0010FF1000000000FFFFFFFF0000
0000400000000000203030300000
ENDCHAR
STARTCHAR  4E3A
ENCODING  20026
SWIDTH  1000 0
DWIDTH  14 0
BBX  14 14 0 -2
BITMAP
0020200000306000000000000000
0080F01000C0A000000000000000
0000E0A010FF6000000000000000
1030303080FF3030303030303000
80FFFFFFFFFFFFFFFFFFFFFFFF10
00000010FF60000000000020FF10
00000060F010604000000020FF10
000000A0C00060F020000020FF10
000010F0600000E0C0000020FF10
000060FF10000040FF400020FF10
0000A0C00000000080800020FF10
0000F0600000000000000020FF10
0040FF20000000FFFFFFFFFFFF10
0040800000000030303030303000
ENDCHAR
STARTCHAR  4E3B
ENCODING  20027
SWIDTH  1000 0
DWIDTH  14 0
BBX  14 14 0 -2
BITMAP
00000000000040A0000000000000
00000000000060FF000000000000
00FFFFFFFFFFFFFFFFFFFFFFFFA0
0030303030303030303030303010
00000000000060FF000000000000
00000000000060FF000000000000
00000000000060FF000000000000
00FFFFFFFFFFFFFFFFFFFFFFFF60
00303030303080FF303030303010
00000000000060FF000000000000
00000000000060FF000000000000
0010101010103060101010101010
20FFFFFFFFFFFFFFFFFFFFFFFFC0
0020202020202020202020202010
ENDCHAR
STARTCHAR  4E3D
ENCODING  20029
SWIDTH  1000 0
DWIDTH  14 0
BBX  13 14 1 -2
BITMAP
10101010101010101010101000
FFFFFFFFFFFFFFFFFFFFFFFFE0
20202020202020202020202020
30FFFFFFFFFF00FFFFFFFFFF30
30FF303040FF00FF403030FF30
30FF20A030FF00FF30A020FF30
30FF30FF30FF00FF30FF30FF30
30FF30FF30FF00FF30FF30FF30
30FF30FF30FF00FF30FF30FF30
30FF30FF30FF00FF30FF30FF30
30FF30FF30FF00FF30FF30FF30
30FF000030FF00FF300000FF30
30FF0080FFFF00FF3060FFFF30
00300010303000300010303000
ENDCHAR
STARTCHAR  4E3E
ENCODING  20030
SWIDTH  1000 0
DWIDTH  14 0
BBX  14 14 0 -2
BITMAP
0030600000606000000040A03000
0020F0000080E0000000E0E00000
0000E0400020FF200060FF400000
0020202020202020202020202000
40FFFFFFFFFFFFFFFFFFFFFFFF40
001060FF6010101030F080101000
0010E0A00000FF300060FF600000
00A0E0303030FF40303080FF4000
30FF40FFFFFFFFFFFFFF00A0F030
101000000000FF30000000001010
10FFFFFFFFFFFFFFFFFFFFFFFF10
003030303030FF40303030303000
000000000000FF30000000000000
0000000000008010000000000000
ENDCHAR
STARTCHAR  4E3F
ENCODING  20031
SWIDTH  1000 0
DWIDTH  14 0
BBX  6 14 3 -2
BITMAP
000000006060
00000000F060
00000030FF30
00000080F000
000000C0A000
000000F06000
000040FF2000
000080E00000
0000E0A00000
0010FF600000
0060FF100000
00A0C0000000
00E080000000
10A030000000
ENDCHAR
STARTCHAR  4E43
ENCODING  20035
SWIDTH  1000 0
DWIDTH  14 0
BBX  14 14 0 -2
BITMAP
0000000000000000000000000000
10FFFFFFFFFFFFFFFFFFFFFFFF00
0020204080302020202060FF8000
00000080E00000000020F0C00000
000000C0A000000000C0E0100000
000010FF6000000060FFFFFFFF30
000060FF1000000010303030FF30
0000A0E00000000000000000FF30
0000E0800000000000000000FF30
0020FF400000000000000000FF30
0060F0100000000000000000FF30
00A0C0000000000000000000FF30
00F08000000000A0FFFFFFFFFF30
0040100000000020303030303000
ENDCHAR
STARTCHAR  4E45
ENCODING  20037
SWIDTH  1000 0
DWIDTH  14 0
BBX  14 14 0 -2
BITMAP
0000000020202020202020200000
00000060FFFFFFFFFFFFFFFF0000
000060FF80404040404080FF0000
0060FF8000000000000080FF0000
20C08000000000000080FF800000
000000000000000080FF80000000
0000000000000060FF8000000000
00000000000060FFE00000000000
000000000060FFA0F0A000000000
0000000060FF800060FF80000000
00000060FFA000000080FF600000
000060FFA00000000000A0F04000
0040FFA000000000000010E0F020
0040400000000000000000104030
ENDCHAR
STARTCHAR  4E47
ENCODING  20039
SWIDTH  1000 0
DWIDTH  14 0
BBX  13 14 1 -2
BITMAP
10101010101010101010101000
FFFFFFFFFFFFFFFFFFFFFFFF20
20202020203020202020202000
0000000040FF20000000000000
0000000040FF20000000000000
0000000040FF20000000000000
3030303060FF40303030303020
FFFFFFFFFFFFFFFFFFFFFFFFE0
0000000040FF20000000000000
0000000040FF20000000000000
0000000040FF20000000000000
0000000040FF20000000000000
0000000040FFFFFFFFFFFFFFF0
00000000103030303030303020
ENDCHAR
STARTCHAR  4E48
ENCODING  20040
SWIDTH  1000 0
DWIDTH  14 0
BBX  14 14 0 -2
BITMAP
0000000000004080100000000000
000000000030F0A0000000000000
0000000010E0E000000000000000
00000000A0F0200040E060000000
00000080FF400020F0C000000000
000040FF800000E0E01000000000
0010E0C00000A0F0300000000000
00C0E0100060FF60000040300000
1030200030FF80000000A0F01000
00000010E0C00000000020FF6000
000000C0E0100000000000A0E000
000080FF4010101010101040FF60
0000FFFFFFFFFFFFFFFFFFFFFFA0
0000202020202020202020202010
ENDCHAR
STARTCHAR  4E49
ENCODING  20041
SWIDTH  1000 0
DWIDTH  14 0
BBX  13 14 0 -2
BITMAP
00001000000060100000001000
0030FF000000FF30000030FF00
0030FF000000FF30000030FF00
0030FF000000FF30000030FF00
0030FF000000FF30000030FF00
0030FF000000FF30000030FF00
0030FF6000001000001080FF00
000080FFC030001080F0E06000
00000020C0FFA0F0E060000000
0000000040F0FFFF8010000000
000040C0FF802080F0E0600000
30C0FFA0200000001080F0E040
C0C0300000000000000020A0FF
30000000000000000000000030
ENDCHAR
STARTCHAR  4E4B
ENCODING  20043
SWIDTH  1000 0
DWIDTH  14 0
BBX  14 14 0 -2
BITMAP
0000000000002000000000000000
000000000000FF30000000000000
003030303030FF40303030302000
00FFFFFFFFFFFFFFFFFFFFFFE000
00000000000000000020E0E03000
000000000000000040F0C0100000
0000000000000060FFA000000000
000000000000A0FF600000000000
0000000010C0E030000000000000
00000030E0C02000000000000000
000040F0A0000000000000000000
0080F06000000000000000000000
10FFFFFFFFFFFFFFFFFFFFFFFF40
0020202020202020202020202010
ENDCHAR
STARTCHAR  4E4C
ENCODING  20044
SWIDTH  1000 0
DWIDTH  14 0
BBX  13 14 1 -2
BITMAP
00000000002000000000000000
0030303030FF40303030303000
00FFFFFFFFFFFFFFFFFFFFFF00
00FF300000000000000030FF00
00FF300000000020303040FF00
00FF3000000000C0FFFFFFFF00
00FF3000000000000000000000
00FFFFFFFFFFFFFFFFFFFFFF30
0030303030303030303030FF30
3030303030303030302000FF30
FFFFFFFFFFFFFFFFFFF000FF30
0000000000000000000000FF30
00000000E0FFFFFFFFFFFFFF30
00000000203030303030303000
ENDCHAR
STARTCHAR  4E4D
ENCODING  20045
SWIDTH  1000 0
DWIDTH  14 0
BBX  14 14 0 -2
BITMAP
000030C010000000000000000000
0000A0C000000000000000000000
0000E0FFFFFFFFFFFFFFFFFFFF60
0040FF3030FF4030303030303010
0080C00000FF3000000000000000
00E0800000FF3020202020202000
30FF200000FF30FFFFFFFFFFF000
2040000000FF3010101010100000
0000000000FF3000000000000000
0000000000FF30FFFFFFFFFFF000
0000000000FF3030303030302000
0000000000FF3000000000000000
0000000000FF3000000000000000
0000000000200000000000000000
ENDCHAR
STARTCHAR  4E4E
ENCODING  20046
SWIDTH  1000 0
DWIDTH  14 0
BBX  14 14 0 -2
BITMAP
0010101010101010101010101000
40FFFFFFFFFFFFFFFFFFFFFFFF40
0030603020203060202020403000
0020FF60000030FF000000E06000
0000E0A0000030FF000030FF1000
000080E0000030FF000060E00000
000040FF200030FF0000A0A00000
10303040303040FF303030303010
80FFFFFFFFFFFFFFFFFFFFFFFF80
00000000000030FF000000000000
00000000000030FF000000000000
00000000000030FF000000000000
00000080FFFFFFFF000000000000
0000001030303030000000000000
ENDCHAR
STARTCHAR  4E4F
ENCODING  20047
SWIDTH  1000 0
DWIDTH  14 0
BBX  13 14 1 -2
BITMAP
10101010101010101010101000
FFFFFFFFFFFFFFFFFFFFFFFFE0
20202020202030202020202020
000000000030FF000000000000
000000000030FF000000000000
20303030303030303030303000
A0FFFFFFFFFFFFFFFFFFFFFF00
000000000000000060E0F08000
00000000000060E0F080100000
0000000060E0F0801000000000
000040E0F08010000000000000
40E0F0A0100000000000000000
F0FFFFFFFFFFFFFFFFFFFFFFE0
20303030303030303030303020
ENDCHAR
STARTCHAR  4E50
ENCODING  20048
SWIDTH  1000 0
DWIDTH  14 0
BBX  13 14 0 -2
BITMAP
00101010101010101010101000
00FFFFFFFFFFFFFFFFFFFFFF80
00FF4020202020202020202010
00FF30000000F0200000000000
00FF30000000FF300000000000
00FF30000000FF300000000000
00FF40303030FF403030303020
00FFFFFFFFFFFFFFFFFFFFFFE0
000000000000FF300000000000
0010E0400000FF300080E01000
0080E0000000FF300010F08000
10F060000000FF30000060F020
80E00000F0FFFF30000000E0A0
00000000203030000000000000
ENDCHAR
STARTCHAR  4E52
ENCODING  20050
SWIDTH  1000 0
DWIDTH  14 0
BBX  14 14 0 -2
BITMAP
0000000000000000000000000000
0030FFFFFFFFFFFFFFFFFFFF3000
0030FF2020202020202020200000
0030FF0000000000000000000000
0030FF00FFFFFFFFFFFFFFFFF000
0030FF003030303030FF40302000
0030FF000000000010FF20000000
0030FF000000000010FF20000000
3040FF303030303030FF40303000
FFFFFFFFFFFFFFFFFFFFFFFFFF20
0000004060000000000000000000
000040FF80000000000000000000
0020F0A000000000000000000000
00C0C00000000000000000000000
ENDCHAR
STARTCHAR  4E53
ENCODING  20051
SWIDTH  1000 0
DWIDTH  14 0
BBX  14 14 0 -2
BITMAP
0000000000000000000000000000
00FFFFFFFFFFFFFFFFFFFFA00000
00FF402020202020202020200000
00FF300000000000000000000000
00FF30FFFFFFFFFFFFFFFFFF4000
00FF30303030303030FF40301000
00FF30000000000010FF20000000
00FF30000000000010FF20000000
30FF40303030303030FF40303000
FFFFFFFFFFFFFFFFFFFFFFFFFF20
0000000000000000306000000000
000000000000000030F060000000
00000000000000000060F0200000
00000000000000000000A0A00000
ENDCHAR
STARTCHAR  4E54
ENCODING  20052
SWIDTH  1000 0
DWIDTH  14 0
BBX  13 14 1 -2
BITMAP
10101010101010101010101000
E0FFFFFFFFFFFFFFFFFFFFFF00
102020202040FF202020202000
000000000030FF000000000000
FFFFFFFFFFFFFFFFFFFFFFFFA0
303040E0FF8030A0FFE0303020
0030E0E03000000060F0E02000
80FFA010000000000020E0F040
F06060FF1000000030FF0080A0
2000A0E00000000030FF000020
0000E0A00000000030FF000000
0000FF600000000030FF000000
0030FF300000000030FF000000
00206000000000001060000000
ENDCHAR
STARTCHAR  4E56
ENCODING  20054
SWIDTH  1000 0
DWIDTH  14 0
BBX  14 14 0 -2
BITMAP
0010101010101010101010101000
00FFFFFFFFFFFFFFFFFFFFFFFF40
0020202020202040202020202000
00101010101030FF101010101010
00FFFFFFFFFFFFFFFFFFFFFFFFF0
00202020202040FF202020202010
00202020FF3020FF0030FF202010
10FFFFFFFF3020FF0030FFFFFF60
00000000FF3020FF0030FF000000
00303030FF3020FF0030FF101000
10FFFFFFFF3020FF0030FFFFFF60
00000000A02020FF000020202010
00000000000020FF000000000000
00000000000020FF000000000000
ENDCHAR
STARTCHAR  4E58
ENCODING  20056
SWIDTH  1000 0
DWIDTH  14 0
BBX  14 14 0 -2
BITMAP
0010101010101010101010100000
00FFFFFFFFFFFFFFFFFFFFFF8000
002020202020FF40202020201000
30FFFFFFFFFFFFFFFFFFFFFFFF30
103030303030FF40303030303010
00606060FF00FF3000FF40606000
10F0F0F0FF00FF3000FF80F0F010
00404030FF00FF3000FF20000000
00FFFF40FF00FF3000FFC0C0C010
00000020E000FF3000A0A0A0A010
00000020A080FF30E06010000000
0040C0FFA030FF3060E0F0A04000
60F080200000FF30000030A0F060
101000000000A010000000001010
ENDCHAR
STARTCHAR  4E59
ENCODING  20057
SWIDTH  1000 0
DWIDTH  14 0
BBX  14 14 0 -2
BITMAP
0020202020202020202020202000
40FFFFFFFFFFFFFFFFFFFFFFFF00
10404040404040404040A0FFA000
00000000000000000060FFA00000
000000000000000060FF80000000
0000000000000060FF8000000000
00000000000080FF800000000000
000000000080FF60000000000000
0000000080FF6000000000000000
000000A0FF400000000000000000
0000A0F040000000000000000000
00A0FF6020202020202020202010
00FFFFFFFFFFFFFFFFFFFFFFFFC0
0040404040404040404040404030
ENDCHAR
STARTCHAR  4E5C
ENCODING  20060
SWIDTH  1000 0
DWIDTH  14 0
BBX  14 14 0 -2
BITMAP
0000601000000000000000000000
0000FF3000000000000000002000
0000FF30000000003060A0E0FF00
0000FF404080C0F0FFF0C0A0FF00
40A0FFFFFFE0A06030000030FF00
A0C0FF601000000000000030FF00
0000FF300000000000000030FF00
0000FF300000000000000030FF00
0000FF300000000000000030FF00
0000FF300000000000000020A000
0000FF3000000000000000000000
0000FF4010101010101010101000
0000FFFFFFFFFFFFFFFFFFFFFF30
0000101010101010101010101000
ENDCHAR
STARTCHAR  4E5D
ENCODING  20061
SWIDTH  1000 0
DWIDTH  14 0
BBX  14 14 0 -2
BITMAP
0000000080300000000000000000
00000040FF200000000000000000
104040A0F0404040404010000000
40FFFFFFFFFFFFFFFFFF60000000
102030FF6020202020FF60000000
000040FF1000000000FF60000000
0000A0E00000000000FF60000000
0000E0800000000000FF60000000
0020FF400000000000FF60000000
0060F0000000000000FF60000000
00A0C0000000000000FF60000000
00E080000000000000FF80303020
30FF30000000000000FFFFFFFF80
2060000000000000003030303010
ENDCHAR
STARTCHAR  4E5E
ENCODING  20062
SWIDTH  1000 0
DWIDTH  14 0
BBX  14 14 0 -2
BITMAP
0080100000000000000000000000
00FF403030303030303030303010
00FFFFFFFFFFFFFFFFFFFFFFFF40
0030303030303030303030303010
0060606060606060606060600000
10FFFFFFFFFFFFFFFFFFFFFF1000
001010101010101020C0FFA00000
0000000000000060F0E030000000
000000000030C0F0600000000000
0000001080FFA020000000000000
000040E0E0400000000000000000
00A0FFC040404040404040404010
00FFFFFFFFFFFFFFFFFFFFFFFF30
0020202020202020202020202000
ENDCHAR
STARTCHAR  4E5F
ENCODING  20063
SWIDTH  1000 0
DWIDTH  14 0
BBX  14 14 0 -2
BITMAP
00000000000030FF000000000000
0010E010000030FF000000001000
0020FF10000030FF3060A0E0FF00
0020FF204080C0FFFFE0A0A0FF00
30A0FFFFF0C0A0FF10000030FF00
60C0FF30000030FF00000030FF00
0020FF10000030FF00000030FF00
0020FF10000030FF00000030FF00
0020FF10000030FF00000030FF00
0020FF10000030FF000000103000
0020FF1000000010000000000000
0020FF1010101010101010101000
0020FFFFFFFFFFFFFFFFFFFFFF80
0000202020202020202020202010
ENDCHAR
STARTCHAR  4E60
ENCODING  20064
SWIDTH  1000 0
DWIDTH  14 0
BBX  14 14 0 -2
BITMAP
0010101010101010101010101000
10FFFFFFFFFFFFFFFFFFFFFFFF10
002020202020202020202030FF10
20E080400000000000000010FF10
1080E0FFF0C0602000000010FF10
0000001060A0F0FFE0A01010FF10
000000000000003080C01010FF10
000000000000000000200010FF10
0000000000000040A0FF1010FF10
000000000060E0FFC0600010FF10
00002080F0F0A02000000010FF10
10A0FFE06010001010101020FF10
20A040000000E0FFFFFFFFFFFF10
0000000000002020202020202000
ENDCHAR
STARTCHAR  4E61
ENCODING  20065
SWIDTH  1000 0
DWIDTH  14 0
BBX  14 14 0 -2
BITMAP
000000000020A080000000000000
0000000030E0E010000000202000
00000030F0E010000010C0E04000
000030F0C010000030E0C0100000
0030F0E030303060F08000000000
0080FFFFFFFFFFE0300000000000
0000000040E0A010000000000000
000020A0F0600000000030E0E020
0000A0FFFFFFFFFFFFFFFFE02000
000020303030303080FFE0200000
0000000000000030F0E020000000
00000000000020F0E02000000000
80FFFFFFFFFFFFE0200000000000
1020202020202010000000000000
ENDCHAR
STARTCHAR  4E66
ENCODING  20070
SWIDTH  1000 0
DWIDTH  14 0
BBX  13 14 0 -2
BITMAP
00000000401000000000000000
00000000FF3000000000008000
10303030FF403030303030E010
30FFFFFFFFFFFFFFFFFFFFC040
00000000FF3000000030FFA060
00000000FF3000000030FF0000
00000000FF3000000030FF0000
FFFFFFFFFFFFFFFFFF80FFFF30
20202020FF402020202020FF30
00000000FF300000000000FF30
00000000FF300000000000FF30
00000000FF300000FFFFFFFF30
00000000FF3000002030303000
00000000FF3000000000000000
ENDCHAR
STARTCHAR  4E69
ENCODING  20073
SWIDTH  1000 0
DWIDTH  14 0
BBX  14 14 0 -2
BITMAP
0000001000000000001000000000
000000FF3000000030FF00000000
000000FF4030301030FF00000000
000000FFFFFFFF8030FF00000000
000000FF3000000030FF00000000
000000FF3000000030FF00000000
30FFFFFFFFFFFF0030FF00000000
30FF30303040FF0030FF00000000
30FF00000030FF0030FF00000000
30FF00000030FF0030FF00000000
30FF00000030FF0030FF00000000
30FF10101030FF0030FF10101000
30FFFFFFFFA0FF0030FFFFFFFFA0
0020202020102000002020202010
ENDCHAR
STARTCHAR  4E70
ENCODING  20080
SWIDTH  1000 0
DWIDTH  14 0
BBX  14 14 0 -2
BITMAP
0000000000000000000000000000
00FFFFFFFFFFFFFFFFFFFFFFFF30
002020202020202020304020FF30
00000000C0E0100000A0E000FF30
0060A01020F0A00000F08000FF30
0010E0C00040E04040FF2000C020
000040FF60000000A0E000000000
0000004060000000F08000000000
30FFFFFFFFFFFFFFFFFFFFFFFF80
1030303080FF8030408040303010
00000060FF80000010C0F0300000
000060FF800000000010C0E02000
0080FF6000000000000010C0E020
0030200000000000000000103020
ENDCHAR
STARTCHAR  4E71
ENCODING  20081
SWIDTH  1000 0
DWIDTH  14 0
BBX  14 14 0 -2
BITMAP
0010101010101010104000000000
00FFFFFFFFFFFFC030FF00000000
00202030C020201030FF00000000
00101030FF10101030FF00000000
40FFFFFFFFFFFFFF30FF00000000
10404060FF40404030FF00000000
00000030FF00000030FF00000000
003030303030300030FF00000000
00FFFFFFFFFFFF3030FF00000000
00FF30000000FF3030FF00000000
00FF30000000FF3030FF00000000
00FF30000000FF3030FF00000000
00FFFFFFFFC0FF3030FFFFFFFF80
0020202020202000002020202010
ENDCHAR
STARTCHAR  4E73
ENCODING  20083
SWIDTH  1000 0
DWIDTH  14 0
BBX  14 14 0 -2
BITMAP
0010101010101010104000000000
00FFFFFFFFFFFFE030FF00000000
002020202020202030FF00000000
00E030E08000C0C030FF00000000
00C060A0A010FF6030FF00000000
00A08080C060FF3030FF00000000
00A0FFFFFFFFFF0030FF00000000
0020303040FF800030FF00000000
0000000080E0100030FF00000000
10FFFFFFFFFFFFE030FF00000000
00303030FF40302030FF00000000
00000000FF30000030FF00000000
0030FFFFFF30000030FFFFFFFFC0
0000303030000000002020202020
ENDCHAR
STARTCHAR  4E7E
ENCODING  20094
SWIDTH  1000 0
DWIDTH  14 0
BBX  14 14 0 -2
BITMAP
0000001030000010400000000000
00303040FF303030FF3030303010
10FFFFFFFFFFFF40FFFFFFFFFF60
00202040FF202000000000000000
00FFFFFFFFFFFF10303030303000
00FF30101030FF80FFFFFFFFFF00
00FF30E0C030FF00000000E0A000
00FF30201030FF00000080E01000
00FFFFFFC0A0FF000040FF400000
003030308030300010E0A0000000
00303040FF303000A0F010000000
20FFFFFFFFFFFF60FF6000000000
00000030FF0000A0FFFFFFFFFF40
0000001060000020202020202010
ENDCHAR
STARTCHAR  4E86
ENCODING  20102
SWIDTH  1000 0
DWIDTH  14 0
BBX  14 14 0 -2
BITMAP
0020202020202020202020202000
30FFFFFFFFFFFFFFFFFFFFFFFF30
10404040404040404040C0FFE010
000000000000000030E0FF800000
0000000000000080F0E030000000
00000000000000FFA00000000000
00000000000000FF600000000000
00000000000000FF600000000000
00000000000000FF600000000000
00000000000000FF600000000000
00000000000000FF600000000000
00000000000000FF600000000000
00000040FFFFFFFF600000000000
0000001030303030100000000000
ENDCHAR
STARTCHAR  4E88
ENCODING  20104
SWIDTH  1000 0
DWIDTH  14 0
BBX  13 14 0 -2
BITMAP
00101010101010101010101000
00FFFFFFFFFFFFFFFFFFFFFF30
00202040202020202020A0E000
000000E0800000000020F04000
00000080F000000000A0C00000
00101020F060101040FF401010
80FFFFFFFFFFFFFFFFFFFFFFFF
102020202020308020202040FF
00000000000030FF00000030FF
00000000000030FF0000001060
00000000000030FF0000000000
00000000000030FF0000000000
000000E0FFFFFFFF0000000000
00000020303030300000000000
ENDCHAR
STARTCHAR  4E89
ENCODING  20105
SWIDTH  1000 0
DWIDTH  14 0
BBX  14 14 0 -2
BITMAP
0000000010101010101000000000
000000E0FFFFFFFFFFF010000000
0000A0F020202020F08000000000
0040FFA030303080F03030300000
20F0E0FFFFFFFFFFFFFFFFFF3000
00000000000030FF000000FF3000
00FFFFFFFFFFFFFFFFFFFFFFFFA0
00303030303040FF303030FF4010
00000000000030FF000000FF3000
0000FFFFFFFFFFFFFFFFE0FF3000
00003030303040FF303020300000
00000000000030FF000000000000
000000F0FFFFFFFF000000000000
0000002030303030000000000000
ENDCHAR
STARTCHAR  4E8B
ENCODING  20107
SWIDTH  1000 0
DWIDTH  14 0
BBX  14 14 0 -2
BITMAP
00000000000000A0100000000000
00FFFFFFFFFFFFFFFFFFFFFFFFC0
00303030303030FF403030303020
0000FFFFFFFFFFFFFFFFFFFFFF00
0000FF40303030FF40303040FF00
0000FFFFFFFFFFFFFFFFFF80FF00
00006060606060FF606040406000
0020FFFFFFFFFFFFFFFFFFFFFF00
00303030303030FF40303040FF20
00FFFFFFFFFFFFFFFFFFFFFFFFC0
0020FFFFFFFFFFFFFFFFFFC0FF00
00003030303030FF403030203000
00000000E0FFFFFF200000000000
0000000020303030000000000000
ENDCHAR
STARTCHAR  4E8C
ENCODING  20108
SWIDTH  1000 0
DWIDTH  14 0
BBX  13 12 1 -1
BITMAP
60606060606060606060606000
FFFFFFFFFFFFFFFFFFFFFFFF10
00000000000000000000000000
00000000000000000000000000
00000000000000000000000000
00000000000000000000000000
00000000000000000000000000
00000000000000000000000000
00000000000000000000000000
00000000000000000000000000
FFFFFFFFFFFFFFFFFFFFFFFFFF
60606060606060606060606060
ENDCHAR
STARTCHAR  4E8D
ENCODING  20109
SWIDTH  1000 0
DWIDTH  14 0
BBX  13 13 1 -2
BITMAP
10FFFFFFFFFFFFFFFFFFFFFF10
00303030303030303030303000
00000000000000000000000000
00000000000000000000000000
FFFFFFFFFFFFFFFFFFFFFFFFF0
30303030303030303030303020
0000000000000000E060000000
0000000000000000FF60000000
0000000000000000FF60000000
0000000000000000FF60000000
0000000000000000FF60000000
00000000E0FFFFFFFF60000000
00000000202020202010000000
ENDCHAR
STARTCHAR  4E8E
ENCODING  20110
SWIDTH  1000 0
DWIDTH  14 0
BBX  14 14 0 -2
BITMAP
0010101010101010101010101000
00FFFFFFFFFFFFFFFFFFFFFFFF40
0020202020202040202020202010
00000000000000FF300000000000
00000000000000FF300000000000
00000000000000FF300000000000
20FFFFFFFFFFFFFFFFFFFFFFFFFF
00303030303030FF403030303030
00000000000000FF300000000000
00000000000000FF300000000000
00000000000000FF300000000000
00000000000000FF300000000000
000000E0FFFFFFFF300000000000
0000002030303030000000000000
ENDCHAR
STARTCHAR  4E8F
ENCODING  20111
SWIDTH  1000 0
DWIDTH  14 0
BBX  13 14 1 -2
BITMAP
00000000000000000000000000
00FFFFFFFFFFFFFFFFFFFFA000
00202020202020202020201000
00000000000000000000000000
30303030303030303030303020
FFFFFFFFFFFFFFFFFFFFFFFFE0
000030FF000000000000000000
000030FF303030303030303000
000030FFFFFFFFFFFFFFFFFF00
0000000000000000000030FF00
0000000000000000000030FF00
0000000000000000000030FF00
00000000C0FFFFFFFFFFFFFF00
00000000203030303030303000
ENDCHAR
STARTCHAR  4E91
ENCODING  20113
SWIDTH  1000 0
DWIDTH  14 0
BBX  14 13 0 -2
BITMAP
20FFFFFFFFFFFFFFFFFFFFFFFF00
0030303030303030303030303000
0000000000000000000000000000
0000000000000000000000000000
3030303030303030303030303000
FFFFFFFFFFFFFFFFFFFFFFFFFF20
0000104000000000000000000000
0000A0E0000000000000A0A00000
0010F08000000000000060F01000
0080FF1000000000000010F04000
00E0A00000000000000000A0A000
40FFFFFFFFFFFFFFFFFFFFFFE000
1020202020202020202020202000
ENDCHAR
STARTCHAR  4E92
ENCODING  20114
SWIDTH  1000 0
DWIDTH  14 0
BBX  13 14 1 -2
BITMAP
10101010101010101010101010
F0FFFFFFFFFFFFFFFFFFFFFFE0
1020F080202020202020202010
0010FF40101010101010100000
0030FF80FFFFFFFFFFFFFF4000
0060FF10202020202040FF2000
0080E000000000000040FF1000
00A0C000000000000060F00000
00C0A030303030302080E00000
00E0FFFFFFFFFFFFE0A0A00000
000000000000000000C0800000
101010101010101010E0801000
FFFFFFFFFFFFFFFFFFFFFFFFE0
20202020202020202020202020
ENDCHAR
STARTCHAR  4E93
ENCODING  20115
SWIDTH  1000 0
DWIDTH  14 0
BBX  14 13 0 -2
BITMAP
00FFFFFFFFFFFFFFFFFFFFFFC000
0030303030303030303030302000
0000000000000000000000000000
0000000000000000000000000000
2020202020202020202020202000
FFFFFFFFFFFFFFFFFFFFFFFFFF10
1010101010101010101010101000
0000C080000000000030FF000000
0000F060000000000030FF000000
0020FF30000000000030FF000000
0040FF10000000000030FF000000
0080E000000000000030FF000000
00608000000000000020C0000000
ENDCHAR
STARTCHAR  4E94
ENCODING  20116
SWIDTH  1000 0
DWIDTH  14 0
BBX  13 14 0 -2
BITMAP
00000000000000000000000000
30FFFFFFFFFFFFFFFFFFFFFFFF
00202080F02020202020202020
00000060E00000000000000000
00000080C00000000000000000
002030A0C03030303030303000
00C0FFFFFFFFFFFFFFFFFFFF00
000000E080000000000030FF00
000000E060000000000030FF00
000000FF40000000000030FF00
000010FF30000000000030FF00
101040FF20101010101030FF10
C0FFFFFFFFFFFFFFFFFF80FFFF
10202020202020202020202020
ENDCHAR
STARTCHAR  4E95
ENCODING  20117
SWIDTH  1000 0
DWIDTH  14 0
BBX  13 13 1 -2
BITMAP
0000E0600000000000FF300000
FFFFFFFFFFFFFFFFFFFFFFFF40
3030F0603030303030FF403010
0000FF300000000000FF300000
0010FF200000000000FF300000
0010FF100000000000FF300000
FFFFFFFFFFFFFFFFF0FFFFFFE0
3030F0603030303020FF403020
0000FF300000000000FF300000
0010FF200000000000FF300000
0010FF100000000000FF300000
0020FF100000000000FF300000
0020C0000000000000C0200000
ENDCHAR
STARTCHAR  4E98
ENCODING  20120
SWIDTH  1000 0
DWIDTH  14 0
BBX  14 14 0 -2
BITMAP
0010101010101010101010101000
00FFFFFFFFFFFFFFFFFFFFFFFFA0
0020202020202020202020202010
0000303030303030303030303000
0020FFFFFFFFFFFFFFFFFFFFFF00
0020FF100000000000000030FF00
0020FF103030303030303030FF00
0020FF30FFFFFFFFFFFFFF30FF00
0020FF100000000000000030FF00
0020FF303030303030303030FF00
0020FFFFFFFFFFFFFFFFFFA0FF00
0000000000000000000000000000
40FFFFFFFFFFFFFFFFFFFFFFFFE0
1030303030303030303030303020
ENDCHAR
STARTCHAR  4E9A
ENCODING  20122
SWIDTH  1000 0
DWIDTH  14 0
BBX  14 14 0 -2
BITMAP
0010101010101010101010101000
00FFFFFFFFFFFFFFFFFFFFFFFF80
0020202020202020202020202010
1040000030FF000030FF00004010
30FF000030FF000030FF0000FF30
20FF100030FF000030FF0010FF20
10FF200030FF000030FF0020FF10
00FF300030FF000030FF0030FF00
00F0400030FF000030FF0040F000
00E0600030FF000030FF0060E000
0030100030FF000030FF00103000
0000000020A0000020A000000000
10FFFFFFFFFFFFFFFFFFFFFFFFA0
0020202020202020202020202010
ENDCHAR
STARTCHAR  4E9B
ENCODING  20123
SWIDTH  1000 0
DWIDTH  14 0
BBX  13 14 1 -2
BITMAP
00000010600000601000000000
00401030FF0000FF3000000000
00FF3030FF3020FF3030303010
00FF3030FFFFC0FF30FFFFFFA0
00FF3030FF0000FF3000000000
00FF3030FF0000FF3000000000
10FF3030FF1010FF3010101000
FFFFFFFFFFFFC0FFFFFFFFFFA0
20202020202010202020202010
00F0FFFFFFFFFFFFFFFFFF0000
00203030303030303030300000
10101010101010101010101000
FFFFFFFFFFFFFFFFFFFFFFFFC0
20202020202020202020202010
ENDCHAR
STARTCHAR  4E9F
ENCODING  20127
SWIDTH  1000 0
DWIDTH  14 0
BBX  13 14 1 -2
BITMAP
00101010101010101010100000
00E0FFFFFFFFFFFFFFFFFF0000
00202020202020A0FFC0300000
303030300010E0E06010101000
FFFFFFFF3030FF00F0FFFFFFA0
FF3000FF3030FF00804020FFA0
FF3000FF3030FF00E03000FFA0
FF3000FF3030FF00E0A080FF80
FF3000FF3030FF0030F0FF8000
FF4010FF3030FF00A0F0E0F060
FFFFC0FF30F0FF00C0200060E0
00000000002030000000000000
FFFFFFFFFFFFFFFFFFFFFFFFE0
20202020202020202020202020
ENDCHAR
STARTCHAR  4EA0
ENCODING  20128
SWIDTH  1000 0
DWIDTH  14 0
BBX  14 5 0 7
BITMAP
000000000000A010000000000000
000000000000FF20000000000000
000000000000FF20000000000000
3030303030303030303030303000
FFFFFFFFFFFFFFFFFFFFFFFFFF20
ENDCHAR
STARTCHAR  4EA1
ENCODING  20129
SWIDTH  1000 0
DWIDTH  14 0
BBX  14 14 0 -2
BITMAP
000000000010E040000000000000
000000000020FF40000000000000
3030303030303030303030303010
FFFFFFFFFFFFFFFFFFFFFFFFFF40
0010600000000000000000000000
0030FF0000000000000000000000
0030FF0000000000000000000000
0030FF0000000000000000000000
0030FF0000000000000000000000
0030FF0000000000000000000000
0030FF0000000000000000000000
0030FF1010101010101010101000
0030FFFFFFFFFFFFFFFFFFFFC000
0000101010101010101010101000
ENDCHAR
STARTCHAR  4EA2
ENCODING  20130
SWIDTH  1000 0
DWIDTH  14 0
BBX  13 14 1 -2
BITMAP
00000000001080000000000000
101010101030FF101010101010
FFFFFFFFFFFFFFFFFFFFFFFFF0
20202020202020202020202010
00000000000000000000000000
0000FFFFFFFFFFFFFFFF300000
0000FF402020202020FF300000
0000FF300000000000FF300000
0000FF300000000000FF300000
0000FF300000000000FF300000
0000FF300000000000FF300000
0000FF300000000000FF300000
FFFFFF300000000000FFFFFFE0
20202000000000000020202020
ENDCHAR
STARTCHAR  4EA4
ENCODING  20132
SWIDTH  1000 0
DWIDTH  14 0
BBX  14 14 0 -2
BITMAP
0000000000000030000000000000
00303030303040FF303030303020
00FFFFFFFFFFFFFFFFFFFFFFFFF0
0000000000601000304000000000
00001080E0F0100030FFE0601000
0080F0E080100000002080F0F080
00E08010000000000000003080E0
0000A0E0600000000020A0FF0000
00002080F0E08020A0FFE0400000
000000001080FFFFFF6000000000
00000020A0FFE080E0F080100000
0030A0FFE06000000060E0F0A020
00E0C0400000000000000060E0C0
0030000000000000000000000030
ENDCHAR
STARTCHAR  4EA5
ENCODING  20133
SWIDTH  1000 0
DWIDTH  14 0
BBX  13 14 1 -2
BITMAP
00000000001040000000000000
303030303040FF303030303020
FFFFFFFFFFFFFFFFFFFFFFFFE0
000030F0A00000000000000000
0020E0E010000000000060A000
10E0F0403030303040E0FF8000
40FFFFFFFFFFFFFFE080100000
00000030A0F0C0600000004080
1060E0F0A03000001060E0FF80
80E08010000030A0F0E0801000
2000001060E0FFFFF040000000
0030A0F0F0802020A0FFA02000
C0FFC060000000000030C0F020
A0300000000000000000006020
ENDCHAR
STARTCHAR  4EA6
ENCODING  20134
SWIDTH  1000 0
DWIDTH  14 0
BBX  14 14 0 -2
BITMAP
0000000000006010000000000000
001010101010FF30101010101000
C0FFFFFFFFFFFFFFFFFFFFFFFF00
1020202040402020402020202000
00204000A0A00000FF3020400000
0080C000E0800000FF3040F00000
00C08000F0600000FF3020FF2000
00E06010FF300000FF3000F04000
10FF3030FF100000FF3000E06000
40FF0060F0000000FF3000A0A000
80E00080E0000000FF300080C000
A0A000A0A0000000FF300060F000
603000C0800080FFFF3000208000
0000002010001030300000000000
ENDCHAR
STARTCHAR  4EA7
ENCODING  20135
SWIDTH  1000 0
DWIDTH  14 0
BBX  14 14 0 -2
BITMAP
000000000010E040000000000000
E0FFFFFFFFFFFFFFFFFFFFFFFF00
2030303030303030303030303000
0000F080000000000040FF300000
000080E00000000000C0C0000000
0000206010000000006030000000
30FFFFFFFFFFFFFFFFFFFFFFFF20
30FF303030303030303030303000
30FF000000000000000000000000
30FF000000000000000000000000
30FF000000000000000000000000
30FF000000000000000000000000
30FF000000000000000000000000
0030000000000000000000000000
ENDCHAR
STARTCHAR  4EA8
ENCODING  20136
SWIDTH  1000 0
DWIDTH  14 0
BBX  13 14 1 -2
BITMAP
000000000020F0000000000000
FFFFFFFFFFFFFFFFFFFFFFFFC0
30303030303030303030303020
00303030303030303030300000
00FFFFFFFFFFFFFFFFFFFF3000
00FF3010101010101000FF3000
00FFFFFFFFFFFFFFFFC0FF3000
00202020202020202020200000
80FFFFFFFFFFFFFFFFFFFFFF00
10303030303030A0FFE0802000
00000000000030FF6000000000
00000000000030FF0000000000
00000010FFFFFFFF0000000000
00000000303030300000000000
ENDCHAR
STARTCHAR  4EA9
ENCODING  20137
SWIDTH  1000 0
DWIDTH  14 0
BBX  14 14 0 -2
BITMAP
0000000000006010000000000000
303030303030FF40303030303000
FFFFFFFFFFFFFFFFFFFFFFFFFF20
0000000000000000000000000000
10FFFFFFFFFFFFFFFFFFFFFF3000
10FF403030303030303030FF3000
10FF20000000FF20000000FF3000
10FF20000000FF20000000FF3000
10FF20FFFFFFFFFFFFFFA0FF3000
10FF20303030FF40303010FF3000
10FF20000000FF20000000FF3000
10FF20101010A010101000FF3000
10FFFFFFFFFFFFFFFFFFC0FF3000
0020202020202020202020200000
ENDCHAR
STARTCHAR  4EAB
ENCODING  20139
SWIDTH  1000 0
DWIDTH  14 0
BBX  13 14 0 -2
BITMAP
000000000000E0200000000000
C0FFFFFFFFFFFFFFFFFFFFFFFF
20303030303030303030303030
0030FFFFFFFFFFFFFFFFFFFF00
0030FF3030303030303040FF00
0030FF3030303030303030FF00
0030FFFFFFFFFFFFFFFFC0FF00
00103030303030303030303000
0040FFFFFFFFFFFFFFFFFFE000
2030303030303040A0F0A03030
C0FFFFFFFFFFFFFFFFFFFFFFFF
00000000000030FF0000000000
00000000E0FFFFFF0000000000
00000000203030300000000000
ENDCHAR
STARTCHAR  4EAC
ENCODING  20140
SWIDTH  1000 0
DWIDTH  14 0
BBX  15 14 0 -2
BITMAP
000000000000003000000000000000
00303030303040FF40303030302000
00FFFFFFFFFFFFFFFFFFFFFFFFF000
000000000000000000000000000000
0000FFFFFFFFFFFFFFFFFFFFFF0000
0000FF403030303030303040FF0000
0000FF300000000000000030FF0000
0000FFFFFFFFFFFFFFFFE0A0FF0000
00003030303040FF30302030300000
000030A0300020FF100060A0300000
0000C0E0000020FF100010E0C00000
0040FF40000020FF10000040FF4000
00C0A00000C0FFFF10000000A0C000
000000000020303000000000000000
ENDCHAR
STARTCHAR  4EAD
ENCODING  20141
SWIDTH  1000 0
DWIDTH  14 0
BBX  13 14 1 -2
BITMAP
000000000020C0000000000000
FFFFFFFFFFFFFFFFFFFFFFFFE0
30303030303030303030303020
0030FFFFFFFFFFFFFFFFFF3000
0030FF30303030303030FF3000
0030FFFFFFFFFFFFFFF0FF3000
00003030303030303020300000
FFFFFFFFFFFFFFFFFFFFFFFF30
FF40303030303030303030FF30
60103030303030303030206010
0000FFFFFFFFFFFFFFFFA00000
000000000000FF300000000000
000020FFFFFFFF300000000000
00000030303030000000000000
ENDCHAR
STARTCHAR  4EAE
ENCODING  20142
SWIDTH  1000 0
DWIDTH  14 0
BBX  13 14 1 -2
BITMAP
000000000020C0000000000000
FFFFFFFFFFFFFFFFFFFFFFFFC0
30303030303030303030303020
00FFFFFFFFFFFFFFFFFFFF3000
00FF4030303030303030FF3000
00FFFFFFFFFFFFFFFF80FF3000
00303030303030303020300000
FFFFFFFFFFFFFFFFFFFFFFFF30
FF40303030303030303030FF30
FF3030FFFFFFFFFFFFFF30FF30
000030FF3030303030FF300000
000030FF0000000000FF300000
E0FFFFFF0000000000FFFFFF80
20303030000000000030303010
ENDCHAR
STARTCHAR  4EB2
ENCODING  20146
SWIDTH  1000 0
DWIDTH  14 0
BBX  14 14 0 -2
BITMAP
000000000000E020000000000000
30FFFFFFFFFFFFFFFFFFFFFFFF30
0030303030303030303030303000
0000E060000000000000E0A00000
0000A0A0000000000030FF400000
60FFFFFFFFFFFFFFFFFFFFFFFF60
103030303030FF40303030303010
001010101010FF30101010101000
30FFFFFFFFFFFFFFFFFFFFFFFF30
002040402020FF40202060302000
0000E0600000FF300000E0C00000
0060E0000000FF30000040FF6000
00E0800060FFFF30000000A0E000
0000000010303000000000000000
ENDCHAR
STARTCHAR  4EB3
ENCODING  20147
SWIDTH  1000 0
DWIDTH  14 0
BBX  13 14 1 -2
BITMAP
000000000020C0000000000000
FFFFFFFFFFFFFFFFFFFFFFFFE0
30303030303030303030303020
0030FFFFFFFFFFFFFFFFFF3000
0030FF40404040404040FF3000
0030FFFFFFFFFFFFFFF0FF3000
30303030303030303030303030
FFFFFFFFFFFFFFFFFFFFFFFFFF
FF30FFFFFFFFFFFFFFFFC030FF
2000404040FF60404040300020
FFFFFFFFFFFFFFFFFFFFFFFFA0
3030303030FF40303030303020
0000000000FFFFFFFFFFFFFFA0
00000000003030303030303020
ENDCHAR
STARTCHAR  4EB5
ENCODING  20149
SWIDTH  1000 0
DWIDTH  14 0
BBX  14 13 0 -2
BITMAP
00303030303040FF303030303020
00FFFFFFFFFFFFFFFFFFFFFFFFA0
003030FF6020102080FF40202000
00FFFFFFFFC040FFFFFFFFFFFF00
000010FF40002030F0601030FF00
00FFFFFFFFC040FFF0200030FF00
003030FF602000E0F0FF6030FF10
00E0FFFF400010FF30304030FFA0
0020304030003020103010002030
000010E08000FF3010C0F080E080
0000C0C00000FF300000A0FFC010
0080E0100000FFFFA0000060FF60
0020100000004040300000001010
ENDCHAR
STARTCHAR  4EBA
ENCODING  20154
SWIDTH  1000 0
DWIDTH  14 0
BBX  14 14 0 -2
BITMAP
000000000000A010000000000000
000000000000FF30000000000000
000000000000FF30000000000000
000000000000FF30000000000000
000000000000FF30000000000000
000000000000FF30000000000000
000000000060FF80000000000000
0000000030F0A0FF600000000000
00000010E0A00080F03000000000
000000C0E0100000C0E010000000
0000A0F02000000010E0C0000000
0060FF40000000000030F0800000
30F0800000000000000060FF6000
4060000000000000000000606000
ENDCHAR
STARTCHAR  4EBB
ENCODING  20155
SWIDTH  1000 0
DWIDTH  14 0
BBX  4 14 0 -2
BITMAP
00004030
0010FF40
0060F000
00C0A000
10FF6000
60F01000
0030FF00
0030FF00
0030FF00
0030FF00
0030FF00
0030FF00
0030FF00
00104000
ENDCHAR
STARTCHAR  4EBF
ENCODING  20159
SWIDTH  1000 0
DWIDTH  14 0
BBX  14 14 0 -2
BITMAP
0000202000000000000000000000
0000A06010FFFFFFFFFFFFFFFF30
0020FF1000303030303030E0E000
0080C00000000000000080F03000
00E06000000000000040FF600000
40F010000000000020F0A0000000
0030FF0000000000C0E010000000
0030FF0000000080FF4000000000
0030FF00000060FF800000000000
0030FF000020F0C0000000000000
0030FF0000E0F020000000000000
0030FF00A0FF6000000000000000
0030FF00F0FFFFFFFFFFFFFFFF00
0010400020202020202020202000
ENDCHAR
STARTCHAR  4EC0
ENCODING  20160
SWIDTH  1000 0
DWIDTH  14 0
BBX  14 13 0 -2
BITMAP
000080A00000000020FF10000000
0000E0400000000020FF10000000
0060E0000000000020FF10000000
00E080000000000020FF10000000
60F01000FFFFFFFFFFFFFFFFFF40
0000FF203030303040FF30303010
0000FF200000000020FF10000000
0000FF200000000020FF10000000
0000FF200000000020FF10000000
0000FF200000000020FF10000000
0000FF200000000020FF10000000
0000FF200000000020FF10000000
000040100000000010C010000000
ENDCHAR
STARTCHAR  4EC1
ENCODING  20161
SWIDTH  1000 0
DWIDTH  14 0
BBX  14 14 0 -2
BITMAP
0000403000000000000000000000
0000F04000303030303030303000
0060E00020FFFFFFFFFFFFFFFF00
00C0800000000000000000000000
20FF300000000000000000000000
80E0000000000000000000000000
0000FF3000000000000000000000
0000FF3000000000000000000000
0000FF3000000000000000000000
0000FF3000000000000000000000
0000FF3000000000000000000000
0000FF3030303030303030303000
0000FF30FFFFFFFFFFFFFFFFFF10
0000401000000000000000000000
ENDCHAR
STARTCHAR  4EC2
ENCODING  20162
SWIDTH  1000 0
DWIDTH  14 0
BBX  14 14 0 -2
BITMAP
0000103000000020200000000000
0000A0C0000000F0800000000000
0010FF60103040FF603030303000
0080E00080FFFFFFFFFFFFFFFF30
00E08000000060F000000000FF30
40FF20000000A0E000000000FF30
0030FF000000C0A000000000FF30
0030FF000000E08000000000FF30
0030FF000010FF4000000000FF30
0030FF000040FF2000000000FF30
0030FF000060FF0000000000FF30
0030FF000080E00000000000FF30
0030FF0000C0A00000E0FFFFFF30
0010400000403000002030303000
ENDCHAR
STARTCHAR  4EC3
ENCODING  20163
SWIDTH  1000 0
DWIDTH  14 0
BBX  14 14 0 -2
BITMAP
0000202000000000000000000000
0000E06000FFFFFFFFFFFFFFFF30
0040FF2000303030306040303010
00A0C0000000000000FF60000000
00F080000000000000FF60000000
40FF20000000000000FF60000000
0000FF300000000000FF60000000
0000FF300000000000FF60000000
0000FF300000000000FF60000000
0000FF300000000000FF60000000
0000FF300000000000FF60000000
0000FF300000000000FF60000000
0000FF300000A0FFFFFF60000000
0000401000001030303010000000
ENDCHAR
STARTCHAR  4EC4
ENCODING  20164
SWIDTH  1000 0
DWIDTH  14 0
BBX  14 14 0 -2
BITMAP
0000000000000000000000000000
10FFFFFFFFFFFFFFFFFFFFFFFF60
10FF302020202060302020202010
10FF1000000000FF300000000000
10FF1000000000FF300000000000
10FF1000000000FF300000000000
10FF1000000080FFA00000000000
10FF10000020F060F06000000000
10FF100000C0A00060F030000000
10FF100060F0100000C0E0000000
10FF1010F06000000010F0800000
10FF10A0C0000000000040FF4000
10FF60FF30000000000000A0E010
0040303000000000000000104020
ENDCHAR
STARTCHAR  4EC5
ENCODING  20165
SWIDTH  1000 0
DWIDTH  14 0
BBX  14 14 0 -2
BITMAP
0000403000000000000000000000
0000F04010FFFFFFFFFFFFFFFF00
0040F0000030303030303040FF00
00A0A00010FF200000000030FF00
00F0600010FF200000000030FF00
40FF200010FF200000000030FF00
0000FF2010FF600000000060FF00
0000FF200080FFA01010A0FF8000
0000FF20000030E0E0E0E0300000
0000FF20000010A0FFFFA0000000
0000FF200040E0F06060F0C01000
0000FF20A0FFA010000030E0E010
0000FF20F060000000000010C030
0000401010000000000000000010
ENDCHAR
STARTCHAR  4EC6
ENCODING  20166
SWIDTH  1000 0
DWIDTH  14 0
BBX  14 13 0 -2
BITMAP
000000E080000000FF3000000000
000060F010000000FF3000000000
0010E08000000000FF30A0600000
0080E01000000000FF30A0C00000
20F0600000000000FF3060F00000
000030FF00000000FF3010FF4000
000030FF00000000FF3000C08000
000030FF00000000FF300080E000
000030FF00000000FF300030FF10
000030FF00000000FF300000F060
000030FF00000000FF3000001010
000030FF00000000FF3000000000
0000104000000000C02000000000
ENDCHAR
STARTCHAR  4EC7
ENCODING  20167
SWIDTH  1000 0
DWIDTH  14 0
BBX  14 13 0 -2
BITMAP
0000F060000080E0000000000000
0040FF102030C0C0303030000000
00A0C000E0FFFFFFFFFFFF300000
00F060000000FF400000FF300000
40FF20000030FF200000FF300000
0030FF000060F0000000FF300000
0030FF000080E0000000FF300000
0030FF0000A0A0000000FF300000
0030FF0000E080000000FF300000
0030FF0000FF40000000FF300000
0030FF0030FF20000000FF300000
0030FF0060F000000000FFFFFF60
0010400030400000000020202010
ENDCHAR
STARTCHAR  4EC9
ENCODING  20169
SWIDTH  1000 0
DWIDTH  14 0
BBX  14 14 0 -2
BITMAP
0000204000000000000000000000
0000C08000FFFFFFFFFFFF300000
0030FF2000FF40303030FF300000
00A0A00000FF30000000FF300000
20FF400000FF30000000FF300000
80E0000000FF30000000FF300000
0000FF3000FF30000000FF300000
0000FF3000FF30000000FF300000
0000FF3000FF30000000FF300000
0000FF3000FF30000000FF300000
0000FF3000FF30000000FF300000
0000FF3000FF30000000FF300000
0000FF3000FF30000000FFFFFF10
0000401000601000000030303000
ENDCHAR
STARTCHAR  4ECA
ENCODING  20170
SWIDTH  1000 0
DWIDTH  14 0
BBX  14 15 0 -3
BITMAP
000000000020A030000000000000
0000000060F0E0FF800000000000
000020C0F0600060E0E030000000
0080F0C02000401010A0FF801000
C0F060000000FF30000040E0E010
C02000000000FF3000000010A020
0000000000003010000000000000
0020303030303030303030300000
00E0FFFFFFFFFFFFFFFFFFFF0000
00000000000000000040FFA00000
000000000000000020F0A0000000
0000000000000010E0C010000000
00000000000000C0E01000000000
00000000000080F0200000000000
0000000000001010000000000000
ENDCHAR
STARTCHAR  4ECB
ENCODING  20171
SWIDTH  1000 0
DWIDTH  14 0
BBX  14 14 0 -2
BITMAP
0000000000002080100000000000
000000000060F0FFE03000000000
00000020C0FF8020C0FF80000000
000060F0E03000000060F0C02000
00A0FF8000000000000020C0F060
10E04000000000000000000080A0
00100080E00000000030FF000010
000000A0C00000000030FF000000
000000C0A00000000030FF000000
000000E0800000000030FF000000
000000F0600000000030FF000000
000010FF400000000030FF000000
000020FF200000000030FF000000
0000106000000000001060000000
ENDCHAR
STARTCHAR  4ECD
ENCODING  20173
SWIDTH  1000 0
DWIDTH  14 0
BBX  14 14 0 -2
BITMAP
0000103000101010101010100000
0000C0C000FFFFFFFFFFFFFFF000
0020FF6000202020202020F0A000
0080E0000000E060000060FF3000
00E080000000F0400000E0A00000
40FF20000010FF300040FF603000
0030FF000030FF100080FFFFFF30
0030FF000040F00000000000FF30
0030FF000060E00000000000FF30
0030FF000080C00000000000FF30
0030FF0000A0A00000000000FF30
0030FF0000A0800000001010FF30
0030FF0000E080000060FFFFFF30
0010400000803000001020202000
ENDCHAR
STARTCHAR  4ECE
ENCODING  20174
SWIDTH  1000 0
DWIDTH  14 0
BBX  13 14 0 -2
BITMAP
00000060100000000060100000
000000FF3000000000FF300000
000000FF3000000000FF300000
000000FF3000000000FF300000
000010FF3000000000FF300000
000060FF6000000030FF800000
0000A0F0A000000080F0E00000
0000F080F0000000C080FF2000
0040F010F0300010F020E08000
00A0A000A0800040E00080E000
00F0600060C00080A00030FF20
40FF100030FF10E0600000E080
A0C0000000F060FF30000080C0
30200000003030400000001030
ENDCHAR
STARTCHAR  4ED1
ENCODING  20177
SWIDTH  1000 0
DWIDTH  14 0
BBX  13 14 1 -2
BITMAP
00000000001060000000000000
0000000060F0FFE04000000000
000040E0F08020A0FFA0200000
10A0FFA02000000040E0F08000
E0E0400000000000000060F0C0
80208000000000000000001060
0030FF0000000000104080A000
0030FF002060A0E0FFFFC08000
0030FF60FFF0C0804000000000
0030FF20300000000000000000
0030FF00000000000000000000
0030FF10101010101010100000
0030FFFFFFFFFFFFFFFFFFE000
00002020202020202020202000
ENDCHAR
STARTCHAR  4ED3
ENCODING  20179
SWIDTH  1000 0
DWIDTH  14 0
BBX  15 14 -1 -2
BITMAP
00000000000040C060000000000000
0000000030C0FFC0FFE04000000000
000010A0FFC0300030C0FFC0300000
0080F0E060000000000040E0FFA010
20F08000000000000000000060E060
001000FFFFFFFFFFFFFFFFFF300010
000000FF40303030303030FF300000
000000FF30000000000000FF300000
000000FF30203030303030FF300000
000000FF30FFFFFFFFFFFFFF300000
000000FF3000000000000000000000
000000FF4010101010101010101000
000000FFFFFFFFFFFFFFFFFFFFC000
000000101010101010101010101000
ENDCHAR
STARTCHAR  4ED4
ENCODING  20180
SWIDTH  1000 0
DWIDTH  14 0
BBX  14 14 0 -2
BITMAP
0000103010101010101010100000
0000A0E000FFFFFFFFFFFFFF6000
0020FF80002020202020A0E01000
0080F010000000000030F0300000
00E080000000000000E080000000
40FF20000000000010FF20000000
0030FF0030FFFFFFFFFFFFFFFFFF
0030FF000030303030FF40303030
0030FF000000000010FF20000000
0030FF000000000010FF20000000
0030FF000000000010FF20000000
0030FF000000000010FF20000000
0030FF000000C0FFFFFF20000000
0010400000002030303000000000
ENDCHAR
STARTCHAR  4ED5
ENCODING  20181
SWIDTH  1000 0
DWIDTH  14 0
BBX  14 14 0 -2
BITMAP
0000802000000000A01000000000
0030FF1000000000FF3000000000
0080C00000000000FF3000000000
00C0800030303030FF4030303010
10FF4000FFFFFFFFFFFFFFFFFF40
60F0000000000000FF3000000000
0030FF0000000000FF3000000000
0030FF0000000000FF3000000000
0030FF0000000000FF3000000000
0030FF0000000000FF3000000000
0030FF0000000000FF3000000000
0030FF0000101010101010101000
0030FF00E0FFFFFFFFFFFFFFFF20
0010400020202020202020202000
ENDCHAR
STARTCHAR  4ED6
ENCODING  20182
SWIDTH  1000 0
DWIDTH  14 0
BBX  14 14 0 -2
BITMAP
0000A0200000000020E000000000
0030FF1000E0200030FF00001000
0080C00000FF300030FF60C0FF00
00E0800000FF4060A0FFF0A0FF00
10FF401080FFFFF0C0FF1030FF00
60F00060E0FF400030FF0030FF00
0030FF1000FF300030FF0030FF00
0030FF0000FF300030FF0030FF00
0030FF0000FF300030FF0030FF00
0030FF0000FF300030FF0010A000
0030FF0000FF3000000000000000
0030FF0000FF3010101010101000
0030FF0000FFFFFFFFFFFFFFFF40
0010600000202020202020202000
ENDCHAR
STARTCHAR  4ED7
ENCODING  20183
SWIDTH  1000 0
DWIDTH  14 0
BBX  14 14 0 -2
BITMAP
0000402000000000000000601000
0010FF3000000000000000FF3000
0060E030FFFFFFFFFFFFFFFFFF60
00C0A00030403030303030FF4010
10FF400020FF1000000000FF3000
60F0100020FF1000000000FF3000
0030FF0020FF1000000000FF3000
0030FF0020FF2000000010FF3000
0030FF0010C0F0801060F0E01000
0030FF00000060F0F0FF80000000
0030FF00001080FFE0FFC0300000
0030FF0060E0E0400020C0FFA010
0030FF00F080100000000040E060
0010400020000000000000000020
ENDCHAR
STARTCHAR  4ED8
ENCODING  20184
SWIDTH  1000 0
DWIDTH  14 0
BBX  13 14 0 -2
BITMAP
00003040000000000000106000
0000C08000000000000030FF00
0030FF2020303030303040FF30
00A0C000C0FFFFFFFFFFFFFFFF
10F0600000101000000030FF00
80F0000000C0C000000030FF00
0000FF300060FF10000030FF00
0000FF300020FF60000030FF00
0000FF300000E0A0000030FF00
0000FF30000080E0000030FF00
0000FF30000040FF200030FF00
0000FF3000000040200030FF00
0000FF3000000000FFFFFFFF00
00004010000000003030303000
ENDCHAR
STARTCHAR  4ED9
ENCODING  20185
SWIDTH  1000 0
DWIDTH  14 0
BBX  14 14 0 -2
BITMAP
0000402000000000601000000000
0020FF3000200000FF3000002000
0060E00030FF0000FF300000FF30
00C0A00030FF0000FF300000FF30
10FF400030FF0000FF300000FF30
60F0100030FF0000FF300000FF30
0030FF0030FF0000FF300000FF30
0030FF0030FF0000FF300000FF30
0030FF0030FF0000FF300000FF30
0030FF0030FF0000FF300000FF30
0030FF0030FF0000FF300000FF30
0030FF0030FF101030101000FF30
0030FF0030FFFFFFFFFFFFC0FF30
0010400000202020202020203000
ENDCHAR
STARTCHAR  4EDD
ENCODING  20189
SWIDTH  1000 0
DWIDTH  14 0
BBX  14 14 0 -2
BITMAP
0000000000106020000000000000
0000000060E0FFFFA02000000000
000030C0F0801060E0F080100000
10A0FFA0200000000060E0F08010
60E040000000000000000060E060
2010101010101010101010101020
00FFFFFFFFFFFFFFFFFFFFFF6000
0010101010104020101010100000
000000000000FF30000000000000
000000000000FF30000000000000
000000000000FF30000000000000
0010101010104010101010101000
40FFFFFFFFFFFFFFFFFFFFFFFF40
0020202020202020202020202000
ENDCHAR
STARTCHAR  4EDE
ENCODING  20190
SWIDTH  1000 0
DWIDTH  14 0
BBX  14 14 0 -2
BITMAP
0000602000000000000000000000
0020FF3020FFFFFFFFFFFFFFFF20
0080E0000030303060303030FF20
00C0A00000000040FF100010FF20
10FF400010FF4080E0000010FF20
60F0100030FF10A0A0000010FF20
0030FF0060E000E080000010FF20
0030FF00A0C000FF40000010FF20
0030FF00E08030FF20000010FF20
0030FF00A04060F000000010FF20
0030FF00000080C000000010FF20
0030FF000000C0A000000010FF20
0030FF000000E0600060FFFFFF20
0010400000006010001030303000
ENDCHAR
STARTCHAR  4EDF
ENCODING  20191
SWIDTH  1000 0
DWIDTH  14 0
BBX  14 14 0 -2
BITMAP
0000303000000000000000102000
0000C06060A0C0C0E0E0FFFFF000
0030F01080A08080606040302000
0080C0000000000030FF00000000
00E060000000000030FF00000000
40F010000000000030FF00000000
0030FF001010101030FF10101000
0030FF00FFFFFFFFFFFFFFFFFF20
0030FF002020202040FF20202000
0030FF000000000030FF00000000
0030FF000000000030FF00000000
0030FF000000000030FF00000000
0030FF000000000030FF00000000
0010400000000000104000000000
ENDCHAR
STARTCHAR  4EE1
ENCODING  20193
SWIDTH  1000 0
DWIDTH  14 0
BBX  14 14 0 -2
BITMAP
0000203000400000000000000000
0000E0A010FF3020202020202010
0030FF3010FFFFFFFFFFFFFFFFA0
0080E00000101010101010101000
00F0600000303030303030302000
40F0100000FFFFFFFFFFFFFFF000
1040FF0000000000000060FF6000
0030FF00000000000080FF600000
0030FF000000000080F040000000
0030FF0000000080F04000000000
0030FF00000080F0400000000000
0030FF000080F030000000000000
0030FF0000FFFFFFFFFFFFFFFFA0
0010400000202020202020202010
ENDCHAR
STARTCHAR  4EE3
ENCODING  20195
SWIDTH  1000 0
DWIDTH  14 0
BBX  13 13 0 -1
BITMAP
00003060000000008040000000
0000C06000000000E0C00030FF
0030F0100000000080F01030FF
00A0A0000000000040FF4010A0
20FF40000000000000F0A00000
80E00000FFFFFFFFFFFFFFFFFF
2020F020203030303080FF4030
0000FF30000000000020FF6000
0000FF30000000000000E0A000
0000FF3000000000000080E000
0000FF3000000000000040FF30
0000FF3000000000000000F060
0000FF2000000000000000A0A0
ENDCHAR
STARTCHAR  4EE4
ENCODING  20196
SWIDTH  1000 0
DWIDTH  14 0
BBX  14 14 0 -2
BITMAP
0000000000208010000000000000
0000000030E0FFE0200000000000
00000060FFA020C0F04000000000
0000A0FF80000000A0FF80000000
20C0F0400000FF300060FFA01000
E0E020000000FF30000040F0E000
801000000000A02000000020E010
0020303030303030303030300000
00F0FFFFFFFFFFFFFFFFFFFF0000
00000000000000000020F0800000
000000000000000000C0E0000000
000000000000000060FF30000000
00000060FFFFFFFFFF8000000000
0000001030303030300000000000
ENDCHAR
STARTCHAR  4EE5
ENCODING  20197
SWIDTH  1000 0
DWIDTH  14 0
BBX  14 14 0 -2
BITMAP
0000000030100000006010000000
10FF1000E060000000FF30000000
10FF1000C0A0000000FF30000000
10FF1000A0C0000000FF30000000
10FF100060E0000000FF30000000
10FF100040FF000000FF30000000
10FF100020FF300010FF40000000
10FF100000FF600080FFA0000000
10FF100000C06010F0A0FF300000
10FF100000000080E000C0A00000
10FF1000000010F0600040FF3000
10FFFFFFFF6080E0000000C0A000
003030303030F06000000040FF20
0000000000204000000000004020
ENDCHAR
STARTCHAR  4EE8
ENCODING  20200
SWIDTH  1000 0
DWIDTH  14 0
BBX  14 14 0 -2
BITMAP
0000602000000000000000000000
0020FF20C0FFFFFFFFFFFFFFFF00
0080E00020303030303030303000
00C0A00000000000000000000000
10FF400000000000000000000000
60F0000000000000000000000000
0030FF00A0FFFFFFFFFFFFFFE000
0030FF0020303030303030302000
0030FF0000000000000000000000
0030FF0000000000000000000000
0030FF0000000000000000000000
0030FF0010101010101010101010
0030FF00FFFFFFFFFFFFFFFFFFA0
0010400010101010101010101010
ENDCHAR
STARTCHAR  4EEA
ENCODING  20202
SWIDTH  1000 0
DWIDTH  14 0
BBX  14 14 0 -2
BITMAP
0000000000000000000000000000
0000E06020FF1000FF300030FF00
0040FF1020FF1000FF300030FF00
00A0C00020FF1000FF300030FF00
00F0600020FF1000FF300030FF00
60F0100020FF1000E0200030FF00
0030FF0010F08000000010C0E000
0030FF000030F0800030E0C01000
0030FF00000040FFA0F0A0000000
0030FF0000000080FFC000000000
0030FF00000040F0C0FF80000000
0030FF000030F0A00040F0A00000
0030FF0020E0C000000020E0C010
0010400020401000000000104020
ENDCHAR
STARTCHAR  4EEB
ENCODING  20203
SWIDTH  1000 0
DWIDTH  14 0
BBX  14 13 0 -2
BITMAP
000080F010000060F01000000000
0000F080000010E0800000000000
0060F010000080F0101030000000
00E0A0000010F08000A0E0000000
40FF200000A0E01030FF40000000
0030FF0020FF6000C0A000000000
0030FF00A0E00060FF2030E01000
0030FF00000000E0800000F06000
0030FF00000080F0100000A0C000
0030FF000010F06000000060FF10
0030FF0000A0E01010101020FF60
0030FF0000FFFFFFFFFFFFFFFFA0
0010400000202020202020202010
ENDCHAR
STARTCHAR  4EEC
ENCODING  20204
SWIDTH  1000 0
DWIDTH  14 0
BBX  14 14 0 -2
BITMAP
0000302000102000001010101000
0020FF400030FF20E0FFFFFFFF20
0060F0000000C0A020202020FF20
00C0A00030FF308000000000FF20
10FF600030FF000000000000FF20
60F0100030FF000000000000FF20
0030FF0030FF000000000000FF20
0030FF0030FF000000000000FF20
0030FF0030FF000000000000FF20
0030FF0030FF000000000000FF20
0030FF0030FF000000000000FF20
0030FF0030FF000000000000FF20
0030FF0030FF00000030FFFFFF20
0010400000300000001030303000
ENDCHAR
STARTCHAR  4EF0
ENCODING  20208
SWIDTH  1000 0
DWIDTH  14 0
BBX  14 14 0 -2
BITMAP
0000301000000000000000000000
0020FF20FFFFFF6030FFFFFFFF30
0060E000FF40301030FF3030FF30
00C08000FF30000030FF0000FF30
10FF4000FF30000030FF0000FF30
60F00000FF30000030FF0000FF30
0030FF00FF30000030FF0000FF30
0030FF00FF30000030FF0000FF30
0030FF00FF30000030FF0000FF30
0030FF00FF30000030FF0000FF30
0030FF00FF40301030FF1030FF30
0030FF00FFFFFF6030FF60FFFF30
0030FF000000000030FF00000000
0010400000000000106000000000
ENDCHAR
STARTCHAR  4EF2
ENCODING  20210
SWIDTH  1000 0
DWIDTH  14 0
BBX  14 14 0 -2
BITMAP
0000000000000000300000000000
0000C0A000000000FF3000000000
0020FF3000303030FF4030303000
0080E00030FFFFFFFFFFFFFFFF30
00E0600030FF0000FF300000FF30
40FF100030FF0000FF300000FF30
0030FF0030FF0000FF300000FF30
0030FF0030FF0000FF300000FF30
0030FF0030FF0000FF300000FF30
0030FF0030FF3030FF403010FF30
0030FF0030FFFFFFFFFFFFC0FF30
0030FF0000000000FF3000000000
0030FF0000000000FF3000000000
0010400000000000C02000000000
ENDCHAR
STARTCHAR  4EF3
ENCODING  20211
SWIDTH  1000 0
DWIDTH  14 0
BBX  13 14 0 -2
BITMAP
00006020601000000060100000
0020FF10FF30000010FF200000
0080E000FF30000010FF200000
00C08000FF30000010FF200000
10FF4000FF30FFFF30FFF0FFFF
60F00000FF30303010FF403030
0030FF00FF30000010FF200000
0030FF00FF30000010FF200000
0030FF00FF30000010FF200000
0030FF00FF30000010FF200000
0030FF00FF30000010FF200000
0030FF00FF30000010FF200000
0030FF00FFFFFFFF30FFFFFFFF
00104000202020200020202020
ENDCHAR
STARTCHAR  4EF5
ENCODING  20213
SWIDTH  1000 0
DWIDTH  14 0
BBX  14 14 0 -2
BITMAP
0000401010600000000000000000
0020FF2030FF0000000000000000
0060E00030FFFFFFFFFFFFFFFF30
00C0800000303030303030303000
10FF400000000000FF3000000000
60F0000000000000FF3000000000
0030FF0000000000FF3000000000
0030FF0030303030FF4030303010
0030FF00FFFFFFFFFFFFFFFFFF60
0030FF0000000000FF3000000000
0030FF0000000000FF3000000000
0030FF0000000000FF3000000000
0030FF0000000000FF3000000000
0010400000000000601000000000
ENDCHAR
STARTCHAR  4EF6
ENCODING  20214
SWIDTH  1000 0
DWIDTH  14 0
BBX  13 14 0 -2
BITMAP
00000000004000000000000000
0000A06020FF100030FF000000
0010FF2020FF100030FF000000
0080C00020FFFFFFFFFFFFFFE0
00E060000030303040FF303020
40FF10000000000030FF000000
0010FF200000000030FF000000
0010FF200000000030FF000000
0010FF20FFFFFFFFFFFFFFFFFF
0010FF203030303040FF303030
0010FF200000000030FF000000
0010FF200000000030FF000000
0010FF200000000030FF000000
000040100000000020C0000000
ENDCHAR
STARTCHAR  4EF7
ENCODING  20215
SWIDTH  1000 0
DWIDTH  14 0
BBX  14 14 0 -2
BITMAP
0000104000000010400000000000
000080C0000000C0FF8000000000
0010F060000080F080FF40000000
0060E0000040FF400080F0200000
00E0800020F060000000C0E01000
40FF1000E0A00000000010E0A000
1040FF1030000000000000203000
0030FF0000E060000000FF300000
0030FF0000E040000000FF300000
0030FF0000F030000000FF300000
0030FF0000FF30000000FF300000
0030FF0010FF20000000FF300000
0030FF0020FF10000000FF300000
0010400010800000000080100000
ENDCHAR
STARTCHAR  4EFB
ENCODING  20219
SWIDTH  1000 0
DWIDTH  14 0
BBX  14 14 0 -2
BITMAP
0000602000000000001020303000
0020FF10A0E0E0F0FFFFFFFFE000
0080E00060604040402010000000
00C0800000000000FF3000000000
10FF400000000000FF3000000000
60F0000000000000FF3000000000
0030FF0030303030FF4030303000
0030FF00FFFFFFFFFFFFFFFFFF20
0030FF0000000000FF3000000000
0030FF0000000000FF3000000000
0030FF0000000000FF3000000000
0030FF0010101010301010101000
0030FF00F0FFFFFFFFFFFFFFFF10
0010400020202020202020202000
ENDCHAR
STARTCHAR  4EFD
ENCODING  20221
SWIDTH  1000 0
DWIDTH  14 0
BBX  15 14 0 -2
BITMAP
000020200000103000002020000000
0000F0600000A0E0000080E0000000
0040FF200020FF60000020FF400000
0080E0000080F010000000C0A00000
00E0A00010F0800000000060F01000
10FF400080FF402020202030F06000
60FF1010F0C0C0FFFFFFFFFFA0E000
0020FF1000003060000030FF000000
0020FF100000A0A0000030FF000000
0020FF100000F060000030FF000000
0020FF100030FF30000030FF000000
0020FF100080F000000030FF000000
0020FF1000C0A00000E0FFFF000000
000060000060300000404040000000
ENDCHAR
STARTCHAR  4EFF
ENCODING  20223
SWIDTH  1000 0
DWIDTH  14 0
BBX  13 14 0 -2
BITMAP
00004040000000008010000000
0000E06000000000FF30000000
0040F010FFFFFFFFFFFFFFFFFF
00A0A0002080F0303030303030
00F060000080E0000000000000
60FF100000A0C0101010101010
0020FF1000C0FFFFFFFFFFFFFF
0020FF1000E0801010101040FF
0020FF1000FF400000000030FF
0020FF1020FF300000000030FF
0020FF1040FF100000000030FF
0020FF1060E0000000000030FF
0020FF1080C000000010FFFFFF
00004000304000000000303030
ENDCHAR
STARTCHAR  4F01
ENCODING  20225
SWIDTH  1000 0
DWIDTH  14 0
BBX  14 14 0 -2
BITMAP
0000000000003080100000000000
0000000010A0FFF0E04000000000
00000060E0E0401080FFA0200000
0020C0F0800000000030C0F08000
20FFC020000000F020000060F0A0
20600060100000FF300000001060
000000FF300000FF301010100000
000000FF300000FFFFFFFFFFA000
000000FF300000FF402020201000
000000FF300000FF300000000000
000000FF300000FF300000000000
001010FF301010FF301010101010
00FFFFFFFFFFFFFFFFFFFFFFFF80
0020202020202020202020202010
ENDCHAR
STARTCHAR  4F09
ENCODING  20233
SWIDTH  1000 0
DWIDTH  14 0
BBX  14 14 0 -2
BITMAP
0000202000000000401000000000
0000E04010101010FF3010101000
0040F010C0FFFFFFFFFFFFFFFF00
00A0A00010202020202020202000
00E0600000003030303030300000
40FF10000030FFFFFFFFFFFF0000
1060FF000030FF00000030FF0000
0030FF000030FF00000030FF0000
0030FF000030FF00000030FF0000
0030FF000030FF00000030FF0000
0030FF000030FF00000030FF0000
0030FF000030FF00000030FF0000
0030FF00E0FFFF00000030FFFF30
0010400020303000000000303010
ENDCHAR
STARTCHAR  4F0A
ENCODING  20234
SWIDTH  1000 0
DWIDTH  14 0
BBX  14 14 0 -2
BITMAP
0000602000000000000000000000
0020FF3060FFFFFFFFFFFFFF3000
0060E00010303030303030FF3000
00C0A000000000A0A00000FF3000
10FF4000303030E0A03030FF4020
40F01000FFFFFFFFFFFFFFFFFFA0
1040FF00000010FF300000FF3000
0030FF00000030FF100000FF3000
0030FF00103060F0303030FF3000
0030FF0060FFFFFFFFFFFFFF3000
0030FF000000A0A0000000000000
0030FF000000E080000000000000
0030FF000000F040000000000000
0010400000004010000000000000
ENDCHAR
STARTCHAR  4F0D
ENCODING  20237
SWIDTH  1000 0
DWIDTH  14 0
BBX  14 14 0 -2
BITMAP
0000301000000000000000000000
0020FF20E0FFFFFFFFFFFFFFFF00
0060E00020203020202020202000
00C0A0000020FF20000000000000
10FF40000040FF10000000000000
60F000002060F030303030300000
0030FF00C0FFFFFFFFFFFFFF3000
0030FF000080C000000000FF3000
0030FF0000A0A000000000FF3000
0030FF0000C0A000000000FF3000
0030FF0000E08000000000FF3000
0030FF0010E06010101000FF3000
0030FF00FFFFFFFFFFFFE0FFFF30
0010400020202020202020202000
ENDCHAR
STARTCHAR  4F0E
ENCODING  20238
SWIDTH  1000 0
DWIDTH  14 0
BBX  14 14 0 -2
BITMAP
0000401000000000601000000000
0030FF2000000000FF3000000000
0080E000FFFFFFFFFFFFFFFFFF40
00E0800030303030FF4030303010
20FF400000000000A02000000000
60FF100060FFFFFFFFFFFFFFFF00
0020FF102030303030303040FF00
0020FF1060C0300000001080FF00
0020FF1020C0FF801060E0F06000
0020FF10000060F0FFFF80100000
0020FF100010A0FFE0FFE0400000
0020FF1060F0E0400030C0FFA010
0020FF10E080100000000040E040
0000400020000000000000000010
ENDCHAR
STARTCHAR  4F0F
ENCODING  20239
SWIDTH  1000 0
DWIDTH  14 0
BBX  14 14 0 -2
BITMAP
0000403000000000601000000000
0010FF4000000000FF3000FF3000
0060F01000000000FF3000E02000
00A0C00030303030FF4030303010
00F06000FFFFFFFFFFFFFFFFFF60
40FF200000000000FF3000000000
0000FF3000000030FF6000000000
0000FF30000000C0E0E010000000
0000FF30000060F020E0A0000000
0000FF300010E0800040FF300000
0000FF300080E0100000A0E00000
0000FF3020FF6000000020F06000
0000FF30C0C0000000000060F010
0000401040200000000000004020
ENDCHAR
STARTCHAR  4F10
ENCODING  20240
SWIDTH  1000 0
DWIDTH  14 0
BBX  13 14 0 -2
BITMAP
00001060100000602000000000
000080E0000000E0800000FF30
0010F06000000080E00000FF30
0080E00000000020FF20003000
10F0600000002040F0C0C0E0F0
80F01000A0FFFFF0E0F0806040
0000FF303030100030FF200000
0000FF300000000000E0600020
0000FF30000000000080E0A0FF
0000FF300000000060E0FFC060
0000FF30001080E0F0A0E06000
0000FF3020F0F080100080C000
0000FF3020600000000040FF10
00004010000000000000004010
ENDCHAR
STARTCHAR  4F11
ENCODING  20241
SWIDTH  1000 0
DWIDTH  14 0
BBX  14 13 0 -2
BITMAP
0010F03000000000FF3000000000
0060E00000000000FF3000000000
00A0A000FFFFFFFFFFFFFFFFFF40
10F0400030303030FF4030303010
60F0100000A08000FF3060E00000
0030FF0000E06000FF3030FF2000
0030FF0010FF3000FF3000F04000
0030FF0040FF1000FF3000E08000
0030FF0060E00000FF3000A0A000
0030FF00A0A00000FF300060E000
0030FF00C0800000FF300040FF10
0030FF00F0400000FF300010FF40
00104010A0100000C02000008030
ENDCHAR
STARTCHAR  4F17
ENCODING  20247
SWIDTH  1000 0
DWIDTH  14 0
BBX  14 14 0 -2
BITMAP
0000000000004040000000000000
0000000030C0FFFFC04000000000
000020A0FFA02020A0FFC0300000
10A0FFC0300000000030C0FFA020
80E040200000000000002040E080
200000FF300000000030FF000020
000000FF300000000030FF000000
000020FF400000000040FF200000
000080FFC000000000C0FF800000
0010F080FF30000030FF80F01000
0060F000C0A00000A0C000F06000
00E0800060FF2020FF600080E000
30FF200000E08080E0000020FF40
2040000000304040300000004020
ENDCHAR
STARTCHAR  4F18
ENCODING  20248
SWIDTH  1000 0
DWIDTH  14 0
BBX  14 14 0 -2
BITMAP
0000101000000020000000100000
0000E0C0000030FF300010FF2000
0040FF60000040FF000010FF2000
00A0E000303080E0303030303020
00F08000FFFFFFFFFFFFFFFFFFE0
60FF10000000C080106000000000
0030FF000000F06030FF00000000
0030FF000020FF3030FF00000000
0030FF000040FF1030FF00000000
0030FF000060E00030FF00000000
0030FF0000A0C00030FF00000000
0030FF0000C0A00030FF00000000
0030FF0000F0600030FFFFFFFFE0
0010400000401000003030303020
ENDCHAR
STARTCHAR  4F19
ENCODING  20249
SWIDTH  1000 0
DWIDTH  14 0
BBX  14 14 0 -2
BITMAP
0000602000000000801000000000
0020FF4080C00000FF3000A0A000
0060F00080E00000FF3000A0A000
00C0A00060E00000FF3000C08000
10F0600040F00000FF3000E08000
60FF100030FF1000FF3000E06000
0020FF1020FF2000FF3000F04000
0020FF1010E03010FF3000C03000
0020FF10000000A0FFC000000000
0020FF10000060F040E080000000
0020FF100030F0600040FF400000
0020FF1010E0A000000080F02000
0020FF10A0E01000000000C0E000
0000401030200000000000104010
ENDCHAR
STARTCHAR  4F1A
ENCODING  20250
SWIDTH  1000 0
DWIDTH  14 0
BBX  13 14 1 -2
BITMAP
00000000004080100000000000
00000020A0FFE0F08000000000
000080F0E0300080F0E0400000
40E0F0600000000010A0FFC030
F0A0100000000000000030C0C0
3000FFFFFFFFFFFFFFFF800030
00003030303030303030100000
20202020202020202020202010
FFFFFFFFFFFFFFFFFFFFFFFFE0
10104040101010101010101010
0010F0600000000000C0800000
0060F010101010101060FF2000
00E0FFFFFFFFFFFFFFFFFFA000
00202020202020202020202000
ENDCHAR
STARTCHAR  4F1B
ENCODING  20251
SWIDTH  1000 0
DWIDTH  14 0
BBX  14 14 0 -2
BITMAP
0000301000000000000000000000
0020FF20FFFFFFFFFFFFFFFFFF30
0060E000FF404030303030404000
00C08000FF30C0C0000010E0A000
10FF4000FF3020F08000A0E01000
60F00000FF300060FF80FF400000
0030FF00FF300000A0FF80000000
0030FF00FF300000A0FF80000000
0030FF00FF300060FF80FF400000
0030FF00FF3010F08000A0E01000
0030FF00FF30A0E0000010E08000
0030FF00FF406030101010306000
0030FF00FFFFFFFFFFFFFFFFFF30
0010400020202020202020202000
ENDCHAR
STARTCHAR  4F1E
ENCODING  20254
SWIDTH  1000 0
DWIDTH  14 0
BBX  14 14 0 -2
BITMAP
0000000000000030000000000000
000000000040E0FFC03000000000
00000030C0FFA040C0FFA0200000
0020A0FFA02000000040E0F08010
10FFC030000030FF00000060E0C0
104080E0000030FF000010FF4040
000040FF100030FF000040FF1000
000010FF400030FF000080C00000
000000C0A00030FF0000C0800000
00000040600030FF000080300000
00FFFFFFFFFFFFFFFFFFFFFFFFA0
00202020202040FF202020202010
00000000000030FF000000000000
00000000000020FF000000000000
ENDCHAR
STARTCHAR  4F1F
ENCODING  20255
SWIDTH  1000 0
DWIDTH  14 0
BBX  14 13 0 -2
BITMAP
0010E040202020FF402020202000
0060F000FFFFFFFFFFFFFFFFFF30
00A0A000101010FF301010101000
00F06000103030FF403030303000
40F01000A0FFFFFFFFFFFFFFFF00
1040FF00000000FF300000000000
0030FF00203030FF403030303000
0030FF00E0FFFFFFFFFFFFFFFF00
0030FF00000000FF30000030FF00
0030FF00000000FF30000030FF00
0030FF00000000FF3000E0FFFF00
0030FF00000000FF300020303000
00104000000000C0200000000000
ENDCHAR
STARTCHAR  4F20
ENCODING  20256
SWIDTH  1000 0
DWIDTH  14 0
BBX  14 14 0 -2
BITMAP
0000304000000060300000000000
0000C060000010FF400000000000
0020FF2010FFFFFFFFFFFFFFFF20
0080E000003080E0303030303000
00E080000000A0C0000000000000
30FF2000FFFFFFFFFFFFFFFFFF10
0000FF303030FF60303030303000
0000FF300030FF20000000000000
0000FF300060FFFFFFFFFFFFA000
0000FF3000103030303030FF6000
0000FF3000000000000030FF2000
0000FF3000000000000060F00000
0000FF300040FFFFFFFFFFC00000
0000401000102020202020100000
ENDCHAR
STARTCHAR  4F22
ENCODING  20258
SWIDTH  1000 0
DWIDTH  14 0
BBX  13 14 0 -2
BITMAP
00003020102020202020202010
0000E040F0FFFFFFFFFFFFFFFF
0040F00030C04030303030FF40
00A0A00000FF3000000000FF30
00F0600000FF3000000000FF30
60F0100000FF3000000000FF30
0030FF0000FFFFFFFFFFC0FFFF
0030FF0000306040303020FF40
0030FF000020FF40000000FF30
0030FF000080F000000000FF30
0030FF0000E0A000000000FF30
0030FF0030FF6000000000FF30
0030FF0080FF100000FFFFFF30
00104000202000000020303000
ENDCHAR
STARTCHAR  4F24
ENCODING  20260
SWIDTH  1000 0
DWIDTH  14 0
BBX  14 14 0 -2
BITMAP
0000608000A02000000000000000
0000E08000FF3000000000000000
0030FF3000FFFFFFFFFFFFFFFF20
00A0E00000303030303030303000
00F0600000001030000000000000
40FF1000003080FF403030303000
0030FF0010FFFFFFFFFFFFFFFF00
0030FF000000E0C000000020FF00
0030FF000000F08000000020FF00
0030FF000010FF6000000020FF00
0030FF000040FF2000000020FF00
0030FF000060F00000000020FF00
0030FF000080C0000080FFFFFF00
0010400000303000001020202000
ENDCHAR
STARTCHAR  4F25
ENCODING  20261
SWIDTH  1000 0
DWIDTH  14 0
BBX  14 14 0 -2
BITMAP
0000206000106000000000406000
0000A0C00030FF00000000E06000
0010FF600030FF00000060E00000
0080F0100030FF000000E0800000
00E0A0000030FF000060F0100000
40FF30000030FF00004040000000
0000FF30FFFFFFFFFFFFFFFFFF60
0000FF303040FF30303030303010
0000FF300030FF000080E0000000
0000FF300030FF000010F0600000
0000FF300030FF00000060E01000
0000FF300030FF00000000E08000
0000FF300030FFFFFF600040F020
0000401000003030301000002010
ENDCHAR
STARTCHAR  4F26
ENCODING  20262
SWIDTH  1000 0
DWIDTH  14 0
BBX  14 14 0 -2
BITMAP
0000106000000000400000000000
000080C0000000A0FFE020000000
0010F0600020E0E040C0F0600000
0060E00060F0C010000080FF8000
00E08000FF80000000000040F040
40FF200040401000000000002030
0030FF0000FF3000000000003000
0030FF0000FF30003080A0F0FF00
0030FF0000FF60F0FFE0A0602000
0030FF0000FF4060200000000000
0030FF0000FF3000000000000000
0030FF0000FF3010101010101000
0030FF0000FFFFFFFFFFFFFFFF20
0010600000202020202020202000
ENDCHAR
STARTCHAR  4F27
ENCODING  20263
SWIDTH  1000 0
DWIDTH  14 0
BBX  14 14 0 -2
BITMAP
0000204000000000301000000000
0000C08000000060FFC010000000
0020FF300000A0FF80C0E0200000
00A0C00010C0E0400010A0E03000
10F06000E0C02000000000A0F010
60F01000A0000000000000008020
0000FF3000FFFFFFFFFFFFFF3000
0000FF3000FF4030303030FF3000
0000FF3000FF3000000000FF3000
0000FF3000FF3060FFFFFFFF3000
0000FF3000FF3010202020200000
0000FF3000FF3000000000000000
0000FF3000FFFFFFFFFFFFFFA000
0000601000202020202020201000
ENDCHAR
STARTCHAR  4F2A
ENCODING  20266
SWIDTH  1000 0
DWIDTH  14 0
BBX  14 14 0 -2
BITMAP
0000402020300000402000000000
0020FF3040FF2020FF3000000000
0060E00000E08060F00000000000
00C0A000204040A0C02020202000
10FF4000FFFFFFFFFFFFFFFFFF20
60F01000101030FF30101010FF20
0030FF00000060E040600000FF20
0030FF000000A0A040FF1000FF20
0030FF000000F06000F06000FF20
0030FF000030FF2000A0C000FF20
0030FF000080E0000040C000FF20
0030FF0000C0A00000000000FF20
0030FF0000F0600030FFFFFFFF20
0010400010601000002020202000
ENDCHAR
STARTCHAR  4F2B
ENCODING  20267
SWIDTH  1000 0
DWIDTH  14 0
BBX  14 14 0 -2
BITMAP
0000102000000000300000000000
0000C06000000000FF3000000000
0020FF1000303030303030303000
0080C00030FFFFFFFFFFFFFFFF20
00E0600030FF000000000010FF20
40F0100030FF000000000010FF20
0030FF0030FF000000000010FF20
0030FF0000100000000000001000
0030FF0000000000000000000000
0030FF0000000000000000000000
0030FF0000000000000000000000
0030FF0010101010101010101000
0030FF00FFFFFFFFFFFFFFFFFF30
0010400020202020202020202000
ENDCHAR
STARTCHAR  4F2F
ENCODING  20271
SWIDTH  1000 0
DWIDTH  14 0
BBX  14 14 0 -2
BITMAP
0000403000000000401000000000
0010F06000000010FF4000000000
0040FF2030FFFFFFFFFFFFFFFF00
00A0E00030FF303030303040FF00
00F0800030FF000000000020FF00
40FF300030FF000000000020FF00
0030FF0030FF000000000020FF00
0030FF0030FFC0FFFFFFFF20FF00
0030FF0030FF203030303020FF00
0030FF0030FF000000000020FF00
0030FF0030FF000000000020FF00
0030FF0030FF000000000020FF00
0030FF0030FFFFFFFFFFFF80FF00
0010400000303030303030203000
ENDCHAR
STARTCHAR  4F30
ENCODING  20272
SWIDTH  1000 0
DWIDTH  14 0
BBX  14 13 0 -2
BITMAP
0000E06000000000FF3000000000
0040FF2020202020FF4020202010
00A0C000FFFFFFFFFFFFFFFFFF60
00F0600010101010FF3010101000
40FF200000000000FF3000000000
0000FF3000000000F02000000000
0000FF3000FFFFFFFFFFFFFFFF00
0000FF3000FF403030303040FF00
0000FF3000FF300000000030FF00
0000FF3000FF300000000030FF00
0000FF3000FF300000000030FF00
0000FF3000FFFFFFFFFFFF80FF00
0000401000202020202020202000
ENDCHAR
STARTCHAR  4F32
ENCODING  20274
SWIDTH  1000 0
DWIDTH  14 0
BBX  14 14 0 -2
BITMAP
0000401010101010101010101000
0020FF10FFFFFFFFFFFFFFFFFF20
0060E000FF60303030303030FF20
00C08000FF30000000000000FF20
10FF4000FF40303030302000FF20
60F00000FFFFFFFFFFFFFFA0FF20
0030FF00FF300080100000000000
0030FF00FF3000FF300000308030
0030FF00FF3000FF60A0E0FFE030
0030FF00FF3000FFA0C060200000
0030FF00FF3000FF300000000000
0030FF00FF3000FF300000000000
0030FF00FF3000FFFFFFFFFFFF60
0010400040100020202020202010
ENDCHAR
STARTCHAR  4F34
ENCODING  20276
SWIDTH  1000 0
DWIDTH  14 0
BBX  14 14 0 -2
BITMAP
0000000000000000000000000000
0010F040A0C00000FF3000A0C000
0060F00060F01000FF3000E08000
00C0A00020FF4000FF3030FF3000
10FF400000E08000FF3060E00000
60F0000000000000FF3000000000
0000FF30C0FFFFFFFFFFFFFFF000
0000FF3020303030FF4030302000
0000FF3000000000FF3000000000
0000FF30FFFFFFFFFFFFFFFFFF30
0000FF3030303030FF4030303000
0000FF3000000000FF3000000000
0000FF3000000000FF3000000000
0000300000000000E02000000000
ENDCHAR
STARTCHAR  4F36
ENCODING  20278
SWIDTH  1000 0
DWIDTH  14 0
BBX  14 14 0 -2
BITMAP
0000000000000000100000000000
0000C0A000000060FFA000000000
0020FF40000040FFA0FF60000000
0080E0000020E0A00080FF300000
00E0800000C0E0106010C0E01000
40FF1000A0F03000FF3020F0A000
0030FF30C0600000FF300040C040
0030FF0010303030303030302000
0030FF0040FFFFFFFFFFFFFF8000
0030FF0000000000000040FF2000
0030FF00000000000000A0C00000
0030FF00000000000000F0800000
0030FF000000C0FFFFFFFF200000
0000300000002030303020000000
ENDCHAR
STARTCHAR  4F38
ENCODING  20280
SWIDTH  1000 0
DWIDTH  14 0
BBX  14 13 0 -2
BITMAP
0010F04000000000FF3000000000
0060F01030FFFFFFFFFFFFFFFF30
00A0A00030FF3030FF403030FF30
10F0600030FF0000FF300000FF30
60F0100030FF0000FF300000FF30
0030FF0030FFFFFFFFFFFF30FF30
0030FF0030FF3030FF403000FF30
0030FF0030FF0000FF300000FF30
0030FF0030FF0000FF300000FF30
0030FF0030FFFFFFFFFFFF80FF30
0030FF0000303030FF4030203000
0030FF0000000000FF3000000000
0010400000000000C02000000000
ENDCHAR
STARTCHAR  4F3A
ENCODING  20282
SWIDTH  1000 0
DWIDTH  14 0
BBX  14 14 0 -2
BITMAP
0000301000101010101010101000
0020FF3040FFFFFFFFFFFFFFFF30
0060E0000020202020202020FF30
00C0A0003030303030302000FF30
10FF4000FFFFFFFFFFFFE000FF30
60F010000000000000000000FF30
0030FF0030FFFFFFFFFF3000FF30
0030FF0030FF303030FF3000FF30
0030FF0030FF000000FF3000FF30
0030FF0030FF202020FF3000FF30
0030FF0030FFFFFFFFFF3000FF30
0030FF000010101010100000FF30
0030FF000000000030FFFFFFFF30
0010400000000000003030303000
ENDCHAR
STARTCHAR  4F3C
ENCODING  20284
SWIDTH  1000 0
DWIDTH  14 0
BBX  14 14 0 -2
BITMAP
0000602030000000000060100000
0020FF20FF3000C02000FF300000
0080E000FF3000FF3000FF300000
00C08000FF3000FF3000FF300000
10FF4000FF3000FF3000FF300000
60F00000FF3000FF3000FF300000
0030FF00FF3000FF3000FF300000
0030FF00FF3000FF3020FF400000
0030FF00FF3000FF3080FFA00000
0030FF00FF3000FF30E0E0F01000
0030FF00FF30000040FF20F06000
0030FF00FF402000A0C000A0C000
0030FF00FFFFE010FF600040FF20
0010400000000020600000004020
ENDCHAR
STARTCHAR  4F3D
ENCODING  20285
SWIDTH  1000 0
DWIDTH  14 0
BBX  14 14 0 -2
BITMAP
0000301010400000000000000000
0040FF1040FF1010000010101000
0080E080FFFFFFFF3030FFFFFF30
00C0801080E020FF3030FF20FF30
10FF400080C000FF3030FF00FF30
60FF1000A0A000FF3030FF00FF30
0030FF00C08000FF3030FF00FF30
0030FF00E08000FF3030FF00FF30
0030FF00E06000FF3030FF00FF30
0030FF00F04000FF3030FF00FF30
0030FF10FF3000FF3030FF00FF30
0030FF20FF2000FF3030FF20FF30
0030FF30FF10E0FF3030FFF0FF30
0010401040002030000000000000
ENDCHAR
STARTCHAR  4F43
ENCODING  20291
SWIDTH  1000 0
DWIDTH  14 0
BBX  13 14 0 -2
BITMAP
00006030000000000000000000
0030FF4030FFFFFFFFFFFFFFFF
0080F00030FF303040303040FF
00E0A00030FF0020FF300030FF
20FF600030FF0020FF300030FF
60F0100030FF0020FF300030FF
0030FF0030FF2040FF403030FF
0030FF0030FFF0FFFFFFFF30FF
0030FF0030FF0020FF300030FF
0030FF0030FF0020FF300030FF
0030FF0030FF0020FF300030FF
0030FF0030FF203060302030FF
0030FF0030FFFFFFFFFFFFA0FF
00104000000000000000000000
ENDCHAR
STARTCHAR  4F46
ENCODING  20294
SWIDTH  1000 0
DWIDTH  14 0
BBX  14 14 0 -2
BITMAP
0000401000202020202020202000
0010FF3010FFFFFFFFFFFFFFFF00
0060E00010FF403030303040FF00
00C0A00010FF200000000030FF00
10FF600010FF201010101030FF00
60FF100010FF60FFFFFFFF40FF00
1030FF1010FF203030303030FF00
0020FF1010FF200000000030FF00
0020FF1010FF200000000030FF00
0020FF1010FFFFFFFFFFFFA0FF00
0020FF1000202020202020202000
0020FF1000000000000000000000
0020FF10FFFFFFFFFFFFFFFFFF30
0010400020202020202020202000
ENDCHAR
STARTCHAR  4F4D
ENCODING  20301
SWIDTH  1000 0
DWIDTH  14 0
BBX  14 14 0 -2
BITMAP
0000404000000000108000000000
0000E0600000000030FF00000000
0040F010FFFFFFFFFFFFFFFFFF00
00A0A00020303030303030303000
00F0600040FF400000000080A000
60F0100020FF6000000000A08000
0030FF0000F0A000000000C06000
0030FF0000E0C000000000E04000
0030FF0000A0E000000000F02000
0030FF000080FF10000010FF0000
0030FF000060FF30000020F00000
0030FF0010101010101010101000
0030FF20FFFFFFFFFFFFFFFFFF30
0010400020202020202020202000
ENDCHAR
STARTCHAR  4F4E
ENCODING  20302
SWIDTH  1000 0
DWIDTH  14 0
BBX  14 14 0 -2
BITMAP
0000301000000000000000000000
0020FF3030FFFFFFFFFFFFFFFF30
0060F00030FF3030303060403010
00C0A00030FF00000000C0800000
10F0600030FF0000000080C00000
40FF200030FF0000000060E00000
0010FF2030FFFFFFFFFFFFFFFF80
0010FF2030FF3030303030FF6010
0010FF2030FF0000000000E06000
0010FF2030FF000080C000C0A000
0010FF2030FF000060E00080C000
0010FF2030FF000030FF1060E000
0010FF2030FFFFC010FF4030FF10
0000400010404030000000106010
ENDCHAR
STARTCHAR  4F4F
ENCODING  20303
SWIDTH  1000 0
DWIDTH  14 0
BBX  14 14 0 -2
BITMAP
0000A02000000000A02000000000
0030FF1000000000FF3000000000
0080C000F0FFFFFFFFFFFFFFFF00
00C0800020303030303030302000
10FF400000000000FF3000000000
60F0000000000000FF3000000000
0030FF0000000000FF3000000000
0030FF00C0FFFFFFFFFFFFFFE000
0030FF0020303030FF4030302000
0030FF0000000000FF3000000000
0030FF0000000000FF3000000000
0030FF0010101010401010101000
0030FF00FFFFFFFFFFFFFFFFFF10
0010400020202020202020202000
ENDCHAR
STARTCHAR  4F50
ENCODING  20304
SWIDTH  1000 0
DWIDTH  14 0
BBX  14 13 0 -2
BITMAP
0000E0600040FF80000000000000
0040FF203080FF60303030303010
00A0C000FFFFFFFFFFFFFFFFFF60
00F0600000C0E000000000000000
60F0100000E0A000000000000000
0030FF0010FF6030303030303010
0030FF0040FF30FFFFFFFFFFFF30
0030FF0060F000000020C0000000
0030FF0080C000000030FF000000
0030FF00C08000000030FF000000
0030FF00E04000101030FF101000
0030FF10FF10F0FFFFFFFFFFFF00
0010401040002020202020202000
ENDCHAR
STARTCHAR  4F51
ENCODING  20305
SWIDTH  1000 0
DWIDTH  14 0
BBX  14 13 0 -2
BITMAP
0010E030000060C0000000000000
0060F0003030C0A0303030303010
00A0A000FFFFFFFFFFFFFFFFFF60
10F060000060E000000000000000
60F0100000A08000000000000000
0030FF0000F0FFFFFFFFFFFFFF00
0030FF0040E0FF4030303040FF00
0030FF00A0A0FF3000000030FF00
0030FF00E060FF3000000030FF00
0030FF004010FF3000000030FF00
0030FF000000FF3000000030FF00
0030FF000000FFFFFFFFFF80FF00
0010400000002020202020202000
ENDCHAR
STARTCHAR  4F53
ENCODING  20307
SWIDTH  1000 0
DWIDTH  14 0
BBX  14 13 0 -2
BITMAP
0010E04000000000FF3000000000
0060F01030303030FF4030303010
00A0A030FFFFFFFFFFFFFFFFFF40
10F0600000403000FF3020400000
60F0100000E06000FF3030FF1000
0030FF0000FF4000FF3000FF4000
0030FF0030FF1000FF3000E06000
0030FF0060F00000FF3000A0A000
0030FF0080C00000FF300080C000
0030FF00A0A03030FF403060F000
0030FF00E080FFFFFFFFFF60FF20
0030FF00FF400000FF300000F040
00104010A0100000C02000008040
ENDCHAR
STARTCHAR  4F55
ENCODING  20309
SWIDTH  1000 0
DWIDTH  14 0
BBX  14 14 0 -2
BITMAP
0000402000101010101010101010
0010FF6000FFFFFFFFFFFFFFFFFF
0060F01000404040404040408030
00C0A0000030303030300030FF00
10FF600000FFFFFFFFFF0030FF00
60FF100000FF200030FF0030FF00
0030FF0000FF200030FF0030FF00
0030FF0000FF200030FF0030FF00
0030FF0000FF200030FF0030FF00
0030FF0000FF402030FF0030FF00
0030FF0000FFFFE0C0FF0030FF00
0030FF000000000000000030FF00
0030FF0000000020FFFFFFFFFF00
0010400000000000303030303000
ENDCHAR
STARTCHAR  4F57
ENCODING  20311
SWIDTH  1000 0
DWIDTH  14 0
BBX  14 14 0 -2
BITMAP
0000201000000000300000000000
0010FF2030303030FF4030303000
0060E000FFFFFFFFFFFFFFFFFF30
00C08000FF30000000000000FF30
10FF4000FF30000000000000FF30
60F0000030208000000000003000
0030FF000030FF00000000000000
0030FF000030FFE0FFFFFFFFFF00
0030FF000030FF20303030303000
0030FF000030FF00000000000000
0030FF000030FF00000000000000
0030FF000030FF00000000000000
0030FF000030FFFFFFFFFFFFFF00
0010400000002020202020202000
ENDCHAR
STARTCHAR  4F58
ENCODING  20312
SWIDTH  1000 0
DWIDTH  14 0
BBX  14 14 0 -2
BITMAP
0000000000004010000000000000
0000000030C0FFF0801000000000
00001080FFA02060E0F080100000
0060E0E0400000000060E0F08010
20F080303030303030303080E0A0
102000FFFFFFFFFFFFFFFF800030
0000000000000000000000000000
20FFFFFFFFFFFFFFFFFFFFFFFF20
003030303030FF40303030303000
000020A00000FF300030C0600000
0000A0A00000FF300000A0F01000
0040FF200000FF30000020F08000
00E0C000A0FFFF3000000060F010
0000000010303000000000000000
ENDCHAR
STARTCHAR  4F59
ENCODING  20313
SWIDTH  1000 0
DWIDTH  14 0
BBX  14 14 0 -2
BITMAP
0000000000000030000000000000
000000000040E0FFC03000000000
00000030C0FFA060C0FFA0200000
0020A0FFC03000000040E0F08010
00F0E0603030303030303080E0E0
006000FFFFFFFFFFFFFFFFE00060
00000000000020C0000000000000
00000000000030FF000000000000
20FFFFFFFFFFFFFFFFFFFFFFFF30
00303030303040FF303030303000
000040FF400030FF000080F01000
0020E0A0000030FF000000E08000
00A0E01000FFFFFF00000030E000
0000000000203030000000000000
ENDCHAR
STARTCHAR  4F5A
ENCODING  20314
SWIDTH  1000 0
DWIDTH  14 0
BBX  14 14 0 -2
BITMAP
0000403000000000801000000000
0000F04020FF0000FF3000000000
0040F00030FF1010FF4010101000
00A0A00030FFFFFFFFFFFFFFF000
10F0600000101010FF4010101000
60F0100000000000FF3000000000
0030FF0030303030FF4030303000
0030FF00FFFFFFFFFFFFFFFFFF30
0030FF0000000080FFA000000000
0030FF00000040FF80FF60000000
0030FF000010E0C00080F0200000
0030FF0000A0F0200000C0C00000
0030FF0060FF6000000020F08000
0010400040400000000000304000
ENDCHAR
STARTCHAR  4F5B
ENCODING  20315
SWIDTH  1000 0
DWIDTH  14 0
BBX  14 13 0 -2
BITMAP
0040FF10000020FF00FF20000000
0080C020FFFFFFFFFFFFFFFFF000
00E08000303040FF30FF4060F000
20FF4000000030FF00FF3030F000
60F00000FFFFFFFFFFFFFFA0F000
0030FF00FF6060FF40FF60404000
0030FF00FF3030FF00FF30000000
0030FF00FFFFFFFFE0FFFFFFFF10
0030FF003030C0A020FF4040FF10
0030FF000010FF6000FF3020FF10
0030FF000060FF1000FF3020FF10
0030FF0000A0E00000FF30002000
001040000080600000A020000000
ENDCHAR
STARTCHAR  4F5C
ENCODING  20316
SWIDTH  1000 0
DWIDTH  14 0
BBX  14 14 0 -2
BITMAP
0000602000002060000000000000
0020FF200000A0E0000000000000
0080E0000000F0C0303030303010
00E080000040FFFFFFFFFFFFFF60
20FF300000A0E030FF0000000000
80E0000010FF8030FF0000000000
0000FF3060FF1030FFA0FFFFFF00
0000FF3060600030FF1030303000
0000FF3000000030FF0000000000
0000FF3000000030FF1030303000
0000FF3000000030FFA0FFFFFF00
0000FF3000000030FF0000000000
0000FF3000000030FF0000000000
0000401000000010400000000000
ENDCHAR
STARTCHAR  4F5D
ENCODING  20317
SWIDTH  1000 0
DWIDTH  14 0
BBX  14 14 0 -2
BITMAP
0000301010400000000000000000
0010FF4030FF0000000000000000
0060F00030FFFFFFFFFFFFFFFF10
00A0A0000020202020202040FF10
00F060000030303030300020FF10
30FF200030FFFFFFFFFF3020FF10
1040FF2030FF000000FF3020FF10
0010FF2030FF000000FF3020FF10
0010FF2030FF000000FF3020FF10
0010FF2030FF303010FF3020FF10
0010FF2030FFFFFFC0FF3020FF10
0010FF200000000000000020FF10
0010FF20000000A0FFFFFFFFFF10
0000400000000020303030303000
ENDCHAR
STARTCHAR  4F5E
ENCODING  20318
SWIDTH  1000 0
DWIDTH  14 0
BBX  14 14 0 -2
BITMAP
0000201000000000000000000000
0010FF3080FFFFFFFFFFFFFFFF00
0060E00010303030303030303000
00A0A00000000000000000000000
10F06000FFFFFFFFFFFFFFFFFF80
40FF100030303030303030303010
1040E00000FF3000000000000000
0030FF00F0FFFFFFFFFFFFFFFF60
0030FF0020FF4030303030FF4010
0030FF0000FF6000000030FF3000
0030FF0000E0FFE080E0FFE02000
0030FF000060E0FFFFFFF0802000
0030FF00C0FFC0601040A0E0FF30
0010800040100000000000004020
ENDCHAR
STARTCHAR  4F5F
ENCODING  20319
SWIDTH  1000 0
DWIDTH  14 0
BBX  14 13 0 -2
BITMAP
0000A0A020F03030303030303000
0020FF4030FFFFFFFFFFFFFFFF10
0080E0001080000000000020FF10
00E0800020FFA040000060C0FF10
40FF10000030A0F0E0E0F0801000
0030FF000030A0FFE0C0FFE06010
0030FF10C0FFC04000002080E0E0
0030FF30A0408060603010000030
0030FF000010C0E0F0FFFFF0E000
0030FF0000000000001030406000
0030FF0020FFE0C0A08060301000
0030FF0000406080A0C0F0FFFF40
0010400000000000000000103010
ENDCHAR
STARTCHAR  4F60
ENCODING  20320
SWIDTH  1000 0
DWIDTH  14 0
BBX  14 14 0 -2
BITMAP
0000202000101010101010101000
0000F08030FFFFFFFFFFFFFFFF30
0040FF2030FF202020202020FF30
00A0C00030FF000000000000FF30
10F0600030FF0000C0200000FF30
60F0100010A00000FF300000A010
0030FF0000106000FF3040600000
0030FF000040E000FF3060FF2000
0030FF000080A000FF3020FF6000
0030FF0000E06000FF3000E0A000
0030FF0020FF2000FF300080E000
0030FF0060E00000FF300030FF20
0030FF00A0A000E0FF300000E060
0010400010000020300000001000
ENDCHAR
STARTCHAR  4F63
ENCODING  20323
SWIDTH  1000 0
DWIDTH  14 0
BBX  14 14 0 -2
BITMAP
0000602000000000000000000000
0020FF30FFFFFFFFFFFFFFFFFF30
0080E000FF40303060303030FF30
00C0A000FF300000FF300000FF30
10FF4000FF302020FF402020FF30
60F01000FF30FFFFFFFFFFA0FF30
0030FF00FF300000FF300000FF30
0030FF00FF300000FF300000FF30
0030FF00FF30FFFFFFFFFFA0FF30
0030FF00FF303030FF403020FF30
0030FF00FF300000FF300000FF30
0030FF00FF300000FF300000FF30
0030FF00FF300000FF3060FFFF30
0010400040100000100010303000
ENDCHAR
STARTCHAR  4F64
ENCODING  20324
SWIDTH  1000 0
DWIDTH  14 0
BBX  14 14 0 -2
BITMAP
0000602000000000000000000000
0020FF20FFFFFFFFFFFFFFFFFF80
0080E00030FF4030303030303010
00C0A00000FF4030303030300000
10FF400000FFFFFFFFFFFFFF3000
60F0000000FF3030A00000FF3000
0030FF0000FF3030FF1000FF3000
0030FF0000FF3010FF4000FF3000
0030FF0000FF3000F06000FF3000
0030FF0000FF3000C08000FF3000
0030FF0000FF3000A0A000FF3000
0030FF0000FF3000000000FF3000
0030FF0000FFFFFFFFFF80FFFF80
0010400000202020202010202010
ENDCHAR
STARTCHAR  4F65
ENCODING  20325
SWIDTH  1000 0
DWIDTH  14 0
BBX  14 14 0 -2
BITMAP
0000000000003080100000000000
000000001080FFFFE06000000000
00000060E0E06010A0FFC0200000
0030C0FF801000000030C0F08000
20FFC0200000000000000060F0A0
106000FFFFFFFFFFFFFFFFC01060
0000003030303030303030200000
0020FF300000E060000000A0C000
0000E0800000A0A0000000F06000
000080E0000060E0000040FF1000
000040FF200030FF2000A0C00000
0010104010101040101030201000
00FFFFFFFFFFFFFFFFFFFFFFFF80
0020202020202020202020202010
ENDCHAR
STARTCHAR  4F67
ENCODING  20327
SWIDTH  1000 0
DWIDTH  14 0
BBX  14 13 0 -2
BITMAP
0000A080000000E0200000000000
0010FF40000000FF403030302000
0060E000000000FFFFFFFFFFC000
00E08000000000FF300000000000
30FF3000303030FF403030303020
0030FF00FFFFFFFFFFFFFFFFFFA0
0030FF00000000FF400000000000
0030FF00000000FF80E060000000
0030FF00000000FF40A0FFE06000
0030FF00000000FF300020A0F080
0030FF00000000FF300000002030
0030FF00000000FF300000000000
0010400000000010000000000000
ENDCHAR
STARTCHAR  4F69
ENCODING  20329
SWIDTH  1000 0
DWIDTH  14 0
BBX  14 14 0 -2
BITMAP
0000301000000000000000000000
0020FF40FFFFFFFFFFFFFFFFFF00
0060E010FF40303030303040FF00
00C0A010FF60FFFFFFFFFF30FF00
10FF4010FF20303030303030FF00
60F01010FF200030FF000030FF00
0030FF10FF40FFFFFFFFFF30FF00
0030FF10FF40FF40FF40FF30FF00
0030FF10FF40FF30FF30FF30FF00
0030FF10FF40FF30FF30FF30FF00
0030FF10FF40FF30FF30FF30FF00
0030FF10FF40FF30FF30FF30FF00
0030FF10FF200030FF000030FFC0
0010400030000000200000003020
ENDCHAR
STARTCHAR  4F6C
ENCODING  20332
SWIDTH  1000 0
DWIDTH  14 0
BBX  14 14 0 -2
BITMAP
0000000000000010000000000000
0000E0A0000030FF000000000010
0030FF40FFFFFFFFFFFF30008060
00A0E000303040FF303010C0C010
00F08000000030FF0020E0A00000
60FF1000303040FF40F0A0303010
0030FF00FFFFFFFFFFFFFFFFFFA0
0030FF000010C0E0300000000000
0030FF0030E0FF20202020202000
0030FF00FFA0FF40FFFFFFFFFF30
0030FF006020FF00101010101000
0030FF000020FF10101010101000
0030FF000020FFFFFFFFFFFFFF60
0010400000002020202020202010
ENDCHAR
STARTCHAR  4F6F
ENCODING  20335
SWIDTH  1000 0
DWIDTH  14 0
BBX  14 14 0 -2
BITMAP
0000000000101000000000100000
0000A0A00080E0000000A0C00000
0020FF402060FF403030F0803000
0080E000C0FFFFFFFFFFFFFFFF00
00F0600000000000FF3000000000
60F0100000000000FF3000000000
0020FF10A0FFFFFFFFFFFFFFE000
0020FF1020303030FF4030302000
0020FF1000000000FF3000000000
0020FF1030303030FF4030303010
0020FF10FFFFFFFFFFFFFFFFFF40
0020FF1000000000FF3000000000
0020FF1000000000FF3000000000
0010400000000000100000000000
ENDCHAR
STARTCHAR  4F70
ENCODING  20336
SWIDTH  1000 0
DWIDTH  14 0
BBX  14 14 0 -2
BITMAP
0020C02000000000000000000000
0060F000FFFFFFFFFFFFFFFFFF40
00A0C00030303030FF6030303010
00E0800000000010FF4000000000
30FF300030FFFFFFFFFFFFFFFF00
80F0000030FF303030303040FF00
1010F02030FF000000000030FF00
0000FF3030FF000000000030FF00
0000FF3030FFE0FFFFFFFF40FF00
0000FF3030FF202020202030FF00
0000FF3030FF000000000030FF00
0000FF3030FF202020202030FF00
0000FF3030FFFFFFFFFFFFA0FF00
0000000000101010101010101000
ENDCHAR
STARTCHAR  4F73
ENCODING  20339
SWIDTH  1000 0
DWIDTH  14 0
BBX  14 14 0 -2
BITMAP
0000100000000000100000000000
0010FF3000000000FF3000000000
0060E00030A0A0A0FFC0A0A0A000
00A0A00030A0A0A0FFA0A0A0A000
10F0600000000000FF3000000000
60FF1000FFFFFFFFFFFFFFFFFF20
0020FF1030303030303030303000
0020FF1000000000FF3000000000
0020FF1030808080FFA080808000
0020FF1040C0C0C0FFE0C0C0C000
0020FF1000000000FF3000000000
0020FF1020202020603020202000
0020FF10FFFFFFFFFFFFFFFFFF20
0000400000000000000000000000
ENDCHAR
STARTCHAR  4F74
ENCODING  20340
SWIDTH  1000 0
DWIDTH  14 0
BBX  14 14 0 -2
BITMAP
0000302000000000000000000000
0010FF40FFFFFFFFFFFFFFFFFF10
0060F00040FF4030303030FF4000
00C0A00010FF1000000000FF3000
10FF600010FF60FFFFFFFFFF3000
60FF100010FF2030303030FF3000
0020FF0010FF1000000000FF3000
0020FF0010FF2030303030FF3000
0020FF0010FF60FFFFFFFFFF3000
0020FF0010FF1000000000FF3000
0020FF0040FF4030303020FF4000
0020FF00FFFFFFFFFFFFE0FFFF10
0020FF0000000000000000FF3000
0010400000000000000000401000
ENDCHAR
STARTCHAR  4F76
ENCODING  20342
SWIDTH  1000 0
DWIDTH  14 0
BBX  14 14 0 -2
BITMAP
0000402000000000401000000000
0020FF4000000000FF3000000000
0060F000FFFFFFFFFFFFFFFFFF60
00C0A00030303030FF4030303010
10FF600000000000F02000000000
60FF100020303030303030303000
0020FF10E0FFFFFFFFFFFFFFFF00
0020FF1000000000000000000000
0020FF1030FFFFFFFFFFFFFFFF00
0020FF1030FF303030303040FF00
0020FF1030FF000000000030FF00
0020FF1030FF000000000030FF00
0020FF1030FFFFFFFFFFFFA0FF00
0010400000202020202020202000
ENDCHAR
STARTCHAR  4F7B
ENCODING  20347
SWIDTH  1000 0
DWIDTH  14 0
BBX  14 13 0 -2
BITMAP
0010FF60401030FF00FF30408000
0060F020FF4030FF00FF30A0A000
00C0A000E0A030FF00FF30E06000
10F06000A0E030FF00FF60FF2000
60F0100060FF40FF00FFA0E00000
0030FF0020FF80FF00FF60400000
0030FF0020FF80FF00FF80F00000
0030FF0060FF40FF00FF40FF3000
0030FF00A0E030FF00FF30E08000
0030FF00E0A030FF00FF3080C000
0030FF10FF6030FF00FF30103000
0030FF20801030FF00FFFFFFFF10
00104000000020A0003030303000
ENDCHAR
STARTCHAR  4F7C
ENCODING  20348
SWIDTH  1000 0
DWIDTH  14 0
BBX  14 13 0 -2
BITMAP
0000C08020303030FF4030303000
0020FF30E0FFFFFFFFFFFFFFFF00
0080E00000008060006080000000
00E080000060F0200010F0800000
40FF300020F06000000060FF3000
0000FF30A0C00000000000A0E000
0000FF3020A0C0200010C0A02000
0000FF300010C0E040E0C0100000
0000FF30000000C0FFC010000000
0000FF30000060FFA0FF60000000
0000FF300060FF600060FF800000
0000FF3080FF6000000060F0A000
0000401000000000000000000000
ENDCHAR
STARTCHAR  4F7E
ENCODING  20350
SWIDTH  1000 0
DWIDTH  14 0
BBX  14 14 0 -2
BITMAP
0000301000004010003020000000
0020FF300040F0100060F0100000
0060E00000E080000000E0800000
00C0A00060FF2000000060F02000
10FF4000E0C01010101010E0A000
60F01060FFFFFFFFFFFFFFFFFF20
1040FF1040FF2020202020FF4010
0030FF0030FFC0FFFFFF00FF3000
0030FF0030FF2030303000FF3000
0030FF0030FF2030303000FF3000
0030FF0030FFC0FFFFFF00FF3000
0030FF0030FF0000000000FF3000
0030FF0030FF000060FFFFFF3000
0010400010400000103030300000
ENDCHAR
STARTCHAR  4F7F
ENCODING  20351
SWIDTH  1000 0
DWIDTH  14 0
BBX  14 14 0 -2
BITMAP
0000403000000000601000000000
0000E06030303030FF4030303000
0040F010FFFFFFFFFFFFFFFFFF20
00A0A00000000000FF3000000000
00F06000FFFFFFFFFFFFFFFFFF00
60F01000FF403030FF403040FF00
0030FF00FF300000FF300030FF00
0030FF00FFFFFFFFFFFFE0A0FF00
0030FF00603030F0A03020303000
0030FF00FFE0C0F0100000000000
0030FF0020C0FFFFE08010000000
0030FF0010E0803080F0FFC04000
0030FF0080E00000000040A0F060
0010400040200000000000001010
ENDCHAR
STARTCHAR  4F83
ENCODING  20355
SWIDTH  1000 0
DWIDTH  14 0
BBX  14 14 0 -2
BITMAP
0000603000000000000000000000
0010FF4030FFFFFFFFFFFFFFFF00
0060F00030FF303030303040FF00
00A0C00030FF000000000030FF00
00E0600030FF000000000030FF00
30FF200030FFFFFFFFFFFFA0FF00
0030FF0000303030303030203000
0030FF0000A0A010FF1000FF2000
0030FF0000E06010FF1000FF3000
0030FF0000F04010FF1000FF3000
0030FF0020FF2010FF1000FF3000
0030FF0040FF0010FF1000FF3000
0030FF0060E00010FF1000FFFFA0
0010400010100000000000202010
ENDCHAR
STARTCHAR  4F84
ENCODING  20356
SWIDTH  1000 0
DWIDTH  14 0
BBX  13 14 0 -2
BITMAP
00002020000000000000000000
0000E060C0FFFFFFFFFFFFFFF0
0030F010202020202020202020
00A0A0000060E0100000404000
00F0600000C0A000000060F000
60F0100020FF6030303030FF60
0030FF0080FFFFFFFFFFFFFFC0
0030FF0000000000FF30000000
0030FF0080C0C0C0FFC0C0C080
0030FF0060A0A0A0FFA0A0A060
0030FF0000000000FF30000000
0030FF00000000004010000000
0030FF00F0FFFFFFFFFFFFFFFF
00104000202020202020202020
ENDCHAR
STARTCHAR  4F88
ENCODING  20360
SWIDTH  1000 0
DWIDTH  14 0
BBX  14 14 0 -2
BITMAP
0000303000002020202020202000
0000E0A000A0FFFFFFFFFFFFFF20
0020FF4040FF602020202080E000
0060FF10606010FFFFFF00E08000
00C0C00000000030303030F01000
00F06000203030303030A0A00000
40FF2000C0F0F0F0F0F0F0300000
0000FF3000002030303030303010
0000FF300060FFFFFFFFFFFFFF40
0000FF3020F0802030300060E000
0000FF3060A010F0FFFF20E08000
0000FF3000000000000060F01000
0000FF30A0FFFFFFFFFFFF800000
0000C02020303030303030000000
ENDCHAR
STARTCHAR  4F89
ENCODING  20361
SWIDTH  1000 0
DWIDTH  14 0
BBX  14 13 0 -2
BITMAP
0010E06020303030F04030303000
0060FF10E0FFFFFFFFFFFFFFFF20
00A0C000000040E0FFF080000000
10F060001080FFA01060E0E04000
60F01000C0C0603030303080F080
0030FF004000FFFFFFFFFFC01030
0030FF0020303030303030303000
0030FF00C0FFFFFFFFFFFFFFFF00
0030FF000030FF30303030300000
0030FF000030FFFFFFFFFFFF3000
0030FF0000000000000000FF3000
0030FF00000030FFFFFFFFFF3000
0010400000001030303030300000
ENDCHAR
STARTCHAR  4F8B
ENCODING  20363
SWIDTH  1000 0
DWIDTH  14 0
BBX  14 14 0 -2
BITMAP
0000402020202020200000006010
0020FF30FFFFFFFFFF000010FF20
0060E00060FF60303030FF10FF20
00C0A00060FF30100030FF10FF20
10FF400080FFFFFFE030FF10FF20
60F01000A0E02080C030FF10FF20
0030FF00C0C00080A030FF10FF20
0030FF00E08000A0A030FF10FF20
0030FF10FF60E0FF8030FF10FF20
0030FF30FF4020C06030FF10FF20
0030FF10401000C060108010FF20
0030FF00000000E040000010FF20
0030FF00E0FFFFFF300080FFFF20
0010400020202020000010303000
ENDCHAR
STARTCHAR  4F8D
ENCODING  20365
SWIDTH  1000 0
DWIDTH  14 0
BBX  14 14 0 -2
BITMAP
0000401000000000601000000000
0020FF2010101010FF4010101000
0060E000E0FFFFFFFFFFFFFFFF00
00C0A00010101010FF4010101000
10FF400040404040FF6040404020
60F00000FFFFFFFFFFFFFFFFFF80
1040FF0000000000000000A01000
0030FF0020303030303030FF4000
0030FF00F0FFFFFFFFFFFFFFFF10
0030FF0010601000000010FF2000
0030FF0000F06000000010FF2000
0030FF0000C0A000000010FF2000
0030FF000080E00080FFFFFF2000
0010600000000000103030300000
ENDCHAR
STARTCHAR  4F8F
ENCODING  20367
SWIDTH  1000 0
DWIDTH  14 0
BBX  14 13 0 -2
BITMAP
0010E03020E00000FF3000000000
0060F00030FF3030FF4030303010
00A0A00030FFFFFFFFFFFFFFFF60
10F0400000000000FF3000000000
60F0100000000000FF3000000000
0030FF00FFFFFFFFFFFFFFFFFF60
0030FF0030306030FF4040403010
0030FF000060E000FF3080F00000
0030FF0000C0A000FF3030FF4000
0030FF0010FF4000FF3000E08000
0030FF0060FF1000FF300080E000
0030FF00C0C00000FF300030FF20
00104000A0600000C02000008030
ENDCHAR
STARTCHAR  4F91
ENCODING  20369
SWIDTH  1000 0
DWIDTH  14 0
BBX  14 14 0 -2
BITMAP
0000402000108040000000000000
0020FF200060FF40000000000000
0060E000FFFFFFFFFFFFFFFFFF60
00C0800040FF6030303030303010
10FF400060F03030303030303000
60F00000C0FFFFFFFFFFFFFFFF20
0030FF10FFFF300000000010FF20
0030FF60E0FF30FFFFFFFF80FF20
0030FF4040FF304040404030FF20
0030FF0000FF303030303020FF20
0030FF0000FF30FFFFFFFF80FF20
0030FF0000FF300000000010FF20
0030FF0000FF30000040FFFFFF20
0010600000401000001030303000
ENDCHAR
STARTCHAR  4F94
ENCODING  20372
SWIDTH  1000 0
DWIDTH  14 0
BBX  14 14 0 -2
BITMAP
00008040000040A0100000000000
0010FF300010F0A0000030A00000
0060E00000A0F020000010F04000
00C0A00030FFFFFFFFFFFFFFA000
10F0400010303030303030302000
60F010000080C01030FF00000000
0030FF0030FF800030FF00000000
0030FF00C0FFFFFFFFFFFFFFF000
0030FF003030303040FF30302000
0030FF000000000030FF00000000
0030FF00FFFFFFFFFFFFFFFFFF30
0030FF003030303040FF30303000
0030FF000000000030FF00000000
0010400000000000104000000000
ENDCHAR
STARTCHAR  4F97
ENCODING  20375
SWIDTH  1000 0
DWIDTH  14 0
BBX  14 14 0 -2
BITMAP
0000301000000000000000000000
0020FF20FFFFFFFFFFFFFFFFFF10
0080E000FF40202020202040FF10
00C0A000FF30103030303020FF10
20FF4000FF30A0FFFFFFFF20FF10
60F01000FF30000000000020FF10
0030FF00FF3060FFFFFFE020FF10
0030FF00FF3060E03080E020FF10
0030FF00FF3060E00080E020FF10
0030FF00FF3060E03080E020FF10
0030FF00FF3060FFFFC0E020FF10
0030FF00FF30000000000020FF10
0030FF00FF3000000040FFFFFF10
0010400030000000001030303000
ENDCHAR
STARTCHAR  4F9B
ENCODING  20379
SWIDTH  1000 0
DWIDTH  14 0
BBX  14 14 0 -2
BITMAP
0000202000003000000030000000
0000E0600000FF300000FF300000
0030FF101020FF402020FF401000
00A0C000E0FFFFFFFFFFFFFFE000
10F060001010FF301010FF301000
60FF10000000FF300000FF300000
0000FF300000FF300000FF300000
0000FF3030303030303030303000
0000FF30FFFFFFFFFFFFFFFFFF00
0000FF3000004030002060000000
0000FF300040FF200010E0600000
0000FF3010E0A000000060E00000
0000FF30A0F02000000010E06000
0000401030200000000000202000
ENDCHAR
STARTCHAR  4F9D
ENCODING  20381
SWIDTH  1000 0
DWIDTH  14 0
BBX  14 14 0 -2
BITMAP
0000404000000000801000000000
0000E06000000000FF3000000000
0040F010FFFFFFFFFFFFFFFFFF40
00A0A0003030C0E0303030303010
10F060000000F080008060000000
60F010000040FF308080F0000000
0030FF000080E030FF40FF60A030
0030FF0000E08030FF00E0FFE020
0030FF0020FF3030FF0080E00000
0030FF0080E00030FF0040FF2000
0030FF00C0A00030FF0000E06000
0030FF10FF400030FF0000A0A000
0030FF60F0000030FFFF6040F000
0010401020000010404010003000
ENDCHAR
STARTCHAR  4FA0
ENCODING  20384
SWIDTH  1000 0
DWIDTH  14 0
BBX  14 14 0 -2
BITMAP
0000602000000000801000000000
0020FF2020303030FF4030303010
0080E000F0FFFFFFFFFFFFFFFF40
00C0A00030600000FF3000306000
10FF400040F00000FF3000A0C000
60F0000020FF1000FF3000C08000
0030FF0000F04000FF3000F06000
0030FF0030303030FF4030303010
0030FF10FFFFFFFFFFFFFFFFFF60
0030FF00000000C0F0E020000000
0030FF000000A0E010C0E0100000
0030FF000080F0200010C0E01000
0030FF0060F04000000010E0C010
0010400040300000000000106020
ENDCHAR
STARTCHAR  4FA3
ENCODING  20387
SWIDTH  1000 0
DWIDTH  14 0
BBX  14 14 0 -2
BITMAP
0000202000000000000000000000
0000E06030FFFFFFFFFFFFFFFF00
0040F01030FF202020202040FF00
00A0A00030FF000000000030FF00
00F0600030FF000000000030FF00
40F0100030FFFFFFFFFFFFA0FF00
0030FF0000303030303030203000
0030FF0030303030303030303000
0030FF00FFFFFFFFFFFFFFFFFF30
0030FF00FF30000000000000FF30
0030FF00FF30000000000000FF30
0030FF00FF30101010101000FF30
0030FF00FFFFFFFFFFFFE080FF30
0010400020202020202010202000
ENDCHAR
STARTCHAR  4FA5
ENCODING  20389
SWIDTH  1000 0
DWIDTH  14 0
BBX  14 14 0 -2
BITMAP
0000304000006040000000000000
0000C080000060FF6080A0C0F020
0020FF20C0E0FFFFFFE0C0806010
0080C000A0806040F0803080C030
00E0600000002060E0FFFFF0A010
40FF1000A0E0FFF0C0E0E0303000
0030FF00A06020000020F0FFFF30
0030FF0030303030303030303010
0030FF00FFFFFFFFFFFFFFFFFF60
0030FF000020A0200010A0000000
0030FF000080E0000030FF000000
0030FF0010F080000030FF000000
0030FF0060F010000030FFFFFF40
0010400030300000000030303010
ENDCHAR
STARTCHAR  4FA6
ENCODING  20390
SWIDTH  1000 0
DWIDTH  14 0
BBX  14 14 0 -2
BITMAP
0000303000000000601000000000
0000E06000000000FF4030303000
0030FF1000000000FFFFFFFFFF20
00A0C00000000000FF3000000000
00F0600030FFFFFFFFFFFFFFFF00
40F0100030FF303030303040FF00
0030FF0030FF0000FF300030FF00
0030FF0030FF0000FF300030FF00
0030FF0030FF0000FF300030FF00
0030FF0030FF0020FF400030FF00
0030FF00001080F0E0FFA0100000
0030FF0060E0E0400030E0F06000
0030FF00E080000000000060F000
0010400010000000000000001000
ENDCHAR
STARTCHAR  4FA7
ENCODING  20391
SWIDTH  1000 0
DWIDTH  14 0
BBX  14 14 0 -2
BITMAP
0000301000000000000000004010
0030FF40FFFFFFFFFF20E010FF30
0060F020FF302040FF30FF20FF30
00A0C020FF30E030FF30FF20FF30
00E08020FF30FF30FF30FF20FF30
20FF4020FF30FF30FF30FF20FF30
0030FF20FF30FF30FF30FF20FF30
0030FF20FF30FF30FF30FF20FF30
0030FF20FF30FF30FF30FF20FF30
0030FF10C030FF20C030FF20FF30
0030FF0000A0FF800030FF20FF30
0030FF0030FFA0F020000000FF30
0030FF00E0A000C0A000FFFFFF30
0010400030100010200040404010
ENDCHAR
STARTCHAR  4FA8
ENCODING  20392
SWIDTH  1000 0
DWIDTH  14 0
BBX  14 14 0 -2
BITMAP
0000602000000000000000000000
0020FF2080FFFFFFFFFFFFFFFF00
0080E00010303030FF4030303000
00C0A00000000000FF3000000000
10FF400020303030FF4030303010
60F00000F0FFFFFFFFFFFFFFFF40
0030FF000080F0800040F0A01000
0030FF10E0E04000000030E0F040
0030FF10C020FF300000FF308060
0030FF000030FF100000FF300010
0030FF000060E0000000FF300000
0030FF000080C0000000FF300000
0030FF0000C080000000FF300000
0010400000403000000060100000
ENDCHAR
STARTCHAR  4FA9
ENCODING  20393
SWIDTH  1000 0
DWIDTH  14 0
BBX  14 14 0 -2
BITMAP
0000204000000000400000000000
0000A080000020C0FFC020000000
0010F0300060F0C030C0F0600000
0080E000A0FF8000000060F0A010
00E06010E030000000000020E020
40FF100000FFFFFFFFFFFFFF1000
0030FF0000303030303030300000
0030FF0010202020202020202000
0030FF00F0FFFFFFFFFFFFFFFF00
0030FF0010308020101010101000
0030FF0000A0E000000080800000
0030FF0010F08010101060FF2000
0030FF0080FFFFFFFFFFFFFFA000
0010400010202020202020201000
ENDCHAR
STARTCHAR  4FAA
ENCODING  20394
SWIDTH  1000 0
DWIDTH  14 0
BBX  14 14 0 -2
BITMAP
0000100000000000200000000000
0000F04020303030FF4030303000
0040F010FFFFFFFFFFFFFFFFFF00
00A0C00000801000000000404000
00F0600000E0F0802060E0FF4000
40FF2000000060FFFFFFC0200000
0030FF002080F0E060C0FFA03000
0030FF10FFC04000000040C0FF10
0030FF003060E000000030FF3010
0030FF000080C000000030FF0000
0030FF000080A000000030FF0000
0030FF0000A0A000000030FF0000
0030FF0000C08000000030FF0000
0010400000301000000010300000
ENDCHAR
STARTCHAR  4FAC
ENCODING  20396
SWIDTH  1000 0
DWIDTH  14 0
BBX  14 14 0 -2
BITMAP
0000301000000010400000000000
0020FF3020202080E02020202000
0060E020FFFFFFFFFFFFFFFFFF30
00C0A020FF2020FF40101010FF30
10FF4020FF1040F000000000FF30
60E030106000A0A00060A0006010
0030FF000000E080FF30FF408040
0030FF000030FF40FF00E0FFF030
0030FF000080E020FF0080FF2000
0030FF0000C08020FF0010FF6000
0030FF0010FF3020FF0000A0A000
0030FF0040F00020FF000040F010
0030FF00A0A00020FFFF6000F060
0000300020100000303010002010
ENDCHAR
STARTCHAR  4FAE
ENCODING  20398
SWIDTH  1000 0
DWIDTH  14 0
BBX  14 13 0 -2
BITMAP
0010E06030FF3030303030303020
0060FF1030FFFFFFFFFFFFFFFFA0
00A0C00000303030303030303000
10F0600030FFFFFFFFFFFFFFFF00
60F0100030FF000030300030FF00
0030FF0030FF0030FFFF0030FF00
0030FF0040FF202020202040FF20
0030FF00FFFFFFFFFFFFFFFFFFC0
0030FF0030FF000020200030FF00
0030FF0030FF0030FFFF0030FF00
0030FF0030FF000020200030FF00
0030FF0030FFFFFFFFFFFFA0FF00
0010600000202020202020202000
ENDCHAR
STARTCHAR  4FAF
ENCODING  20399
SWIDTH  1000 0
DWIDTH  14 0
BBX  14 14 0 -2
BITMAP
0000602000000000000000000000
0030FF3030FFFFFFFFFFFFFF1000
0080E00000303030303040FF1000
00E0A00030303030303040FF4010
20FF4010FFFFFFFFFFFFFFFFFF40
60FF1000C0200000000000000000
0020FF00FFFFFFFFFFFFFFFFFF10
0020FF0030303030803030303000
0020FF0030303030FF4030303010
0020FF10FFFFFFFFFFFFFFFFFF60
0020FF00000080F0E0F080100000
0020FF0040E0E0600040E0F06000
0020FF00E080100000000060E020
0010400010000000000000001010
ENDCHAR
STARTCHAR  4FB5
ENCODING  20405
SWIDTH  1000 0
DWIDTH  14 0
BBX  14 14 0 -2
BITMAP
0000201000000000000000000000
0010FF40A0FFFFFFFFFFFFFFFF00
0060F0001030303030303030FF00
00C0A00060FFFFFFFFFFFF30FF00
10FF4000A0FFFFFFFFFFFF80FF00
60F0100020303030303030203000
0030FF10FFFFFFFFFFFFFFFFFF30
0030FF10FF40303030303030FF30
0030FF0020303030303030303000
0030FF0080FFFFFFFFFFFFFFE000
0030FF0060A06030002060A0E000
0030FF0020A0FFFFFFFFFFC04000
0030FF00E0F0C0804060A0E0FF40
0010400040000000000000002010
ENDCHAR
STARTCHAR  4FBF
ENCODING  20415
SWIDTH  1000 0
DWIDTH  14 0
BBX  14 14 0 -2
BITMAP
0000302000000000000000000000
0010F060FFFFFFFFFFFFFFFFFF80
0060F00020202020FF4020202010
00C0A000FFFFFFFFFFFFFFFFFF10
20FF4000FF403030FF403040FF10
80F00000FF30FFFFFFFFFF60FF10
0030FF00FF303030FF403020FF10
0030FF00FF403030FF403020FF10
0030FF00FFFFFFFFFFFFFFC0FF10
0030FF00804010E0A00000000000
0030FF00A0F0FFFF803000000000
0030FF000080F080C0FFE0A06010
0030FF0060FF6000001040A0E080
0000200020200000000000000000
ENDCHAR
STARTCHAR  4FC3
ENCODING  20419
SWIDTH  1000 0
DWIDTH  14 0
BBX  14 14 0 -2
BITMAP
0000203000000000000000000000
0000C0A030FFFFFFFFFFFFFFFF00
0010FF4030FF202020202040FF00
0060F00030FF000000000030FF00
00A0A00030FF000000000030FF00
00F0400030FF303030302030FF00
40F0E00030FFFFFFFFFFF0A0FF00
0030FF000040600020A000000000
0030FF0000C0A00030FF30303010
0030FF0000F0600030FFFFFFFF60
0030FF0040FFA01030FF00000000
0030FF0080E0E0F080FF00000000
0030FF00C0A00060F0FFFFFFFFA0
0000000040200000103030303010
ENDCHAR
STARTCHAR  4FC4
ENCODING  20420
SWIDTH  1000 0
DWIDTH  14 0
BBX  14 14 0 -2
BITMAP
0000402020202020003030002000
0020FF60F0FFFFFF4080E030FF00
0080F0102080E0301060F030FF00
00C0C0000080E0000040FF204000
10FF6000FFFFFFFFFFFFFFFFFF80
60FF10002080E0303030F0803010
0020FF000080E0000000E0800000
0020FF000080E0606000A0A00000
0020FF0060E0FFFF800080E04040
0020FF00F0E0E0101060C0FFFF80
0020FF000080E00060F0C0FF3000
0020FF000080E000100010FF4000
0020FF00FFFFE000000000E06000
0010400040403000000000403000
ENDCHAR
STARTCHAR  4FC5
ENCODING  20421
SWIDTH  1000 0
DWIDTH  14 0
BBX  14 13 0 -2
BITMAP
0010E03000000000FF3000E02000
0060F00030303030FF4030FF4010
00A0A000FFFFFFFFFFFFFFFFFF60
10F06000A0800000FF300040E020
60F0100060F01000FF3000C0C000
0030FF0000E08000FF3040FF4000
0030FF000080F010FF30C0C00000
0030FF000030E020FF30C0600000
0030FF000080E000FF30A0E00000
0030FF0000F06000FF3030FF4000
0030FF0060F01000FF3000C0C000
0030FF00C0A010FFFF300060FF20
0010600000000030300000000000
ENDCHAR
STARTCHAR  4FCA
ENCODING  20426
SWIDTH  1000 0
DWIDTH  14 0
BBX  14 14 0 -2
BITMAP
0000202000002030000000000000
0000E0800030F0800000A0800000
0030FF3010E0E020202040FF4000
0080E000A0FFFFFFFFFFFFFFE000
00E08000101040A0306060201000
30FF2020A0F0F0C01060E0F0A020
0030FF40A0A0100000000040A040
0030FF0030FFFFFFFFFFFFFFFF00
0030FF002060303030303040FF00
0030FF0020FFE080102080E0F000
0030FF00002080FFFFFFF0601000
0030FF0030A0F0F0A0C0FFE06000
0030FF00FFC0601000002080F030
0010400020000000000000001010
ENDCHAR
STARTCHAR  4FCE
ENCODING  20430
SWIDTH  1000 0
DWIDTH  14 0
BBX  14 14 0 -2
BITMAP
0000104000000000000000000000
000030FF000030FFFFFFFFFFFF00
000030FF100030FF30303040FF00
0000A0FF800030FF00000030FF00
0010F0C0F01030FF10303030FF00
0080E010F08030FF80FFFF80FF00
00E0601060E040FF00000030FF00
000030FF000030FF00000030FF00
000030FF100030FF80FFFF80FF00
000080FF800030FF10303030FF00
0010F0C0F01030FF00000030FF00
0060E010F08030FF10101030FF00
00E0800080F0A0FFFFFFFFC0FFA0
0020000010201020202020202010
ENDCHAR
STARTCHAR  4FCF
ENCODING  20431
SWIDTH  1000 0
DWIDTH  14 0
BBX  14 13 0 -2
BITMAP
0010F04010E01000E0A00030E010
0060F01000E04000E0A000A0E000
00C0A00000606000E0A010E06000
10F0600030FFFFFFFFFFFFFFFF30
60F0100030FF303030303030FF30
0030FF0030FF203030303000FF30
0030FF0030FFE0FFFFFFFF00FF30
0030FF0030FF000000000000FF30
0030FF0030FFE0FFFFFFFF00FF30
0030FF0030FF203030303000FF30
0030FF0030FF000000000000FF30
0030FF0030FF00000060FFFFFF30
0010400000300000001030303000
ENDCHAR
STARTCHAR  4FD0
ENCODING  20432
SWIDTH  1000 0
DWIDTH  14 0
BBX  14 14 0 -2
BITMAP
0000301010101010100000004010
0040FF30FFFFFFFFFF000010FF20
0080C000202020202010FF20FF20
00E080000020FF100010FF20FF20
10FF40102040FF302020FF20FF20
60F00040FFFFFFFFFF40FF20FF20
0030FF004020FF104010FF20FF20
0030FF10FF40FF30FF10FF20FF20
0030FF10FF40FF30FF10FF20FF20
0030FF10FF40FF30FF10FF20FF20
0030FF10FF40FF30FF108010FF20
0030FF10FF40FF30FF000010FF20
0030FF10FF40FF30FF0080FFFF20
001040002020E010200010303000
ENDCHAR
STARTCHAR  4FD1
ENCODING  20433
SWIDTH  1000 0
DWIDTH  14 0
BBX  14 14 0 -2
BITMAP
0000303010202020202020202000
0000E060F0FFFFFFFFFFFFFFFF00
0030FF1030A0A030303040F08000
00A0C0000040FF600010E0C00000
00F06000FFFFFFFFFFFFFFFFFF30
60F01000FF403030FF403030FF30
0030FF00FF300000FF300000FF30
0030FF00FF30FFFFFFFFFF40FF30
0030FF00FF303030FF403010FF30
0030FF00FF303030FF403010FF30
0030FF00FF30FFFFFFFFFF40FF30
0030FF00FF300000FF300000FF30
0030FF00FF300000FF30A0FFFF30
0010400040100000401010303000
ENDCHAR
STARTCHAR  4FD7
ENCODING  20439
SWIDTH  1000 0
DWIDTH  14 0
BBX  14 14 0 -2
BITMAP
0000602000000020002000000000
0020FF20000080F000E080100000
0080E00040E0F0600040E0E04000
00C08000FFA01000400010A0FF20
10FF4000400020C0FFC020003010
60F000000060F0E040C0F0800000
0030FF10C0FF8000000060F0C020
0030FF40C030000000000020C060
0030FF1010FFFFFFFFFFFFFF3010
0030FF0010FF4030303030FF3000
0030FF0010FF2000000000FF3000
0030FF0010FF2000000000FF3000
0030FF0010FFFFFFFFFFC0FF3000
0010400000303030303020300000
ENDCHAR
STARTCHAR  4FD8
ENCODING  20440
SWIDTH  1000 0
DWIDTH  14 0
BBX  14 14 0 -2
BITMAP
0000203000000000000000000000
0000C080E0FFFFFFFFFFFFFFFF30
0020FF3020303030303030303000
0080E00000F02060F0000040FF10
00E0800000C06020FF3000C0C000
30FF300000608000C06020E06000
0030FF0000FFFFFFFFFFFFFFF000
0030FF00003030303030A0FF4000
0030FF00101010101020F0801000
0030FF00FFFFFFFFFFFFFFFFFF60
0030FF002020202020FF40202010
0030FF000000000000FF30000000
0030FF000000A0FFFFFF30000000
0010400000001030303000000000
ENDCHAR
STARTCHAR  4FDA
ENCODING  20442
SWIDTH  1000 0
DWIDTH  14 0
BBX  14 14 0 -2
BITMAP
0000301000000000000000000000
0020FF40FFFFFFFFFFFFFFFFFF10
0060F000FF40303030303040FF10
00C0A000FF303030FF403020FF10
10FF6000FF30FFFFFFFFFF80FF10
60F01000FF300000FF300020FF10
0030FF00FF403030FF403020FF10
0030FF00FFFFFFFFFFFFFFC0FF10
0030FF0000000000FF3000000000
0030FF00FFFFFFFFFFFFFFFFFF10
0030FF0030303030FF4030303000
0030FF0000000000E02000000000
0030FF00FFFFFFFFFFFFFFFFFFC0
0010400020202020202020202020
ENDCHAR
STARTCHAR  4FDC
ENCODING  20444
SWIDTH  1000 0
DWIDTH  14 0
BBX  14 13 0 -2
BITMAP
0000A08030FFFFFFF0FFFFFFFF10
0020FF6030FF3030FF403040FF10
0080E00030FF3030FF403020FF10
00E0800030FFFFFFFFFFFF60FF10
40FF100030FF3030FF403020FF10
0030FF0030FFFFFFFFFFFFC0FF10
0030FF00FFFFFFFFFFFFFFFFFFC0
0030FF0040FF3030303030303020
0030FF0030FFFFFFFFFFFFFFE000
0030FF000030303030303060E000
0030FF000000000010202060E000
0030FF0000000000C0FFFFFFE000
0010600000000000101010101000
ENDCHAR
STARTCHAR  4FDD
ENCODING  20445
SWIDTH  1000 0
DWIDTH  14 0
BBX  14 13 0 -2
BITMAP
0000E0A0FFFFFFFFFFFFFFFFFF00
0030FF40FF40303030303040FF00
0080F000FF30000000000030FF00
00E0A000FF30000000000030FF00
40FF3000FFFFFFFFFFFFA0A0FF00
2060400030303030303020303000
0020FF1030303030FF4030303020
0020FF10FFFFFFFFFFFFFFFFFFA0
0020FF1000403000FF3040400000
0020FF1020FF4000FF3080FF3000
0020FF1060E00000FF3010F0A000
0020FF10C0600000FF300080F000
0010E01080100000E0200010A030
ENDCHAR
STARTCHAR  4FDE
ENCODING  20446
SWIDTH  1000 0
DWIDTH  14 0
BBX  14 14 0 -2
BITMAP
0000000000108040000000000000
0000001080F0F0FFC04000000000
002080F0E0601030A0FFC0400000
80FFE080303030303040A0F0C010
804000FFFFFFFFFFFFFF60208010
0030303030303000000000401000
00FFFFFFFFFFFF1020F000FF3000
00FF30303040FF1030FF00FF3000
00FF30FFFFA0FF1030FF00FF3000
00FF30202030FF1030FF00FF3000
00FF30FFFFA0FF1030FF00FF3000
00FF30202030FF10000000FF3000
00FF3000F0FFFF1030FFFFFF3000
0030000020303000003030300000
ENDCHAR
STARTCHAR  4FDF
ENCODING  20447
SWIDTH  1000 0
DWIDTH  14 0
BBX  14 14 0 -2
BITMAP
0000301000003020000000000000
0020FF200010F0300000A0800000
0060E0000080E020202080FF4000
00C0A00010F0FFFFFFFFFFFFE000
10FF400010801010101010101000
60F0000030FF3030303030303010
0030FF0030FFFFFFFFFFFFFFFF60
0030FF0000000000FF3000000000
0030FF0030303030FF4030303010
0030FF00FFFFFFFFFFFFFFFFFF60
0030FF00000020E0E0FF60000000
0030FF000040F0A00060F0800000
0030FF0040F0C000000030E08000
0010400030401000000000104010
ENDCHAR
STARTCHAR  4FE1
ENCODING  20449
SWIDTH  1000 0
DWIDTH  14 0
BBX  14 14 0 -2
BITMAP
0000301000000000401000000000
0020FF2030303030FF4030303010
0060E000FFFFFFFFFFFFFFFFFF60
00C0A00000000000000000000000
10FF4000A0FFFFFFFFFFFFFFFF00
60F0000020303030303030303000
0030FF0020303030303030303000
0030FF00A0FFFFFFFFFFFFFFFF00
0030FF0000303030303030303000
0030FF0030FFFFFFFFFFFFFFFF10
0030FF0030FF000000000020FF10
0030FF0030FF000000000020FF10
0030FF0030FFFFFFFFFFFFE0FF10
0010400000202020202020202000
ENDCHAR
STARTCHAR  4FE3
ENCODING  20451
SWIDTH  1000 0
DWIDTH  14 0
BBX  14 14 0 -2
BITMAP
0000301000101010101010101000
0020FF2020FFFFFFFFFFFFFFFF00
0060E00020FF302020202040FF00
00C0800020FF303030303030FF00
10FF400020FFFFFFFFFFFFC0FF00
60F0000000000000000000000000
0030FF00A0FFFFFFFFFFFFFFFF00
0030FF0010202020FF4020202000
0030FF0030303030FF4030303000
0030FF20FFFFFFFFFFFFFFFFFF20
0030FF00000040E0F0E060000000
0030FF0040E0E0600060E0E04000
0030FF00F080100000000080F000
0010400010000000000000001000
ENDCHAR
STARTCHAR  4FE6
ENCODING  20454
SWIDTH  1000 0
DWIDTH  14 0
BBX  14 14 0 -2
BITMAP
0000201000000010200000000000
0010FF60203030A0A03030303010
0060FF10F0FFFFFFFFFFFFFFFF60
00A0C000202030FF402020202000
00E08000E0FFFFFFFFFFFFFFFF00
30FF30001010C0C0101010101000
0030FF00FFFFFFFFFFFFFFFFFFA0
0030FF002080FF30202020302010
0030FF0000C0C030303040FF3020
0030FF0020FF60FFFFFFFFFFFFA0
0030FF0080F03040000020FF1000
0030FF00E0A030FF100020FF1000
0030FF10C04000F040F0FFFF1000
0010400000000010002030300000
ENDCHAR
STARTCHAR  4FE8
ENCODING  20456
SWIDTH  1000 0
DWIDTH  14 0
BBX  14 14 0 -2
BITMAP
0000201010101010101010101000
0000F040FFFFFFFFFFFFFFFFF000
0040F000202030FF3040FF202000
00A0A00000FF30FF2030FF20E000
10F0400000F040FF2030FF30E000
60F0100000E040FF2030FF40C000
0030FF0030FFFFFFFFFFFFFFFF20
0030FF0030FF3030303030303000
0030FF0030FF0000000000000000
0030FF0030FF0000000000000000
0030FF0030FF0000000000000000
0030FF0030FF0000000000000000
0030FF0030FF0000000000000000
0010400010600000000000000000
ENDCHAR
STARTCHAR  4FE9
ENCODING  20457
SWIDTH  1000 0
DWIDTH  14 0
BBX  14 14 0 -2
BITMAP
0000301000000000000000000000
0020FF40FFFFFFFFFFFFFFFFFF40
0060E00030303080308030303010
00C0A000000030FF00FF30000000
10FF4000FFFFFFFFFFFFFFFFFF00
60F01000FF4040FF30FF4040FF00
0030FF00FF3030FF00FF3030FF00
0030FF00FF3060FF30FF4030FF00
0030FF00FF30A0FF80FFA030FF00
0030FF00FF30F0E0E0E0E030FF00
0030FF00FF80FF80FF80E060FF00
0030FF00FF60601060103040FF00
0030FF00FF300000000080FFFF00
0010400040100000000010303000
ENDCHAR
STARTCHAR  4FEA
ENCODING  20458
SWIDTH  1000 0
DWIDTH  14 0
BBX  14 14 0 -2
BITMAP
0010600000000000000000000000
0040E0E0FFFFFFFFFFFFFFFFFF00
00A0A02030303030303030303000
00E06030FFFFFFFF40FFFFFFFF20
20FF3030FF3030FF40FF3030FF20
60F00030FFA010FF40FFA010FF20
0030FF30FFFF10FF40FFFF10FF20
0030FF30FFFF10FF40FFFF10FF20
0030FF30FFFF10FF40FFFF10FF20
0030FF30FFFF10FF40FFFF10FF20
0030FF30FFFF10FF40FFFF10FF20
0030FF30FF0000FF40FF0010FF20
0030FF30FF00C0FF40FF00C0FF20
0010400030002030103000203000
ENDCHAR
STARTCHAR  4FED
ENCODING  20461
SWIDTH  1000 0
DWIDTH  14 0
BBX  14 14 0 -2
BITMAP
0000206000000000401000000000
0000A0A0000020A0FFF060000000
0010F0401080FFC03060F0E03000
0060E010E0E06000000010A0FF60
00E0801080000000000000004040
30FF300060FFFFFFFFFFFFFFFF00
0030FF0010303030303030303000
0030FF0080E00040FF000040FF10
0030FF0060FF0020FF300080C000
0030FF0020FF3000F06000E08000
0030FF0000F06000C08020FF3000
0030FF0000000000000000100000
0030FF00FFFFFFFFFFFFFFFFFF60
0010400020202020202020202010
ENDCHAR
STARTCHAR  4FEE
ENCODING  20462
SWIDTH  1000 0
DWIDTH  14 0
BBX  14 13 0 -2
BITMAP
0010E0400000E040303030303000
0060F0100000FFFFFFFFFFFFFF30
00A0A030FF00A04000000040FF30
10F06030FF0080F0E0A0E0E08000
60F01030FF0030A0FFE0FFC04000
0030FF30FF60FFE0400030C0FF30
0030FF30FF406060A0E0FFFF8010
0030FF30FF0040F0C0A060303000
0030FF30FF00204080A0E0FFFF00
0030FF30FF00FFFFF0C0A0603000
0030FF20E0004020204080A0E000
0030FF000030C0F0F0E0A0806000
0010400000204020000000000000
ENDCHAR
STARTCHAR  4FEF
ENCODING  20463
SWIDTH  1000 0
DWIDTH  14 0
BBX  14 14 0 -2
BITMAP
0000201000000000200000000000
0010FF4030303030FF4030303020
0060F000FFFFFFFFFFFFFFFFFFA0
00A0C000FF300010000000001000
00E08000FF3010F020000030FF00
20FF4000FF3060E030FFFFFFFFA0
0030FF00FF30C08000303040FF10
0030FF00FF40FF4000E02030FF00
0030FF00FF3030FF00FF3030FF00
0030FF00FF3030FF00FF3030FF00
0030FF00FF3030FF00FF3030FF00
0030FF00FF3030FF00000030FF00
0030FF00FF3030FF0000E0FFFF00
0000300030001080000020202000
ENDCHAR
STARTCHAR  4FF1
ENCODING  20465
SWIDTH  1000 0
DWIDTH  14 0
BBX  14 13 0 -2
BITMAP
0000A08030FFFFFFFFFFFFFFFF00
0020FF4030FF303030303040FF00
0080E00030FFE0FFFFFFFF30FF00
00E0800030FF203030303030FF00
30FF300030FFE0FFFFFFFF30FF00
0030FF0030FF203030303030FF00
0030FF0030FF203030303030FF00
0030FF0030FFE0FFFFFFFF30FF00
0030FF1040FF303030303030FF20
0030FF40FFFFFFFFFFFFFFA0FFA0
0030FF00003060A0303080602000
0030FF10F0F0C0802020A0E0FFA0
0010400020000000000000000020
ENDCHAR
STARTCHAR  4FF3
ENCODING  20467
SWIDTH  1000 0
DWIDTH  14 0
BBX  14 14 0 -2
BITMAP
0000000000000000000000000000
0000E0400000FF300030FF000000
0040F080FFFFFF300030FFFFFF80
00A0A0103030FF300030FF303010
00F040000000FF300030FF000000
60F010000000FF300030FF000000
0030FF60FFFFFF300030FFFFFF60
0030FF103030FF300030FF303010
0030FF000000FF300030FF000000
0030FF103030FF300030FF303010
0030FF80FFFFFF300030FFFFFF80
0030FF000000FF300030FF000000
0030FF000000FF300030FF000000
001040000000A0200020A0000000
ENDCHAR
STARTCHAR  4FF8
ENCODING  20472
SWIDTH  1000 0
DWIDTH  14 0
BBX  14 14 0 -2
BITMAP
0000000000000000300000000000
0000A0C020303030FF4030303000
0010FF60E0FFFFFFFFFFFFFFFF10
0080F01020303030FF4030302000
00E08000C0FFFFFFFFFFFFFFF000
40FF200030303030FF4030303020
0020FF10FFFFFFFFFFFFFFFFFFA0
0020FF1030FF3000FF3020FF6000
0020FF1080C03030FF4030A0E000
0020FF10E060FFFFFFFFFF40FF60
0020FF1020303030FF4030303000
0020FF10E0FFFFFFFFFFFFFFFF00
0020FF1000000000FF3000000000
0000600000000000100000000000
ENDCHAR
STARTCHAR  4FFA
ENCODING  20474
SWIDTH  1000 0
DWIDTH  14 0
BBX  14 14 0 -2
BITMAP
0000000000000000200000000000
0000F06030303030FF6030303000
0040FF20FFFFFFFFFFFFFFFFFF30
00A0E0000030A0FFE0FFE0600000
00E08010C0FFF0806060C0FFE020
30FF3030F0E04030FF603060E040
60C0FF3030FFFFFFFFFFFFFFFF00
0000FF3030FF2030FF603030FF00
0000FF3030FFA0FFFFFFFF30FF00
0000FF3030FF3030FF603030FF00
0000FF3030FFFFFFFFFFFFA0FF00
0000FF3000000000FF6020202000
0000FF3000000000FFFFFFFFFF20
0000000000000000001010101000
ENDCHAR
STARTCHAR  4FFE
ENCODING  20478
SWIDTH  1000 0
DWIDTH  14 0
BBX  14 14 0 -2
BITMAP
0010A02000000000C02000000000
0040FF1030FFFFFFFFFFFFFFFF10
0080E00030FF303030303040FF10
00A0A00030FF0000FF300020FF10
00E0800030FFC0C0FFC0C040FF10
20FF400030FF8080FFA08030FF10
0030FF0030FF0000E0200020FF10
0030FF0030FFFFFFFFFFFFA0FF10
0030FF000030E080303030203000
0030FF000000F02000FF30000000
0030FF00E0E0FFE0E0FFE0E0E060
0030FF006060606060FF80606030
0030FF000000000000FF30000000
0010600000000000006010000000
ENDCHAR
STARTCHAR  500C
ENCODING  20492
SWIDTH  1000 0
DWIDTH  14 0
BBX  14 13 0 -2
BITMAP
0020E02030303030E04030303000
0060E010FFFFFFFFFFFFFFFFFF30
00C0A010FF20000000000000FF30
10FF600040303030303030304010
60FF100010FFFFFFFFFFFFFF3000
0020FF1010FF2000000000FF3000
0020FF1010FFFFFFFFFFC0FF3000
0020FF1010FF4030303020300000
0020FF1010FFFFFFFFFFFFFF3000
0020FF1010FF4030303030FF3000
0020FF1010FF2000000000FF3000
0020FF1010FFFFFFFFFFE0FF3000
0010400000202020202020200000
ENDCHAR
STARTCHAR  500D
ENCODING  20493
SWIDTH  1000 0
DWIDTH  14 0
BBX  14 13 0 -2
BITMAP
0010E03020303030E04030303000
0060F000C0FFFFFFFFFFFFFFFF00
00A0C00000C08000000000E0A000
00F060000060C000000040FF6000
40FF200000002000000010200000
0030FF00FFFFFFFFFFFFFFFFFF40
0030FF0030303030303030303010
0030FF0000FFFFFFFFFFFFFFFF00
0030FF0000FF403030303040FF00
0030FF0000FF300000000030FF00
0030FF0000FF300000000030FF00
0030FF0000FFFFFFFFFFFF80FF00
0010600000303030303030203000
ENDCHAR
STARTCHAR  500F
ENCODING  20495
SWIDTH  1000 0
DWIDTH  14 0
BBX  14 14 0 -2
BITMAP
000080300000A010000000000000
0030FF200000FFFFFFFFFFFFFF00
0080E0106000803030303040FF00
00C0A030FF00FFE0601060E0F000
10FF4030FF0040C0FFFFFFA01000
60F00030FF0060E0F0C0F0E06000
0030FF30FF80E08020401080E000
0030FF30FF20000020FF00FF3000
0030FF30FFA0FFFFFFFFFFFFFF00
0030FF30FF103030C0FF80303000
0030FF30FF000060FFE0F0300000
0030FF30FF0060FF8000A0E01000
0030FF000030F080000000C0C000
0010400000203000000000103010
ENDCHAR
STARTCHAR  5012
ENCODING  20498
SWIDTH  1000 0
DWIDTH  14 0
BBX  14 14 0 -2
BITMAP
0000401000000000000000004010
0030FF40FFFFFFFFFF800000FF30
0060F00060E030404010C020FF30
00A0C00080E000A0C000FF30FF30
00E08000E0A00060FF10FF30FF30
20FF4010FFFFFFFFFF60FF30FF30
0030FF10303030303010FF30FF30
0030FF000000FF200000FF30FF30
0030FF108080FF808020FF30FF30
0030FF10E0E0FFE0E030FF30FF30
0030FF000000FF200000FF30FF30
0030FF000000601000000000FF30
0030FF20FFFFFFFFFF4080FFFF30
0010400020202020201010303000
ENDCHAR
STARTCHAR  5014
ENCODING  20500
SWIDTH  1000 0
DWIDTH  14 0
BBX  14 14 0 -2
BITMAP
0000302010101010101010101000
0010F030FFFFFFFFFFFFFFFFFF30
0040F000FF60303030303030FF30
00A0A000FF40303030303010FF30
00E06000FFFFFFFFFFFFFFA0FF30
30FF2000FF30106000A020006010
0030FF00FF3030FF00FF3000FF30
0030FF00FF3030FF30FF4030FF30
0030FF00FF3030FFFFFFFFFFFF30
0030FF00FF30104000FF30004010
0030FF00FF3030FF00FF3000FF30
0030FF00FF3030FF00FF3000FF30
0030FF00FF3030FFFFFFFFFFFF30
0010400040100020202020202000
ENDCHAR
STARTCHAR  5018
ENCODING  20504
SWIDTH  1000 0
DWIDTH  14 0
BBX  14 14 0 -2
BITMAP
0000802060200000A02000106010
0030FF10A0C00000FF300060E000
0080C00030FF8000FF3000E06000
00C0800000404000FF3000400000
10FF4000FFFFFFFFFFFFFFFFFF30
60F00000FF40303030303030FF30
0030FF00FF30003030303000FF30
0030FF00FF3020FFFFFFFF00FF30
0030FF00FF3020FF0020FF00FF30
0030FF00FF3020FF1020FF00FF30
0030FF00FF3020FFF0A0FF00FF30
0030FF00FF30002020202000FF30
0030FF00FF3000000030FFFFFF30
0010400030000000000030303000
ENDCHAR
STARTCHAR  5019
ENCODING  20505
SWIDTH  1000 0
DWIDTH  14 0
BBX  15 14 -1 -2
BITMAP
000030400000000000000000000000
0000E080000010FFFFFFFFFFFF0000
0020FF400000003030303040FF0000
0060F000C020303030303040FF2000
00A0A000FF30FFFFFFFFFFFFFFFF00
00F06000FF3030C000000000000000
0000FF30FF3040FFFFFFFFFFFFC000
0000FF30FF30103030803030302000
0000FF30FF30303030FF4030303000
0000FF30FF30FFFFFFFFFFFFFFFF00
0000FF30FF300030E0E0F0A0200000
0000FF300000A0F0800030E0F08000
0000FF300000E0300000000060F000
000040100000100000000000001000
ENDCHAR
STARTCHAR  501A
ENCODING  20506
SWIDTH  1000 0
DWIDTH  14 0
BBX  14 13 0 -2
BITMAP
0000A0E020303040F04030303010
0010FF80E0FFFFFFFFFFFFFFFF60
0080F010000060F0E0F080100000
00E0800060E0F0800030C0F08010
40FF2000E080100000000040E060
0030FF0040303030303030303030
0030FF00FFFFFFFFFFFFFFFFFF80
0030FF0030FFFFFFFFFF3030FF00
0030FF0030FF303030FF3030FF00
0030FF0030FFFFFFE0FF3030FF00
0030FF000030303020300030FF00
0030FF0000000030FFFFFFFFFF00
0010400000000000303030303000
ENDCHAR
STARTCHAR  501C
ENCODING  20508
SWIDTH  1000 0
DWIDTH  14 0
BBX  14 14 0 -2
BITMAP
0000301000000000000000000000
0020FF20FFFFFFFFFFFFFFFFFF20
0060E000FF40303060303030FF20
00C08000FF303030FF403010FF20
10FF4000FF30FFFFFFFFFF20FF20
60F00000FF303030FF403010FF20
0030FF00FF60FFFFFFFFFF40FF20
0030FF00FF30303030303010FF20
0030FF00FF30FFFFFFFFFF10FF20
0030FF00FF30FF300040FF10FF20
0030FF00FF30FFFFFFC0FF10FF20
0030FF00FF30303030203010FF20
0030FF00FF3000000080FFFFFF20
0010400030100000001030303000
ENDCHAR
STARTCHAR  501F
ENCODING  20511
SWIDTH  1000 0
DWIDTH  14 0
BBX  14 13 0 -2
BITMAP
0000E0600000FF300000FF300000
0040FF10A0C0FFC0C0C0FFC0C010
00A0C0006080FFA08080FFA08010
10F060001010E0301010E0301000
60FF1000FFFFFFFFFFFFFFFFFF40
0020FF1020202020202020202000
0020FF1030FFFFFFFFFFFFFFFF00
0020FF1030FF303030303040FF00
0020FF1030FF103030303030FF00
0020FF1030FFA0FFFFFFFF30FF00
0020FF1030FF000000000030FF00
0020FF1030FFFFFFFFFFFF80FF00
0010400000202020202020202000
ENDCHAR
STARTCHAR  5021
ENCODING  20513
SWIDTH  1000 0
DWIDTH  14 0
BBX  14 14 0 -2
BITMAP
0000401000202020202020202000
0020FF2030FFFFFFFFFFFFFFFF00
0060E00030FF303030303040FF00
00C0A00030FFC0FFFFFFFF30FF00
10FF400030FF203030303030FF00
60FF100030FFFFFFFFFFFF80FF00
0030FF0010404040404040404000
0020FF0030303030303030303000
0020FF00FFFFFFFFFFFFFFFFFF20
0020FF00FF30203030303010FF20
0020FF00FF30F0FFFFFFFF40FF20
0020FF00FF30101010101000FF20
0020FF00FFFFFFFFFFFFFFA0FF20
0010400020202020202020101000
ENDCHAR
STARTCHAR  5025
ENCODING  20517
SWIDTH  1000 0
DWIDTH  14 0
BBX  14 14 0 -2
BITMAP
0000000000000000100000000000
0010E03030303030FF4030303000
0060F000FFFFFFFFFFFFFFFFFF30
00A0A000FF30606000606000FF30
10F040008040FF400030FF408010
60F0100000E0A000000080E01000
0030FF0080E01000000000C0A000
0030FF0060402020202020408000
0030FF0080FFFFFFFFFFFFFFFF00
0030FF0000000010801000000000
0030FF0000000020FF1000000000
0030FF0010101010801010101000
0030FF00FFFFFFFFFFFFFFFFFF00
0010600020202020202020202000
ENDCHAR
STARTCHAR  5026
ENCODING  20518
SWIDTH  1000 0
DWIDTH  14 0
BBX  14 14 0 -2
BITMAP
0000203000202000106010102000
0000E0800080F01040FF20A08000
0030FF302030403080F030403000
0080E000F0FFFFFFFFFFFFFFF000
00F0600000000000E08000000000
40F01000FFFFFFFFFFFFFFFFFFA0
0030FF0040A0FF40404060FF8020
0030FF0020F0C030303030E0C000
0030FF00C0FFFFFFFFFFFFFFFF60
0030FF002040FF00203040FF2010
0030FF000030FF00A0FFFFFF0000
0030FF000030FF00000000000000
0030FF000030FFFFFFFFFFFFFF00
0010600000002020202020202000
ENDCHAR
STARTCHAR  5028
ENCODING  20520
SWIDTH  1000 0
DWIDTH  14 0
BBX  14 14 0 -2
BITMAP
0000302020202020202020202000
0000E060FFFFFFFFFFFFFFFFFF30
0030FF10FF40303030303030FF30
0080C000FF40303030303020FF30
00E08000FFFFFFFFFFFFFFF0FF30
30FF2000FF300000008010000000
0030FF00FF30FFFFFFFFFFFFFF80
0030FF00FF30303030FF40303010
0030FF00FF30002020FF40202000
0030FF00FF3030FFFFFFFFFFFF30
0030FF00FF3030FF10101010FF30
0030FF00FF3030FF00000000FF30
0030FF00FF3030FFFFFFFFF0FF30
0010400040100030303030302000
ENDCHAR
STARTCHAR  5029
ENCODING  20521
SWIDTH  1000 0
DWIDTH  14 0
BBX  14 14 0 -2
BITMAP
0000302000000000602000000000
0020FF4020303030FF8030303010
0060F010E0FFFFFFFFFFFFFFFF60
00C0A000E0FFFFFFFFFFFFFFFF00
10FF600030404040FF8040404010
60F01000FFFFFFFFFFFFFFFFFFA0
1040FF0040404040404040404010
0030FF00FFFFFFFFFFFFFFFFFF00
0030FF00FF30203030303030FF00
0030FF00FF30E0FFFFFFFF30FF00
0030FF00FF30E0FFFFFFFF30FF00
0030FF00FF30203030303030FF00
0030FF00FF3000000080FFFFFF00
0010400030000000001030303000
ENDCHAR
STARTCHAR  502A
ENCODING  20522
SWIDTH  1000 0
DWIDTH  14 0
BBX  14 14 0 -2
BITMAP
0000404000000000000000000000
0010FF6030FFFFFF30FFFFFFFF10
0060FF1030FF303000303040FF10
00A0C00030FF202000202020FF10
10F0600030FFFFFF30FFFF40FF10
60F0100030FF101000101020FF10
0030FF0030FF303030303020FF10
0030FF0030FFFFFFFFFFFFA0FF10
0030FF0000008020004060000000
0030FF000030FF100080A0000000
0030FF000060E0000080A0000000
0030FF0000A080000080A0000000
0030FF0000E030000080FFFFFF60
0010400000400000001030303010
ENDCHAR
STARTCHAR  502C
ENCODING  20524
SWIDTH  1000 0
DWIDTH  14 0
BBX  14 14 0 -2
BITMAP
0000102000000010200000000000
0000A0E000000060F03030303010
0010F06000000060FFFFFFFFFF40
0080F00000303060F03030303000
00E0800030FFFFFFFFFFFFFFFF00
40FF200030FF101010101030FF00
0030FF0030FFE0FFFFFFFF30FF00
0030FF0030FF102020202030FF00
0030FF0030FFFFFFFFFFFF80FF00
0030FF0000303030FF6030203000
0030FF0030303030FF6030303010
0030FF00FFFFFFFFFFFFFFFFFF60
0030FF0000000010FF4000000000
0010400000000000601000000000
ENDCHAR
STARTCHAR  502D
ENCODING  20525
SWIDTH  1000 0
DWIDTH  14 0
BBX  14 14 0 -2
BITMAP
0000402010202020202020202000
0020FF4080FFFFFFFFFFFFFFFF00
0060F00020303030FF6030303000
00C0A000FFFFFFFFFFFFFFFFFF60
10FF600030303040FF4060303010
60F0100060C0FFA0FF30FFE0A030
0030FF00F0A06010FF303080C080
0030FF0010801000401000000000
0030FF00FFFFFFFFFFFFFFFFFFA0
0030FF0040FF4030303030608020
0030FF0020FFF0A060A0E0FFC000
0030FF000060E0FFFFFFFFC04000
0030FF00E0FFC0602040A0E0FF40
0010600060100000000000003010
ENDCHAR
STARTCHAR  502E
ENCODING  20526
SWIDTH  1000 0
DWIDTH  14 0
BBX  14 14 0 -2
BITMAP
0000203010101010101010101000
0000E0A0FFFFFFFFFFFFFFFFFF00
0030FF30FF402020F0402040FF00
00A0E000FF30FFFFFFFFFF80FF00
00F06000FF303030FF403030FF00
40F01000FF403030FF403030FF00
0030FF00FFFFFFFFFFFFFFC0FF00
0030FF0030303030FF4030303010
0030FF00FFFFFFFFFFFFFFFFFF80
0030FF0000603000FF3020400000
0030FF0040FF6000FF3030FF6000
0030FF0080E00000FF3000A0E000
0030FF00E0400000FF300030FF40
0010400030000000000000003020
ENDCHAR
STARTCHAR  503A
ENCODING  20538
SWIDTH  1000 0
DWIDTH  14 0
BBX  14 14 0 -2
BITMAP
0000402000000000601000000000
0020FF2020303030FF4030303010
0060E000FFFFFFFFFFFFFFFFFF60
00C0A000C0FFFFFFFFFFFFFFFF00
10FF400020303030FF4030303000
60F00010FFFFFFFFFFFFFFFFFF60
0030FF0030303030303030303010
0030FF0030FFFFFFFFFFFFFFFF00
0030FF0030FF3030A0403040FF00
0030FF0030FF0000FF300030FF00
0030FF0020E02080FFA03020E000
0030FF0020A0FFE060C0FFC04000
0030FF00FFC04000000030A0FF40
0010400040000000000000002020
ENDCHAR
STARTCHAR  503C
ENCODING  20540
SWIDTH  1000 0
DWIDTH  14 0
BBX  14 14 0 -2
BITMAP
0000000000000000000000000000
0010F04030303030F06030303010
0060F000FFFFFFFFFFFFFFFFFF80
00A0A00000303030F06030303000
10F0600030FFFFFFFFFFFFFFFF00
60F0100030FF203030303030FF00
0030FF0030FFA0FFFFFFFF30FF00
0030FF0030FF203030303030FF00
0030FF0030FFA0FFFFFFFF30FF00
0030FF0030FF102020202030FF00
0030FF0030FFA0FFFFFFFF30FF00
0030FF0030FF101010101030FF00
0030FF30FFFFFFFFFFFFFF80FFA0
0010400020202020202020202010
ENDCHAR
STARTCHAR  503E
ENCODING  20542
SWIDTH  1000 0
DWIDTH  14 0
BBX  14 14 0 -2
BITMAP
0000602000000020202020202010
0020FF40FF1000FFFFFFFFFFFF40
0080E010FF1000202040FF202010
00C0A010FF100030FFFFFFFFFF20
10FF4010FFFFE030FF303030FF20
60F01010FF402030FF20F000FF20
0030FF10FF100030FF30FF00FF20
0030FF10FF100030FF30FF00FF20
0030FF10FF100030FF30FF00FF20
0030FF10FF100020C040FF20C020
0030FF10FF10000010E0FFA00000
0030FF10FF402000C0FF80FF6000
0030FF10FFFFC0A0FF600080F010
0010400000000030300000003010
ENDCHAR
STARTCHAR  5043
ENCODING  20547
SWIDTH  1000 0
DWIDTH  14 0
BBX  14 14 0 -2
BITMAP
0000301010101010101010101010
0020FF40FFFFFFFFFFFFFFFFFFA0
0060E000FF404040404040404010
00C0A000FF20FFFFFFFFFFFFFF00
10FF4000FF20FF30FFFFFFC0FF00
60F01000FF20FF4040404040FF00
0030FF00FF20FFFFFFFFFFE0FF00
0030FF00FF30A060303030303020
0030FF00FF40FFFFFFFFFFFFFFA0
0030FF00FF20C0E0806060A0A000
0030FF00FF2060E0FFFFF0FFE030
0030FF00FF20C080401010408060
0030FF00FFFFFFFFFFFFFFFFFFA0
0010400020202020202020202010
ENDCHAR
STARTCHAR  5047
ENCODING  20551
SWIDTH  1000 0
DWIDTH  14 0
BBX  14 14 0 -2
BITMAP
0000302000000000000000000000
0000F060FFFFFFFF30FFFFFFFF30
0040FF20FF4030FF20303030FF30
0080E010FF2010FF20000000FF30
00E08010FF4020FF20303030FF30
20FF4010FFFFC0FF30FFFFFFFF30
0030FF10FF200010003030303000
0030FF10FF60FFFF40FFFFFFFF30
0030FF10FF30303010FF1000FF30
0030FF10FF20000000F08080F020
0030FF10FF60FFFF3060FFFF6000
0030FF10FF3030300060FFFF4000
0030FF10FF20000040FF80A0F020
0010400030000000203000003020
ENDCHAR
STARTCHAR  5048
ENCODING  20552
SWIDTH  1000 0
DWIDTH  14 0
BBX  14 14 0 -2
BITMAP
0000302020202020202020202000
0000F030FFFFFFFFFFFFFFFFFF30
0040F000FF40404040404030FF30
00A0A000FF30FFFFFFFFFF30FF30
00E06000FF40303030303010FF30
30FF2000F0F0F0F0F0F0F0A0F020
0030FF00E0402020202020202000
0030FF00FFFFFFFFFFFFFFFFFF30
0030FF006010101080101010FF30
0030FF00FF3000A0FFA00000FF30
0030FF00FF3080F060F0A000FF30
0030FF00FF30603000306020FF30
0030FF00FFFFFFFFFFE040FFFF30
0010400020202020202010202000
ENDCHAR
STARTCHAR  504C
ENCODING  20556
SWIDTH  1000 0
DWIDTH  14 0
BBX  14 14 0 -2
BITMAP
0000802000108000000010800000
0030FF108080FF80808080FF8010
0080E000E0E0FFE0E0E0E0FFE030
00C080000020FF00000030FF0000
10FF400000001000000000000000
60F000103080E030303030303010
0030FF40FFFFFFFFFFFFFFFFFF30
0030FF0040FF1000000000000000
0030FF00C0A0FFFFFFFFFFFFFF00
0030FF10FF40FF4030303040FF00
0030FF40A000FF2000000030FF00
0030FF000000FF2010101030FF00
0030FF000000FFFFFFFFFFA0FF00
0010400000002020202020202000
ENDCHAR
STARTCHAR  504E
ENCODING  20558
SWIDTH  1000 0
DWIDTH  14 0
BBX  14 14 0 -2
BITMAP
0000301000000000000000000000
0020FF10FFFFFFFFFFFFFFFFFF00
0060C000FF402060A0202040FF00
00C08000FF30F0F0FFF0F030FF00
10FF4000FF3060A0F0606030FF00
60F00000FF40303030303030FF00
0030FF00FFFFFFFFFFFFFFA0FF00
0030FFA0FFFFFFFFFFFFFFFFFF00
0030FF20E0803030303030303000
0030FF00E0600020E0A000208000
0030FF00E060000020E0E0F0C000
0030FF00E06000000010E0F01000
0030FF00E0FFFFFF200010C0A000
0010400020303030000000002000
ENDCHAR
STARTCHAR  504F
ENCODING  20559
SWIDTH  1000 0
DWIDTH  14 0
BBX  14 13 0 -2
BITMAP
0010C04030303060C03030303000
0060FF40FFFFFFFFFFFFFFFFFF20
00A0C030FF00000000000000FF20
10F06030FFFFFFFFFFFFFFA0FF20
60F01030FF303030303030203000
0030FF30FF30FFFFFFFFFFFFFF30
0030FF30FF30FF3030303030FF30
0030FF30FF30FF60F060E000FF30
0030FF30FF30FFA0F0A0F040FF30
0030FF30FF30FFE0FFE0FF80FF30
0030FF30FF30FF60F060E000FF30
0030FF30FF30FF60F060E000FF30
0010300020002000000000002000
ENDCHAR
STARTCHAR  5055
ENCODING  20565
SWIDTH  1000 0
DWIDTH  14 0
BBX  14 14 0 -2
BITMAP
0000301040100000004010000000
0020FF20FF30000000FF30000000
0060E000FF30FFFF80FF30FFFFE0
00C08000FF30303010FF30303020
10FF4000FF30000000FF30000000
60F00000FFFFFFFF80FFFFFFFFE0
0030FF0030303030A04030303020
0030FF00F0FFFFFFFFFFFFFFFF60
0030FF00F060303030303060FF60
0030FF00F040303030303040FF60
0030FF00F040FFFFFFFFFF60FF60
0030FF00F040000000000040FF60
0030FF00F0FFFFFFFFFFFFA0FF60
0010400020202020202020202010
ENDCHAR
STARTCHAR  505A
ENCODING  20570
SWIDTH  1000 0
DWIDTH  14 0
BBX  14 14 0 -2
BITMAP
0000000000000000002000000000
0010FF1000F0600010FF30202010
0060E02030F0603010FFFFFFFF80
00C080A0FFFFFFFF10A01030FF00
10F0400000F0600010FF2030FF00
60F0000000F0600010FF2030FF00
0030FF0000C0400010FF2030FF00
0030FF60FFFFFFC010FF4060F000
0030FF60F030A0C000A0E0E08000
0030FF60F000A0C00010F0F01000
0030FF60F000A0C00040FFFF2000
0030FF60F010A0C010E0E0E0C000
0030FF60FFFFE0C0A0F02030FF40
0010400010101010000000003020
ENDCHAR
STARTCHAR  505C
ENCODING  20572
SWIDTH  1000 0
DWIDTH  14 0
BBX  14 14 0 -2
BITMAP
0000602000000000C02000000000
0020FF30FFFFFFFFFFFFFFFFFF30
0080E00030303030303030303010
00C0A00000FFFFFFFFFFFFFF3000
10FF400000FF4030303030FF3000
60F0100000FFFFFFFFFFE0FF3000
0030FF0000303030303020300000
0030FF10FFFFFFFFFFFFFFFFFF30
0030FF10FF40303030303030FF30
0030FF0060203030303030306010
0030FF000040FFFFFFFFFFFF0000
0030FF000000000030FF00000000
0030FF000000A0FFFFFF00000000
0010600000001030303000000000
ENDCHAR
STARTCHAR  5065
ENCODING  20581
SWIDTH  1000 0
DWIDTH  14 0
BBX  14 13 0 -2
BITMAP
0020FF60FFFFA0FFFFFFFFFFFF00
0060FF1040FF203060F03040FF00
00A0E00030FFFFFFFFFFFFFFFF40
00E0800030FF303060F03040FF10
20FF400030FFA0FFFFFFFF80FF00
0030FF0030FF203060F030203000
0030FF0030FF40FFFFFFFFFFFF20
0030FF0030FF103060F030303000
0030FF0030FFFFFFFFFFFFFFFF30
0030FF0030FF303060F030303000
0030FF0030FF0000308000000000
0030FF00FFFFFFFFFFFFFFFFFFE0
0010400020202020202020202020
ENDCHAR
STARTCHAR  506C
ENCODING  20588
SWIDTH  1000 0
DWIDTH  14 0
BBX  14 14 0 -2
BITMAP
0000000000100000000000000000
0010FF3030FF3030303030303000
0060E00030FFFFFFFFFFFFFFFF00
00C0A0000010800030800030FF00
10F04000C0C0E040A0E00030FF00
60F0100080E0E0F0FFFF0030FF00
0030FF0000E06040FFA02040FF00
0030FF0010FF2080FF10A0FFFF00
0030FF0010A00080201080008010
0030FF0020FF10FF2030FF00FF30
0030FF0020FF10FF2030FF00FF30
0030FF0020FF10FF20104000FF30
0030FF0020FF10FFFFFFFF20FF30
0010400000000030303030000000
ENDCHAR
STARTCHAR  5076
ENCODING  20598
SWIDTH  1000 0
DWIDTH  14 0
BBX  14 14 0 -2
BITMAP
0000301000101010101010101000
0020FF3030FFFFFFFFFFFFFFFF00
0060E00030FF2020E0402060FF00
00C0A00030FFFFFFFFFFFF60FF00
10FF400030FF3030FF403040FF00
60F0100030FF3030FF403040FF00
0030FF0030FFFFFFFFFFFFC0FF00
0030FF0030303030FF4030303000
0030FF00FFFFFFFFFFFFFFFFFF30
0030FF00FF300000FF304010FF30
0030FF00FF3030303030FF30FF30
0030FF00FF60FFFFFFFFFF30FF30
0030FF00FF30000000000060FF30
0010400030000000000000103000
ENDCHAR
STARTCHAR  5077
ENCODING  20599
SWIDTH  1000 0
DWIDTH  14 0
BBX  14 14 0 -2
BITMAP
0000602000000000400000000000
0020FF30000040E0FFE060000000
0080E00040C0FFC040A0FFC03000
00C0A060FFC06030303060C0FF60
10FF40404030FFFFFFFFFF204040
60F0100030303030300000004000
0030FF00FFFFFFFFFF20F010FF20
0030FF00FF301030FF30FF10FF20
0030FF00FF40FF80FF30FF10FF20
0030FF00FF302030FF30FF10FF20
0030FF00FF40FF80FF30FF10FF20
0030FF00FF303030FF000010FF20
0030FF00FF300030FF0060FFFF20
0010400030000000300010303000
ENDCHAR
STARTCHAR  507B
ENCODING  20603
SWIDTH  1000 0
DWIDTH  14 0
BBX  14 14 0 -2
BITMAP
0000402000200000401000201000
0020FF4000E08000FF2030FF4000
0060F0000040A010FF2080800000
00C0A000FFFFFFFFFFFFFFFFFFA0
10FF600030303030FF4030303020
60F0100000A0A000FF2060E02000
0030FF0060E02000FF2000C0E010
0030FF0020A03020402020202010
0030FF00FFFFFFFFFFFFFFFFFFA0
0030FF0010FF3010101010304010
0030FF0000FFF0A06080E0FF8000
0030FF001060F0FFFFFFFFA04010
0030FF00E0F0A060103080C0F0A0
0010400040100000000000000020
ENDCHAR
STARTCHAR  507E
ENCODING  20606
SWIDTH  1000 0
DWIDTH  14 0
BBX  14 13 0 -2
BITMAP
0000E06000404040FF6040404000
0030FF3010C0C0C0FFC0C0C0C000
0080E00000E02000FF2000E02000
00E08000FFFFFFFFFFFFFFFFFFC0
10FF400030FF4030303030FF4020
0030FF0000303030303030303000
0030FF0030FFFFFFFFFFFFFFFF00
0030FF0030FF000080100030FF00
0030FF0030FF0000FF300030FF00
0030FF0020C01060FF801020C000
0030FF002080F0E080E0F0A03000
0030FF00FFC04000000040A0FF10
0010400030000000000000002000
ENDCHAR
STARTCHAR  507F
ENCODING  20607
SWIDTH  1000 0
DWIDTH  14 0
BBX  14 14 0 -2
BITMAP
0000301000000000300000000000
0030FF3000E08000FF3060FF4000
0060F00030404030FF4040403000
00A0C000FFFFFFFFFFFFFFFFFF30
00E08000FF30000000000000FF30
20FF400040302020202020208010
0030FF0010FFFFFFFFFFFFFFFF00
0030FF0000000000000000000000
0030FF00FFFFFFFFFFFFFFFFFF80
0030FF0030303030303030303010
0030FF000080E000000040C01000
0030FF0000E08010101020FF6000
0030FF0010FFFFFFFFFFFFFFE000
0010400000101010101010101000
ENDCHAR
STARTCHAR  5080
ENCODING  20608
SWIDTH  1000 0
DWIDTH  14 0
BBX  13 14 0 -2
BITMAP
0000A02000000020C000000000
0040F010FFFFFFFFFFFFFFFFFF
0080C000FF40303030303040FF
00E08000FF300020FF100030FF
20FF3000FF60F0F0FFF0F030FF
60E00000FF304060FF604030FF
0030FF00FF40203080202030FF
0030FF00FFFFFFFFFFFFFFA0FF
0030FF001010E0A0C020808010
0030FF000040FF20FF30FF80C0
0030FF0000C0C000FF60FFFFE0
0030FF0030FF4000FF30000000
0030FF00A0E00000FFFFFFFFE0
00106000402000003030303020
ENDCHAR
STARTCHAR  5085
ENCODING  20613
SWIDTH  1000 0
DWIDTH  14 0
BBX  14 14 0 -2
BITMAP
0000200000000000200000100000
0030FF3030303030FF4040FF3020
0080E000FFFFFFFFFFFFFFFFFFA0
00C0A00030303030FF4030303000
00F06000FFFFFFFFFFFFFFFFFF00
40FF1000FF30FFFFFFFFFFA0FF00
0030FF00FF304040FF604040FF00
0030FF00FF30FFFFFFFFFFA0FF00
0030FF00FF300000FF300030FF00
0030FF0040303030303030E04020
0030FF00FFFFFFFFFFFFFFFFFFA0
0030FF0060A08040200000FF3000
0030FF003080A0E0FFA0FFFF3000
0010400000000000102030300000
ENDCHAR
STARTCHAR  5088
ENCODING  20616
SWIDTH  1000 0
DWIDTH  14 0
BBX  14 14 0 -2
BITMAP
0000301000000000000000000000
0020FF40FFFFFFFFFFFFFFFFFF40
0060E000202040FF20FF40202010
00C0A000FFFFFFFFFFFFFFFFFF00
10FF4000FF4040FF30FF4040FF00
60F01000FF3010A000A01020FF00
0030FF00FFFFFFFFFFFFFFA0FF00
0030FF0030303030303030203000
0030FF0030303030FF4030303010
0030FF10FFFFFFFFFFFFFFFFFF40
0030FF0000808000FF3080600000
0030FF0030FF6000FF3060FF4000
0030FF00A0A00000FF3000C0C000
0010400060100000A01000108010
ENDCHAR
STARTCHAR  508D
ENCODING  20621
SWIDTH  1000 0
DWIDTH  14 0
BBX  14 13 0 -2
BITMAP
0000E06030303030FF4030303000
0040FF10FFFFFFFFFFFFFFFFFF00
00A0C00010FF6000000000E06000
00F0600010806010101010A01000
40FF2000FFFFFFFFFFFFFFFFFF30
1020FF30FF60303030303030FF30
0000FF3040303030F04030304000
0000FF40FFFFFFFFFFFFFFFFFF20
0000FF3000A0C030303030303000
0000FF3000F0FFFFFFFFFFFFFF00
0000FF3030FF200000000030FF00
0000FF3060E0000000E0FFFFFF00
0000601020300000002030303000
ENDCHAR
STARTCHAR  50A3
ENCODING  20643
SWIDTH  1000 0
DWIDTH  14 0
BBX  14 14 0 -2
BITMAP
0000000000000000100000000000
0020FF4030303040FF3030303010
0060FF10FFFFFFFFFFFFFFFFFF40
00A0E00020303040FF3030303000
00E08000C0FFFFFFFFFFFFFFFF00
20FF400030303040FF3030303020
0030FF00FFFFFFFFFFFFFFFFFFE0
0030FF0020FF4000801020F06000
0030FF00A0F0E010FF20A0F0F010
0030FF20FF60FF40FF20F060F0A0
0030FF00001060E0FFE080200000
0030FF00A0F0E080FF80C0FFC000
0030FF00804010FFFF2000308000
0010400000000030300000000000
ENDCHAR
STARTCHAR  50A5
ENCODING  20645
SWIDTH  1000 0
DWIDTH  14 0
BBX  14 13 0 -2
BITMAP
0010C04020A02000E02010A02000
0060F01030E0A030FF40A0E03000
00A0A030FFFFFFFFFFFFFFFFFF30
10F06030FF30303030303030FF30
60F0101080FFFFFFFFFFFFFFA010
0030FF0010FF1000000000FF3000
0030FF0010FF4030303010FF3000
0030FF0010FFFFFFFFFFC0FF3000
0030FF0000008040001080000000
0030FF000040F0200020FF100000
0030FF0000E080000020FF100000
0030FF0040F010000020FFFFFF60
0010400020300000000030303010
ENDCHAR
STARTCHAR  50A7
ENCODING  20647
SWIDTH  1000 0
DWIDTH  14 0
BBX  14 13 0 -2
BITMAP
0010E04030303030E04030303000
0060FF20FFFFFFFFFFFFFFFFFF30
00A0E010FF20000000000000FF30
00E0800020FFFFFFFFFFFFFF8000
20FF400000FF4030303030301000
0030FF0000FF3030303030303000
0030FF0000FF40FFFFFFFFFFFF30
0030FF0000FF30000000FF300000
0030FF00FFFFFFFFFFFFFFFFFFE0
0030FF0030303060304040303020
0030FF003080F0C00060FFC04000
0030FF00FFC06010000040A0F040
0010400020000000000000001010
ENDCHAR
STARTCHAR  50A8
ENCODING  20648
SWIDTH  1000 0
DWIDTH  14 0
BBX  14 13 0 -2
BITMAP
0020E08030E00000C08000000000
0060FF6040F000E0F0F0E04020A0
00A0F01040F00060E0C06080F0A0
00E0A01030300030E0A0A0F08020
20FF6040FFFF00FFFFFFFFFFFFF0
0030FF0030FF0080E04000000000
0030FF0030FF80F0FFFFFFFFFF30
0030FF0030FF40A0C0303030FF30
0030FF0030FF00A0C0203010FF30
0030FF0030FF00A0C0E0FF80FF30
0030FF0030FF10A0C0101000FF30
0030FF0030FFE0A0FFFFFFC0FF30
0010600000101010202020102000
ENDCHAR
STARTCHAR  50A9
ENCODING  20649
SWIDTH  1000 0
DWIDTH  14 0
BBX  13 14 0 -2
BITMAP
00004020000000003020003000
0020FF60FFFFFF30F06000FF20
0060F0103030FF40FF60304030
00C0A030FF00FF60FFFFFFFFF0
10FF6030FF00FFA0FF3010FF10
60F01030FF00FF30FF4040FF30
0030FF20FF10FF20FFFFFFFFF0
0030FF00F0A0E000FF3010FF10
0030FF0080FF8000FF4030FF30
0030FF0040FF3000FFFFFFFFF0
0030FF0080FF6000FF3020FF20
0030FF10F0E0E000FF3010FF10
0030FF60F020FF30FFFF80FFF0
00104020200030103030203020
ENDCHAR
STARTCHAR  50AC
ENCODING  20652
SWIDTH  1000 0
DWIDTH  14 0
BBX  14 14 0 -2
BITMAP
0000401000100000401000001000
0030FF4030FF0000FF300000FF30
0060FF0030FF303040303020FF30
00A0C00030FFFFFFFFFFFFE0FF30
00E0800020FF300030FF00000000
20FF400080F03030304030303020
0030FF00E0FFFFFFFFFFFFFFFFA0
0030FF40E0FF303040FF30303010
0030FF0020FFFFFFFFFFFFFFFF40
0030FF0020FF202040FF20202000
0030FF0020FFFFFFFFFFFFFFFF40
0030FF0020FF101030FF10101000
0030FF0020FFFFFFC0FFFFFFFFC0
0010400000303030203030303020
ENDCHAR
STARTCHAR  50B2
ENCODING  20658
SWIDTH  1000 0
DWIDTH  14 0
BBX  14 14 0 -2
BITMAP
0000302000103000003000000000
0030FF802060FF4020FF40303010
0060FF20F0FFFFFFE0FFFFFFFF80
00A0E0000030FF3000401020FF00
00E0A000E0FFFFFFE0FF3020FF00
20FF40002040FF4020FF3020FF00
0030FF00FFFFFFFFFFFF3020FF00
0030FF0040FF403020FF4040FF00
0030FF0040FFFFFFE0A0E0E0A000
0030FF0060F03080E010F0FF3000
0030FF0060E00080E010F0FF4000
0030FF0080E00080E060F0E0C000
0030FF00A0C040FFE0C08030FF30
0010600020201030204000002010
ENDCHAR
STARTCHAR  50BA
ENCODING  20666
SWIDTH  1000 0
DWIDTH  14 0
BBX  14 14 0 -2
BITMAP
0000303010101010001010101000
0000E080FFFFFFFF30FFFFFFFF60
0030FF30404040FF30FF6080FF30
0060E000FF10FFFF30FF3060E000
00C0A000A010E0FF30FF60000000
00F06000A0E0F0801080E0F0C060
0030FF00E0A0303030303060A0A0
0030FF0000FFFFFFFFFFFFFF2000
0030FF0010101010101010101010
0030FF00FFFFFFFFFFFFFFFFFFC0
0030FF0020203040FF4040202010
0030FF0060C0FF60FF3080F0A040
0030FF00A08020FFFF3000308080
0010400000000030300000000000
ENDCHAR
STARTCHAR  50BB
ENCODING  20667
SWIDTH  1000 0
DWIDTH  14 0
BBX  14 14 0 -2
BITMAP
0000802000000000A02000000000
0030F000FFFFFFFFFFFFFFFFFF00
0080C000FF60A04030308080FF00
00C08000FF30E0F0C0F0E060FF00
10FF4000FF40E0F0C0F0E060FF00
60F00000FF60A04030308060FF00
0030FF00FFFFFFFFFFFFFFC0FF00
0030FF104080A08000A0A0604000
0030FFA0FFE08040304080C0F060
0030FF00E0FFFFFFFFFFFFFFE000
0030FF00A0A06020003080C0E000
0030FF004080E0FFFFFFF0802000
0030FF00E0F0C0804080C0F0F040
0010400030000000000000003020
ENDCHAR
STARTCHAR  50CF
ENCODING  20687
SWIDTH  1000 0
DWIDTH  14 0
BBX  14 14 0 -2
BITMAP
0000301000001010101010000000
0020FF4030FFFFFFFFFFE0000000
0060F000A0A0303080FF60101000
00C0A030FFFFFFFFFFFFFFFFFF10
10FF400080A03060FF303040FF10
60F0100080FFFFFFFFFFFFC0FF10
0030FF0020A0FFFFC03030204010
0030FF00F0F08060FF2040A0FF40
0030FF008060C0E0FF80FFE06000
0030FF00E0FFA040FF30E0C00000
0030FF00A040A0E0FF3060FF3000
0030FF00A0FFC040FF3000E0A000
0030FF00A03060FFFF300060F010
0010400000001030300000001000
ENDCHAR
STARTCHAR  50D6
ENCODING  20694
SWIDTH  1000 0
DWIDTH  14 0
BBX  14 14 0 -2
BITMAP
0000402000000000601000000000
0020FF40FFFFFFFFFFFFFFFFFF60
0060E00030303030FF4030303010
00C0A000E0FFFFFFFFFFFFFFFF00
10F0400040606060606060606000
40F01000FFFFFFFFFFFFFFFFFF00
2060FF00FF40303030302030FF00
0030FF00FFFFFFFFFFFFE0C0FF00
0030FF0030C060303030A0C03010
0030FF10FFFFFFFFFFFFFFFFFF60
0030FF00FFFFFFFFFFFFFFFFFF00
0030FF00FF40303030303040FF00
0030FF00FFFFFFFFFFFFE0A0FF00
0010400030303030303020303000
ENDCHAR
STARTCHAR  50DA
ENCODING  20698
SWIDTH  1000 0
DWIDTH  14 0
BBX  14 13 0 -2
BITMAP
0000A0A030303030E03030303010
0020FF80FFFFFFFFFFFFFFFFFF80
0080F020803020C0FFC040208020
00E08010E0FFFFC040C0FFFFE020
40FF2000E0FFA030303080FFF080
0030FF0080FFFFFFFFFFFFFF4060
0030FF0030FF40FFFFFFFFFF3000
0030FF0030FF1020202020FF3000
0030FF0030FFFFFFFFFFFFFF3000
0030FF0000304060FF6060300000
0030FF1080E0FF60FF60FFE08010
0030FF20C0602080FF102060C020
0010400000000010300000000000
ENDCHAR
STARTCHAR  50E6
ENCODING  20710
SWIDTH  1000 0
DWIDTH  14 0
BBX  14 14 0 -2
BITMAP
0020000000300000002000000000
20FF204060FF404000F03080C000
40F030FFFFFFFFFF00FF3080C000
60E000303030303020FF40303010
A0A000FFFFFFFFFFA0FFFFFFFF40
C08000FF300030FF00F040400000
00FF30FF301030FF00FF40FF0000
00FF30FFFFFFA0FF10FF40FF0000
00FF302040FF202020FF30FF0000
00FF30F040FF20E030FF30FF0000
00FF40FF30FF10F040F030FF0000
00FF40F030FF00FF40E030FF2000
00FF60E030FF00F060E030FFFF40
0040100010300000103000101000
ENDCHAR
STARTCHAR  50E7
ENCODING  20711
SWIDTH  1000 0
DWIDTH  14 0
BBX  14 13 0 -2
BITMAP
0010E03030A0A0303030A0E03000
0060F000FFFFFFFFFFFFFFFFFF30
00A0A000FF30E040FF30E000FF30
10F04000FF30FF40FF30FF00FF30
60F01000FF301020FF604010FF30
0030FF00FFFFFFFFFFFFFFA0FF30
0030FF0020404040404040404000
0030FF0030FFFFFFFFFFFFFFFF00
0030FF0030FF202020202030FF00
0030FF0030FFFFFFFFFFFF30FF00
0030FF0030FF101010101030FF00
0030FF0030FFFFFFFFFFFF80FF00
0010400000202020202020202000
ENDCHAR
STARTCHAR  50EC
ENCODING  20716
SWIDTH  1000 0
DWIDTH  14 0
BBX  14 14 0 -2
BITMAP
0000202000201000004010000000
0000E06020FF300000FF30000000
0030FF2060FF3030303030303010
0080E000C0FFFFFFFFFFFFFFFF60
00E08010F0FF202020FF40202000
10FF400030FFFFFFFFFFFFFFFF30
0030FF0030FF000000FF30000000
0030FF0030FFFFFFFFFFFFFFFF30
0030FF0030FF303030FF40303000
0030FF0030FF303010FF40303010
0030FF0030FFFFFFE0FFFFFFFF60
0030FF0020802080206040408000
0030FF00A0C000C0A060E020F040
0010400020100010200020002010
ENDCHAR
STARTCHAR  50ED
ENCODING  20717
SWIDTH  1000 0
DWIDTH  14 0
BBX  14 14 0 -2
BITMAP
0000402010101010101010101010
0020FF60FFFFFFFFA0FFFFFFFFA0
0060F0106060FF40206060FF4020
00C0A000FF80FF6030FF80FF6040
10FF6000FFFFFFFFA0FFFFFFFFA0
60F0100060C0E0600060E0E06000
0030FF00E060F0FFA0E060F0FFA0
0030FF1040304060406030406020
0030FF0080FFFFFFFFFFFFFFFF40
0030FF0080A0101010101040FF40
0030FF0080A0FFFFFFFFFF60FF40
0030FF0080A0202020202040FF40
0030FF0080FFFFFFFFFFFFA0FF40
0010400010202020202020202010
ENDCHAR
STARTCHAR  50EE
ENCODING  20718
SWIDTH  1000 0
DWIDTH  14 0
BBX  14 14 0 -2
BITMAP
0000801000000020C02000000000
0030F010FFFFFFFFFFFFFFFFFF10
0080A00040E06030303080E04000
00C080C0FFFFFFFFFFFFFFFFFF00
10FF302030303030303030303000
60F00000E0E0E0E0E0E0E0E0E000
0030FF00FF606080FF806060FF00
0030FF00FF30FFFFFFFFFF30FF00
0030FF00FF402040FF402030FF00
0030FF00FFFFFFFFFFFFFFA0FF00
0030FF00E0FFFFFFFFFFFFFFE000
0030FF0020202040FF4020202000
0030FFC0FFFFFFFFFFFFFFFFFF00
0010602030303030303030303000
ENDCHAR
STARTCHAR  50F3
ENCODING  20723
SWIDTH  1000 0
DWIDTH  14 0
BBX  14 14 0 -2
BITMAP
0000301000000000000000000000
0020FF40FFFFFFFFFFFFFFFFFF60
0060E000404060FF40FF60404010
00C0A000FFFFFFFFFFFFFFFFFF00
10FF4000FF3030E010E03030FF00
60F01000FF40303030303030FF00
0030FF00FFFFFFFFFFFFFFA0FF00
0030FF0080FF3000FF3060FF6000
0030FF0010806000FF3080800000
0030FF00FFFFFFFFFFFFFFFFFF00
0030FF0030808030FF4080803000
0030FF0040FF6000FF3080FF4000
0030FF00C0A00000FF3000E0C000
0010600040100000A01000204000
ENDCHAR
STARTCHAR  50F5
ENCODING  20725
SWIDTH  1000 0
DWIDTH  14 0
BBX  14 14 0 -2
BITMAP
0000402010101010101010101010
0030FF40FFFFFFFFFFFFFFFFFFC0
0060FF10FFFFFFFFFFFFFFFFFF00
00A0C000FF30303080403040FF00
00E08000FF30C0C0FFE0C060FF00
20F04000FFFFFFFFFFFFFFC0FF00
0030FF0010101010101010001000
0030FF00F0F0F0F0F0F0F0F0F0A0
0030FF00FFFFFFFFFFFFFFFFFF00
0030FF00FF30C0C0FFC0C060FF00
0030FF00FF30303080403030FF00
0030FF00FFFFFFFFFFFFFFC0FF00
0030FF00FFFFFFFFFFFFFFFFFFC0
0010400010101010101010101010
ENDCHAR
STARTCHAR  50FB
ENCODING  20731
SWIDTH  1000 0
DWIDTH  14 0
BBX  14 14 0 -2
BITMAP
0000000000000000000000100000
0010F080FFFFFFFF302080E03010
0060F030FF3030FF30F0FFFFFF40
00A0A030FF0000FF30A06010E020
10F06030FFC0C0FF30A0A030FF10
60F01030FF8080801080C040F000
0030FF30FF003030003030203010
0030FF30FF30FFFF30FFFFFFFF60
0030FF30FF30F0F0201080E01000
0030FF30FF30F0F020E0F0FFE040
0030FF30FF30F0F02060A0E06020
0030FF30FF30F0F0200080E00000
0030FF30FF30F0FF200080E00000
0010401040001020000000000000
ENDCHAR
STARTCHAR  5106
ENCODING  20742
SWIDTH  1000 0
DWIDTH  14 0
BBX  14 14 0 -2
BITMAP
0000301030000030000030000000
0030FF30FF3020FF3030FF202010
0060E0A0FFFFFFFFFF30FFFFFFF0
00A0A020FF6040FF40104040FF40
00E06020C00000000030FF10FF20
20F03020FFFFFFFFFF30FF10FF20
0030FF0030303040FF30FF10FF20
0030FF20FFFFFF30FF20FF20FF10
0030FF20F040FF30FF00E0E0E000
0030FF20F030FF30FF0040FF6000
0030FF20FF80FF30FF0060FF8000
0030FF0030203030FF00E0E0FF20
0030FF000060FFFFFF40FF30E0A0
0010400000103030302040001020
ENDCHAR
STARTCHAR  5107
ENCODING  20743
SWIDTH  1000 0
DWIDTH  14 0
BBX  14 14 0 -2
BITMAP
0000201000000000000000000000
0010FF60FFFFFFFFFFFFFFFFFF10
0060F010FF30003000300020FF10
00C0A000FF4040FF20FF4020FF10
10FF6000FFFFFFFFFFFFFFC0FF10
60F01000F0F0F0F0F0F0F0F0F0A0
0030FF0060606060606060606030
0030FF00F0FFFFFFFFFFFFFFFF10
0030FF00F060303030303030FF10
0030FF00F0FFFFFFFFFFFFC0FF10
0030FF0030F080F020A0E060A080
0030FF00A0E000FF3010E0FFA040
0030FF10F03000FFFF4030F08000
0010400000000030301000000000
ENDCHAR
STARTCHAR  510B
ENCODING  20747
SWIDTH  1000 0
DWIDTH  14 0
BBX  14 14 0 -2
BITMAP
0000201000000000000000000000
0030FF30E0FFFFFFFFFFFF600000
0080E020FF8030303080FF403010
00C0A060FFFFFFFFFFFFFFFFFF40
10FF6060FF204080A030A0804010
60FF1020FF30A06040A04060A020
0020FF20FF40FFFFFFFFFFFFFF40
0020FF20FF100000000000000000
0020FF20FF10FFFFFFFFFFFFFF10
0020FF20FF10FFFFFFFFFFFFFF10
0020FF20FF10FFFFFFFFFFFFFF10
0020FF20FF10FF4010101040FF10
0020FF20FF10FFFFFFFFFFE0FF10
0010400040001010101010101000
ENDCHAR
STARTCHAR  5112
ENCODING  20754
SWIDTH  1000 0
DWIDTH  14 0
BBX  14 14 0 -2
BITMAP
0000402010202020202020202000
0020FF30C0FFFFFFFFFFFFFFFF00
0060E00040404040FF6040404000
00C0A020FFFFFFFFFFFFFFFFFF30
10FF4020FF00F0E0FF30F0E0F030
60F01020FF000000FF300000F030
0030FF20F000F0E0F020F0E0E020
0030FF10FFFFFFFFFFFFFFFFFF60
0030FF0060606060FF6060606010
0030FF00FFFFFFFFFFFFFFFFFF10
0030FF00FF3020A000A02020FF10
0030FF00FF3030FF00FF3020FF10
0030FF00FF3030FF00FF30C0FF10
0010400030000020002000203000
ENDCHAR
STARTCHAR  5121
ENCODING  20769
SWIDTH  1000 0
DWIDTH  14 0
BBX  14 14 0 -2
BITMAP
0000301000000000000000000000
0020FF30FFFFFFFFFFFFFFFFFF00
0060E000FF402030A0302040FF00
00C0A000FF60E0E0FFE0E060FF00
10FF4000FF406060FF606040FF00
60F01000FFFFFFFFFFFFFFA0FF00
0030FF0030303030303030203000
0030FF30FFFFFFFF60FFFFFFFF30
0030FF30FF3030FF60FF3030FF30
0030FF30FFA060FF60FFA060FF30
0030FF30FFFFC0FF60FFFFC0FF30
0030FF30FFA060FF60FFA060FF30
0030FF30FFFFC0FF60FFFFC0FF30
0010400020202020102020202000
ENDCHAR
STARTCHAR  513F
ENCODING  20799
SWIDTH  1000 0
DWIDTH  14 0
BBX  14 14 0 -2
BITMAP
0000002060000000006020000000
00000060FF00000000FF60000000
00000060FF00000000FF60000000
00000060FF00000000FF60000000
00000060FF00000000FF60000000
00000060FF00000000FF60000000
00000060FF00000000FF60000000
00000060FF00000000FF60000000
00000060FF00000000FF60000000
00000060FF00000000FF60000000
00000060FF00000000FF60000000
10303080FF00000000FF80303010
40FFFFFFFF00000000FFFFFFFF60
1020202020000000002020202010
ENDCHAR
STARTCHAR  5140
ENCODING  20800
SWIDTH  1000 0
DWIDTH  14 0
BBX  13 14 1 -2
BITMAP
10101010101010101010101000
FFFFFFFFFFFFFFFFFFFFFFFFF0
20202020202020202020202020
000030E010000000E020000000
000080E000000000FF30000000
0000A0A000000000FF30000000
0000F06000000000FF30000000
0020FF2000000000FF30000000
0060E00000000000FF30000000
00A0A00000000000FF30000000
00E0600000000000FF30000000
10FF300000000000FF30000000
60F0000000000000FFFFFFFFE0
30400000000000003030303020
ENDCHAR
STARTCHAR  5141
ENCODING  20801
SWIDTH  1000 0
DWIDTH  14 0
BBX  14 14 0 -2
BITMAP
0000001060100000000000000000
000000A0E000000000A080000000
000010F0600000000060F0100000
000080E0000000000000F0800000
0010F08000000000000080F01000
0080FFFFFFFFFFFFFFFFFFFF8000
0020203030202020203020202000
000000E08000000000FF30000000
000040FF2000000000FF30000000
0000A0C00000000000FF30000000
0010F0600000000000FF30000000
0060F0000000000000FF40101010
00C0A0000000000000FFFFFFFF80
0060200000000000003030303010
ENDCHAR
STARTCHAR  5143
ENCODING  20803
SWIDTH  1000 0
DWIDTH  14 0
BBX  14 13 0 -2
BITMAP
20FFFFFFFFFFFFFFFFFFFFFFFF00
0030303030303030303030303000
0000000000000000000000000000
0000000000000000000000000000
3030303030303030303030303000
FFFFFFFFFFFFFFFFFFFFFFFFFF10
0000308000000000A01000000000
0000A0A000000000FF3000000000
0000F04000000000FF3000000000
0040F01000000000FF3000000000
00A0A00000000000FF3000000000
00E0600000000000FFFFFFFFFF10
1080100000000000404040404000
ENDCHAR
STARTCHAR  5144
ENCODING  20804
SWIDTH  1000 0
DWIDTH  14 0
BBX  13 14 1 -2
BITMAP
00101010101010101010100000
30FFFFFFFFFFFFFFFFFFFF3000
30FF2020202020202020FF3000
30FF0000000000000000FF3000
30FF0000000000000000FF3000
30FF0000000000000000FF3000
30FF3030303030303010FF3000
30FFFFFFFFFFFFFFFFC0FF3000
000040A010000020A000000000
0000E08000000030FF00000000
0060F01000000030FF00000000
00E0800000000030FF00000000
60E0100000000030FFFFFFFFC0
40300000000000003030303020
ENDCHAR
STARTCHAR  5145
ENCODING  20805
SWIDTH  1000 0
DWIDTH  14 0
BBX  13 14 1 -2
BITMAP
00000000001060000000000000
303030303040FF303030303020
FFFFFFFFFFFFFFFFFFFFFFFFE0
000040E0200000001060200000
0000C0C00000000000E0A00000
0040FF40000000000060FF3000
00C0FFFFFFFFFFFFFFFFFFA000
00303030303030303030302000
000000C040000010C010000000
000060FF10000020FF10000000
0000C0A000000020FF10000000
0020FF4000000020FF20101010
0080E00000000020FFFFFFFFC0
00404000000000003030303020
ENDCHAR
STARTCHAR  5146
ENCODING  20806
SWIDTH  1000 0
DWIDTH  14 0
BBX  14 13 0 -2
BITMAP
60F00000FF300010FF1000E08000
10FF4000FF300010FF1030FF2000
00C0A000FF300010FF1080E00000
0060F000FF300010FF10E0800000
0010FF40FF300010FF40FF200000
00006030FF300010FF3080100000
0020FF30FF300010FF20F0600000
0080E000FF300010FF10A0C00000
00C08000FF300010FF1040FF2000
10FF4000FF300010FF1000E08000
60F00000FF300010FF1000302000
A0A00000FF300010FFFFFFFFFF00
00000000C0200000303030303000
ENDCHAR
STARTCHAR  5148
ENCODING  20808
SWIDTH  1000 0
DWIDTH  14 0
BBX  13 14 1 -2
BITMAP
00100000001040000000000000
30FF00000030FF000000000000
30FF30303040FF303030303010
30FFFFFFFFFFFFFFFFFFFFFF80
000000000030FF000000000000
000000000030FF000000000000
FFFFFFFFFFFFFFFFFFFFFFFFE0
30303030303030303030303020
000030C020000000E020000000
0000A0C000000000FF30000000
0020FF4000000000FF30000000
00A0C00000000000FF30000000
20FF400000000000FFFFFFFFA0
10400000000000003030303020
ENDCHAR
STARTCHAR  5149
ENCODING  20809
SWIDTH  1000 0
DWIDTH  14 0
BBX  13 14 1 -2
BITMAP
00000000001060000000000000
40FF30000020FF10000010F040
00C0A0000020FF10000080E000
0040FF300020FF100010F06000
0000C0C00020FF100080E00000
303030403040FF303030303020
FFFFFFFFFFFFFFFFFFFFFFFFFF
00001060100000001060000000
000080E00000000030FF000000
0000E0800000000030FF000000
0060F0100000000030FF000000
00E080000000000030FF000000
40F010000000000030FFFFFFE0
20300000000000000020202020
ENDCHAR
STARTCHAR  514B
ENCODING  20811
SWIDTH  1000 0
DWIDTH  14 0
BBX  13 14 1 -2
BITMAP
00000000001040000000000000
303030303040FF303030303020
FFFFFFFFFFFFFFFFFFFFFFFFA0
000000000030FF000000000000
00303030303030303030303000
10FFFFFFFFFFFFFFFFFFFFFF00
10FF200000000000000030FF00
10FF302020202020201030FF00
10FFFFFFFFFFFFFFFFE0A0FF00
00104060101010206010101000
0010E08000000030FF00000000
0080E00000000030FF00000000
30FF300000000030FFFFFFFFA0
20300000000000003030303020
ENDCHAR
STARTCHAR  514D
ENCODING  20813
SWIDTH  1000 0
DWIDTH  14 0
BBX  14 14 0 -2
BITMAP
0000101010101010101000000000
0010F0FFFFFFFFFFFFA000000000
0080E02020202030FF4000000000
10F08030303030A0F03030300000
80FFFFFFFFFFFFFFFFFFFFFF3000
60FF300000004010000000FF3000
00FF30000000FF30000000FF3000
00FF40303030FF40303010FF3000
00FFFFFFFFFFFFFFFFFFC0FF3000
00000020E0E03060000000000000
000020E0E02030FF000000000000
0010E0E0100030FF101010101000
10E0C010000030FFFFFFFFFFFF40
3060100000000030303030303010
ENDCHAR
STARTCHAR  5151
ENCODING  20817
SWIDTH  1000 0
DWIDTH  14 0
BBX  13 14 1 -2
BITMAP
0040E0200000000000C0600000
0000C0A00000000060F0100000
00202020202020202020200000
20FFFFFFFFFFFFFFFFFFFF2000
20FF1010101010101010FF2000
20FF1000000000000000FF2000
20FF1000000000000000FF2000
20FFFFFFFFFFFFFFFFA0FF2000
00303030303030303020300000
0000C08000000020F000000000
0060F02000000030FF00000000
10E0800000000030FF10101000
80E0100000000030FFFFFFFF60
30200000000000002020202010
ENDCHAR
STARTCHAR  5154
ENCODING  20820
SWIDTH  1000 0
DWIDTH  14 0
BBX  14 14 0 -2
BITMAP
0000001010101010101010000000
000030FFFFFFFFFFFFFFA0000000
0000C0C02020202040FF60000000
0060FF4030303030A0E030300000
10F0FFFFFFFFFFFFFFFFFFFF3000
3080FF0000001040000000FF3000
0020FF00000030FF000000FF3000
0020FF30303040FF303020FF3000
0020FFFFFFFFFFFFFFFFF0FF3000
00000010E0E030FF0010E0100000
000000C0E02030FF0000C0600000
0000A0F0300030FF101010101000
0080F040000030FFFFFFFFFFFF60
0060300000001040404040404020
ENDCHAR
STARTCHAR  5155
ENCODING  20821
SWIDTH  1000 0
DWIDTH  14 0
BBX  13 14 1 -2
BITMAP
10101010100000101010100000
FFFFFFFFFF0030FFFFFFFF3000
FF402040FF0030FF2020FF3000
FF300030FF2030FF0000FF3000
FF300030FFFFE0FF0000FF3000
FF300000101010100000FF3000
FF403030303030303010FF3000
FFFFFFFFFFFFFFFFFFE0FF3000
00004040000000104000000000
0020FF8000000030FF00000000
0080E01000000030FF00000000
10F0600000000030FF10101000
80E0000000000030FFFFFFFF40
40300000000000002020202000
ENDCHAR
STARTCHAR  5156
ENCODING  20822
SWIDTH  1000 0
DWIDTH  14 0
BBX  14 14 0 -2
BITMAP
000000000000E020000000000000
A0FFFFFFFFFFFFFFFFFFFFFFFF00
1030303030403060303030303000
00000040C0FF10E0E06000000000
1060E0FFE0800060C0FFF0802000
A0F0A04060200000002080E0FF10
401000C0E010000040FF60004010
000080F04030303030A0FF600000
0000FFFFFFFFFFFFFFFFFFFF0000
000000A04000000020C000000000
000060F01000000030FF00000000
0000E0800000000030FF10101000
0060F0100000000030FFFFFFFF10
0030400000000000003030303000
ENDCHAR
STARTCHAR  515A
ENCODING  20826
SWIDTH  1000 0
DWIDTH  14 0
BBX  14 14 0 -2
BITMAP
0000000000000000000000000000
0000C0600000FF30000060A00000
000060E00000FF300000E0600000
30FFFFFFFFFFFFFFFFFFFFFFFF30
30FF30303030303030303030FF30
30FF00303030303030303000FF30
002030FFFFFFFFFFFFFFFF302000
000030FF000000000000FF300000
000030FFFFFFFFFFFFA0FF300000
0000003030303030302030000000
00000060C000000020E000000000
000030FF4000000030FF00000000
0010E0A00000000030FFFFFFFF60
0020601000000000002020202010
ENDCHAR
STARTCHAR  515C
ENCODING  20828
SWIDTH  1000 0
DWIDTH  14 0
BBX  14 14 0 -2
BITMAP
00000000000020F0000000000000
00FFFFF030FFFFFFFF30F0FFFF00
00FF402030FF3030FF302040FF00
00FF200030FF0000FF300020FF00
00FF200030FF30FFFF300020FF00
00FF200030FF0030FF300020FF00
00FF200030FF0000FF300020FF00
00FFFFF030FFFFFFFF30F0FFFF00
0030302000303030300020303000
00000080F0400000F02000000000
000010F0A0000000FF2000000000
000080F010000000FF3010101000
0020F06000000000FFFFFFFFFF20
0030600000000000404040404010
ENDCHAR
STARTCHAR  5162
ENCODING  20834
SWIDTH  1000 0
DWIDTH  14 0
BBX  14 14 0 -2
BITMAP
0000001040000000001040000000
10404060FF4040404060FF404010
30FFFFFFFFFFFFFFFFFFFFFFFF30
00000030FF0000000030FF000000
0030303030303000303030303000
00FFFFFFFFFFFF30FFFFFFFFFF00
00FF30000030FF30FF000030FF00
00FF40301030FF30FF303040FF00
00FFFFFFA0E0FF30FFFFFFE0FF00
0030A080A0200000608020A00000
0080FF40FF300000E0A030FF0000
00C0E000FF300040FF4030FF0000
00F04000FFFFFFC0F00030FFFF40
0040000030303040300000303010
ENDCHAR
STARTCHAR  5165
ENCODING  20837
SWIDTH  1000 0
DWIDTH  14 0
BBX  14 14 0 -2
BITMAP
0000002020202010000000000000
000030FFFFFFFFC0000000000000
00000010101040FF300000000000
00000000000020FFC00000000000
000000000000C0E0FF3000000000
000000000080FF30C0C000000000
0000000030F0800040FF40000000
00000000E0E0000000C0C0000000
00000080FF3000000040FF400000
000030FF800000000000C0C00000
0000E0E000000000000040FF4000
0080FF3000000000000000C0C000
30FF80000000000000000040FF40
1030000000000000000000002010
ENDCHAR
STARTCHAR  5168
ENCODING  20840
SWIDTH  1000 0
DWIDTH  14 0
BBX  14 14 0 -2
BITMAP
0000000000208030000000000000
0000000060F0F0FFA01000000000
000020C0FF800060E0F060000000
0080F0C0200000001080F0E04000
80F0600000000000000020A0FF40
4010FFFFFFFFFFFFFFFFFFC04030
0000303030303030303030200000
000000000000F020000000000000
002030303030FF40303030300000
00C0FFFFFFFFFFFFFFFFFFFF0000
000000000000FF30000000000000
001010101010E020101010101000
20FFFFFFFFFFFFFFFFFFFFFFFF20
0020202020202020202020202000
ENDCHAR
STARTCHAR  516B
ENCODING  20843
SWIDTH  1000 0
DWIDTH  14 0
BBX  14 14 0 -2
BITMAP
0000000030400000403000000000
00000000E0A00000A0E000000000
00000020FF40000040FF30000000
00000080F010000000F080000000
000000C0A000000000A0E0000000
000010FF600000000060FF200000
000060FF100000000010F0600000
0000C0C0000000000000C0C00000
0010F08000000000000060FF1000
0040FF2000000000000020FF6000
00A0E00000000000000000C0A000
00F080000000000000000080F000
40FF30000000000000000030FF40
3060000000000000000000006030
ENDCHAR
STARTCHAR  516C
ENCODING  20844
SWIDTH  1000 0
DWIDTH  14 0
BBX  14 14 0 -2
BITMAP
0000000080600000408000000000
00000040FF30000020FF60000000
000000E0A00000000080E0100000
000080F0200000000010F0800000
0010F08000000000000060F02000
00A0E00000201000000000E0A000
30FF400060FF200000000040FF40
20400000E0A0000080E010003020
00000060F020000010F080000000
000010E0800000000080F0100000
000080F0100000000010F0800000
0010F0A0404040404040A0F01000
0080FFFFFFFFFFFFFFFFFFFF8000
0020303030303030303030302000
ENDCHAR
STARTCHAR  516D
ENCODING  20845
SWIDTH  1000 0
DWIDTH  14 0
BBX  15 14 -1 -2
BITMAP
00000000000010A010000000000000
00000000000010FF20000000000000
00000000000010FF20000000000000
002020202020202020202020202000
00FFFFFFFFFFFFFFFFFFFFFFFFFF10
000000003030000000303000000000
00000010F08000000060FF20000000
00000080F01000000010F080000000
000000F080000000000080F0100000
000060FF20000000000010F0600000
0000E0A000000000000000A0E00000
0040FF300000000000000020FF6000
00C0C0000000000000000000C0C000
003010000000000000000000103000
ENDCHAR
STARTCHAR  516E
ENCODING  20846
SWIDTH  1000 0
DWIDTH  14 0
BBX  14 14 0 -2
BITMAP
0000000000100000000000000000
0000000080F02000A0E010000000
00000040FF40000010E0A0000000
000010E0800000000040FF400000
0000C0E000000000000080F02000
0080F04030303030303030E0C000
30FF60E0FFFFFFFFFFFFFF20F080
00000030FF000000000000000000
00000030FF303030303030300000
00000030FFFFFFFFFFFFFFFF1000
0000000000000000000020FF1000
0000000000000000000020FF1000
0000000040FFFFFFFFFFFFFF1000
0000000010303030303030300000
ENDCHAR
STARTCHAR  5170
ENCODING  20848
SWIDTH  1000 0
DWIDTH  14 0
BBX  13 14 1 -2
BITMAP
00104010000000000020400000
0000E0800000000000A0C00000
203080F03030303040FF803020
E0FFFFFFFFFFFFFFFFFFFFFFC0
00000000000000000000000000
00000000000000000000000000
00000000000000000000000000
60FFFFFFFFFFFFFFFFFFFFFF30
10303030303030303030303000
00000000000000000000000000
00000000000000000000000000
20202020202020202020202020
FFFFFFFFFFFFFFFFFFFFFFFFE0
10101010101010101010101010
ENDCHAR
STARTCHAR  5171
ENCODING  20849
SWIDTH  1000 0
DWIDTH  14 0
BBX  13 14 0 -2
BITMAP
00000040100000000040100000
000010FF2000000010FF200000
103030FF4030303030FF403030
60FFFFFFFFFFFFFFFFFFFFFFFF
000010FF2000000010FF200000
000010FF2000000010FF200000
000010FF2000000010FF200000
20303030303030303030303030
F0FFFFFFFFFFFFFFFFFFFFFFFF
00001060200000002060100000
0000A0E01000000000E0C00000
0040FF40000000000030F08000
10E0A00000000000000080FF30
40A01000000000000000008080
ENDCHAR
STARTCHAR  5173
ENCODING  20851
SWIDTH  1000 0
DWIDTH  14 0
BBX  14 14 0 -2
BITMAP
0000302000000000000030200000
0000A0E0000000000020FF800000
001040FF3010101010A0FF201000
40FFFFFFFFFFFFFFFFFFFFFFFF40
0020202020206030202020202000
000000000000FF30000000000000
000000000000FF30000000000000
103030303030FF40303030303010
60FFFFFFFFFFFFFFFFFFFFFFFF60
0000000060FFA0F0A00000000000
00000060FF600030E0C010000000
000060FF6000000020E0E0300000
0060FF60000000000010C0F04000
20A060000000000000000080A020
ENDCHAR
STARTCHAR  5174
ENCODING  20852
SWIDTH  1000 0
DWIDTH  14 0
BBX  15 14 -1 -2
BITMAP
001010000000200000000000102000
0080F0000010F06000000000A0E000
0020FF400000C0A000000020FF6000
0000C0A0000060F010000080E00000
000060F0100010FF600010F0600000
000020FF600000C0A00080F0100000
003030404030304040304040303000
00FFFFFFFFFFFFFFFFFFFFFFFFFF30
000000306000000000006040000000
000000E0A0000000000080F0100000
000060FF20000000000010F0800000
0010F0800000000000000060FF2000
0080F0100000000000000000E0A000
006040000000000000000000306000
ENDCHAR
STARTCHAR  5175
ENCODING  20853
SWIDTH  1000 0
DWIDTH  14 0
BBX  14 14 0 -2
BITMAP
0000000000000000000000000000
0000FFFFFFFFFFFFFFFFFFFFFF00
0000FF4020202020202020202000
0000FF3000000000000000000000
0000FF30A0FFFFFFFFFFFFFFFF40
0000FF30203030303040FF303010
0000FF30000000000020FF100000
0020FF40202020202030FF202010
30FFFFFFFFFFFFFFFFFFFFFFFFC0
0010101010201010201010101010
00000020A0E0000040E060100000
0030A0FFA03000000060E0E08010
00FFA0300000000000000060E080
0020000000000000000000000020
ENDCHAR
STARTCHAR  5176
ENCODING  20854
SWIDTH  1000 0
DWIDTH  14 0
BBX  14 14 0 -2
BITMAP
0000106000000000000010600000
003040FF30303030303040FF3010
00FFFFFFFFFFFFFFFFFFFFFFFF80
000030FF00000000000030FF0000
000030FF80FFFFFFFFFF30FF0000
000030FF10303030303030FF0000
000030FF10303030303030FF0000
000030FF80FFFFFFFFFF30FF0000
000030FF00000000000030FF0000
10FFFFFFFFFFFFFFFFFF80FFFF80
0030303040803030606030303010
003080C0FFF0100080FFF0A06010
00E0E08040000000002060C0F060
0020000000000000000000001010
ENDCHAR
STARTCHAR  5177
ENCODING  20855
SWIDTH  1000 0
DWIDTH  14 0
BBX  14 14 0 -2
BITMAP
0000101010101010101010100000
0030FFFFFFFFFFFFFFFFFFFF0000
0030FF2020202020202040FF0000
0030FF80FFFFFFFFFFFF30FF0000
0030FF1030303030303030FF0000
0030FF80FFFFFFFFFFFF30FF0000
0030FF1030303030303030FF0000
0030FF80FFFFFFFFFFFF30FF0000
0030FF1030303030303030FF0000
2040FF3030303030303030FF3010
C0FFFFFFFFFFFFFFFFFFA0FFFF40
0000104080300000408040100000
30E0FFFFE030000040E0FFFFE020
3080401000000000000020408020
ENDCHAR
STARTCHAR  5178
ENCODING  20856
SWIDTH  1000 0
DWIDTH  14 0
BBX  14 14 0 -2
BITMAP
0000000000801000801000000000
0000000000FF3000FF3000000000
0030FFFFFFFFFFFFFFFFFFFFFF00
0030FF3030FF4030FF403040FF00
0030FF0000FF3000FF300030FF00
0030FFA0FFFFFFFFFFFFFF30FF00
0030FF1030FF4030FF403030FF00
0030FF0000FF3000FF300030FF00
1040FF303030303030303030FF20
60FFFFFFFFFFFFFFFFFFFFA0FFF0
0000000010601000802000000000
000040A0F0F02000E0FFC0602000
00E0FFC0601000000040A0F0FFA0
0080200000000000000000004060
ENDCHAR
STARTCHAR  5179
ENCODING  20857
SWIDTH  1000 0
DWIDTH  14 0
BBX  14 14 0 -2
BITMAP
0000403000000000003040000000
0010A0F01010101010F080101000
C0FFFFFFFFFFFFFFFFFFFFFFFF00
2020404020202020206030202000
0000E0800000000060FF10000000
0040FF3010100000C0C000100000
00A0E010E0600020FF6080E00000
10F08080E0000080F030F0600000
60FFFFFF600000E0FFFFE0000000
0000A0E04030000030FF60600000
0020FF40A0C00000C0C010FF4000
00A0C01040F01040FF4010C08000
40FFFFFFFFFF60E0FFFFFFFFE000
1020202020201020202020202000
ENDCHAR
STARTCHAR  517B
ENCODING  20859
SWIDTH  1000 0
DWIDTH  14 0
BBX  14 14 0 -2
BITMAP
0000003010000000001020000000
003030FF8030303030C0A0303000
10FFFFFFFFFFFFFFFFFFFFFFFF10
000000000000C020000000000000
00FFFFFFFFFFFFFFFFFFFFFF6000
003030303030E040303030301000
1030303030303030303030303010
40FFFFFFFFFFFFFFFFFFFFFFFF40
0010E0A0000000000020F0600000
0080E0A0C000000000FF80FF4000
40F020E08000000000FF30A0F030
000020FF3000000000FF30000000
000060E00000000000FF30000000
0000303000000000004010000000
ENDCHAR
STARTCHAR  517C
ENCODING  20860
SWIDTH  1000 0
DWIDTH  14 0
BBX  13 14 0 -2
BITMAP
00002040000000000040100000
103040FF4030303080F0303030
80FFFFFFFFFFFFFFFFFFFFFFFF
00101010FF301030FF10101000
00FFFFFFFFFFFFFFFFFFFFFF10
00202020FF402040FF2030FF10
80FFFFFFFFFFFFFFFFFFFFFFFF
10303030FF403040FF3040FF30
00FFFFFFFFFFFFFFFFFFA0FF10
00308040FF403040FF30804000
0040F000FF300030FF00C08000
00A0A000FF300030FF0040F010
10E03000FF300030FF0000C060
00000000A0100010A000000000
ENDCHAR
STARTCHAR  517D
ENCODING  20861
SWIDTH  1000 0
DWIDTH  14 0
BBX  13 14 1 -2
BITMAP
00003020000000000030100000
0030C0F03030303060FF303000
30FFFFFFFFFFFFFFFFFFFFFF30
30FF30303040FF30303000FF30
30FFFFFFFFFFFFFFFFFF00FF30
30FF30303040FF30303000FF30
30FFFFFFFFFFFFFFFFFFA0FF30
30303030303030303030303020
FFFFFFFFFFFFFFFFFFFFFFFFE0
00303030303030303030303000
00FFFFFFFFFFFFFFFFFFFFFF00
00FF300000000000000030FF00
00FFFFFFFFFFFFFFFFFFA0FF00
00202020202020202020202000
ENDCHAR
STARTCHAR  5180
ENCODING  20864
SWIDTH  1000 0
DWIDTH  14 0
BBX  13 14 1 -2
BITMAP
00000000801000801000000000
E0FFFFFFFF3000FF30FFFFFFE0
40404030FF3000FF4040404020
C0C0C080FF3000E0E0E0E0E080
80FFFFFFFFFFFFFFFFFFFFA000
80E010101030FF101010A0A000
80E0C0FFFFFFFFFFFFFF80A000
80FFFFFFFFFFFFFFFFFFC0A000
102040E030202020A0A0201000
E0FFFFFFFFFFFFFFFFFFFFFF00
FFFFFFFFFFFFFFFFFFFFFFFFC0
204080A0E0101010E0A0806020
FFF0C0A06000000060A0C0F0FF
10000000000000000000000010
ENDCHAR
STARTCHAR  5181
ENCODING  20865
SWIDTH  1000 0
DWIDTH  14 0
BBX  14 14 0 -2
BITMAP
0020300030200020202020202000
0060F020FF6030FFFFFFFFFFFF20
00FFFFFFFFFF30FF20202030FF20
00FF404040FF30FFFFFFFFE0FF20
00FF40FF40FF30FF304030403000
00FFA0FFA0FF30FF30FF80C08000
00FF60FF40FF30FFFFFFFFFFFF00
00FF60FF40FF30FF20FF80C06000
00FFFFFFE0FF30FFFFFFFFFFFF10
000020FF100030FF608060A03010
60FFFFFFFFFF60FFA0E020FFFF20
103040FF303030FFA0E000A0E000
000020FF100030FFA0FFFF30FF20
0000004000001040102020002010
ENDCHAR
STARTCHAR  5182
ENCODING  20866
SWIDTH  1000 0
DWIDTH  14 0
BBX  14 14 0 -2
BITMAP
0020202020202020202020202000
10FFFFFFFFFFFFFFFFFFFFFFFF10
10FF40404040404040404040FF10
10FF10000000000000000020FF10
10FF10000000000000000020FF10
10FF10000000000000000020FF10
10FF10000000000000000020FF10
10FF10000000000000000020FF10
10FF10000000000000000020FF10
10FF10000000000000000020FF10
10FF10000000000000000020FF10
10FF10000000000000000020FF10
10FF10000000000080FFFFFFFF10
0040000000000000103030303000
ENDCHAR
STARTCHAR  5185
ENCODING  20869
SWIDTH  1000 0
DWIDTH  14 0
BBX  12 14 1 -2
BITMAP
0000000000F0200000000000
0000000000FF300000000000
FFFFFFFFFFFFFFFFFFFFFFFF
FF40303030FF4030303040FF
FF30000000FF3000000030FF
FF30000060FFA000000030FF
FF300000E0A0FF40000030FF
FF300060E010A0E0100030FF
FF3010E0600010E0A00030FF
FF3080E000000030FF4030FF
FF30804000000000608030FF
FF30000000000000000030FF
FF3000000000000080FFFFFF
401000000000000010303030
ENDCHAR
STARTCHAR  5188
ENCODING  20872
SWIDTH  1000 0
DWIDTH  14 0
BBX  14 13 0 -2
BITMAP
20FFFFFFFFFFFFFFFFFFFFFFFF20
20FF30303030303030303030FF20
20FF10E0C010000000C0E010FF20
20FF1020E0A00000A0E02010FF20
20FF100030F08080F0300010FF20
20FF10000040FFFF60000010FF20
20FF10000030F0FF30000010FF20
20FF100020E0A0A0E0200010FF20
20FF1010E0C00000C0E01010FF20
20FF10A0E010000010E0A010FF20
20FF20402000000000204020FF20
20FF1000000000000060FFFFFF20
1060000000000000001030303000
ENDCHAR
STARTCHAR  5189
ENCODING  20873
SWIDTH  1000 0
DWIDTH  14 0
BBX  13 14 1 -2
BITMAP
00000000001040000000000000
000000000030FF000000000000
00FFFFFFFFFFFFFFFFFFFFFF00
00FF40303040FF30303040FF00
00FF30000030FF00000030FF00
00FF30303040FF30302030FF00
00FF30FFFFFFFFFFFFE030FF00
00FF30000030FF00000030FF00
00FF30000030FF00000030FF00
FFFFFFFFFFFFFFFFFFE0A0FFE0
30FF403030303030302040FF20
00FF300000000000000030FF00
00FF300000000010FFFFFFFF00
00401000000000003030303000
ENDCHAR
STARTCHAR  518C
ENCODING  20876
SWIDTH  1000 0
DWIDTH  14 0
BBX  13 14 1 -2
BITMAP
00101010101000101010101000
30FFFFFFFFFF10FFFFFFFFFF00
30FF202040FF10FF302040FF00
30FF000030FF10FF200030FF00
30FF000030FF10FF200030FF00
30FF000030FF10FF200030FF00
40FF303040FF30FF403040FF20
FFFFFFFFFFFFFFFFFFFFFFFFE0
30FF000030FF10FF200030FF00
30FF000030FF10FF200030FF00
30FF000030FF10FF200030FF00
30FF000030FF10FF200030FF00
30FF0010FFFF10FF2000FFFF00
10400000303000400000303000
ENDCHAR
STARTCHAR  518D
ENCODING  20877
SWIDTH  1000 0
DWIDTH  14 0
BBX  14 14 0 -2
BITMAP
0010101010101010101010101010
00FFFFFFFFFFFFFFFFFFFFFFFFC0
00202020202040FF202020202010
00003030303040FF303030303000
0030FFFFFFFFFFFFFFFFFFFFFF00
0030FF00000030FF00000030FF00
0030FF10303040FF30303030FF00
0030FFA0FFFFFFFFFFFFFF30FF00
0030FF00000030FF00000030FF00
0040FF303030304030303030FF20
30FFFFFFFFFFFFFFFFFFFFA0FFC0
0030FF000000000000000030FF00
0030FF00000000000060FFFFFF00
0010400000000000001030303000
ENDCHAR
STARTCHAR  5192
ENCODING  20882
SWIDTH  1000 0
DWIDTH  14 0
BBX  12 14 1 -2
BITMAP
101010101010101010101010
FFFFFFFFFFFFFFFFFFFFFFFF
FF40404040404040404040FF
FF40FFFFFFFFFFFFFFFF30FF
FF30303030303030303030FF
FF40FFFFFFFFFFFFFFFF30FF
20FFFFFFFFFFFFFFFFFFFF00
20FF3030303030303040FF00
20FFA0FFFFFFFFFFFF20FF00
20FF2030303030303020FF00
20FFA0FFFFFFFFFFFF20FF00
20FF2030303030303020FF00
20FFFFFFFFFFFFFFFF80FF00
002020202020202020202000
ENDCHAR
STARTCHAR  5195
ENCODING  20885
SWIDTH  1000 0
DWIDTH  14 0
BBX  14 14 0 -2
BITMAP
0010101010101010101010101000
00FFFFFFFFFFFFFFFFFFFFFFFF00
00FF40303030303030303040FF00
00FF60FFFFFFFFFFFFFFFF30FF00
00FF60FFFFFFFFFFFFFFFF30FF00
0030102020202020202010003000
0040E0FFFFFFFFFFFFE040000000
10F0FFFFFFFFFFFFFFFFFFFFE000
0040FF30303060F030303080E000
0030FFFFFFFFFFFFFFFFE0C0E000
00003060E0FFC040303020302000
0020A0FFA03020C0101010101000
10F0A030000030FFFFFFFFFFFF60
0020000000000020202020202010
ENDCHAR
STARTCHAR  5196
ENCODING  20886
SWIDTH  1000 0
DWIDTH  14 0
BBX  14 5 0 6
BITMAP
0030303030303030303030303000
20FFFFFFFFFFFFFFFFFFFFFFFF20
20FF00000000000000000010FF20
20FF00000000000000000010FF20
20C000000000000000000000C010
ENDCHAR
STARTCHAR  5197
ENCODING  20887
SWIDTH  1000 0
DWIDTH  14 0
BBX  14 14 0 -2
BITMAP
0010101010101010101010101000
30FFFFFFFFFFFFFFFFFFFFFFFF30
30FF20202020202020202020FF30
30FF00000000000000000000FF30
30FF00000000000000000000FF30
30FF0030FFFFFFFFFFFF3000FF30
00100030FF40404040FF30001000
00000030FF00000000FF30000000
00000030FF00000000FF30000000
00000030FF00000000FF30000000
00000030FF00000000FF30000000
00000030FF00000000FF30000000
60FFFFFFFF00000000FFFFFFFF60
1020202020000000002020202010
ENDCHAR
STARTCHAR  5199
ENCODING  20889
SWIDTH  1000 0
DWIDTH  14 0
BBX  13 14 0 -2
BITMAP
00101010101010101010101010
30FFFFFFFFFFFFFFFFFFFFFFFF
30FF20202020202020202040FF
30FF20F00000000000000030FF
30FF30FFFFFFFFFFFFFFFF60FF
003030FF303030303030301030
000030FF303030303030303000
000030FFFFFFFFFFFFFFFFFF00
0000000000000000000030FF00
C0FFFFFFFFFFFFFFFFFF30FF00
2030303030303030303030FF00
0000000000000000000030FF00
000000000030FFFFFFFFFFFF00
00000000000030303030303000
ENDCHAR
STARTCHAR  519B
ENCODING  20891
SWIDTH  1000 0
DWIDTH  14 0
BBX  13 14 1 -2
BITMAP
10101010101010101010101000
FFFFFFFFFFFFFFFFFFFFFFFF30
FF40202020202020202020FF30
C02040A010000000000000C020
2030C0E0303030303030303020
E0FFFFFFFFFFFFFFFFFFFFFFA0
0060FF20000010300000000000
00C0E030303040FF3030303020
10FFFFFFFFFFFFFFFFFFFFFFA0
00000000000030FF0000000000
FFFFFFFFFFFFFFFFFFFFFFFFE0
30303030303040FF3030303020
00000000000030FF0000000000
00000000000030FF0000000000
ENDCHAR
STARTCHAR  519C
ENCODING  20892
SWIDTH  1000 0
DWIDTH  14 0
BBX  14 14 0 -2
BITMAP
000000000060C000000000000000
0000000000C0A000000000000000
20FFFFFFFFFFFFFFFFFFFFFFFF20
20FF3030A0E0303030303030FF20
20FF0010F060001080200000FF20
10400060F0100000C0A000004010
000000E08020A00030FF3010C040
000040FF2030FF0000A0E0F0E020
0000A0A00030FF000020FFA01000
0010FF400030FF000000A0C00000
0080E0000030FF00000020F04000
00E060000030FF0000000080E000
20A000000030FFFFFF800010A020
0000000000003030301000000000
ENDCHAR
STARTCHAR  51A0
ENCODING  20896
SWIDTH  1000 0
DWIDTH  14 0
BBX  14 14 0 -2
BITMAP
0010101010101010101010101000
30FFFFFFFFFFFFFFFFFFFFFFFF30
30FF10101010101010101010FF30
20C0000000000000000000306010
00FFFFFFFFFF6030303030FF4000
00303030303010FFFFFFFFFFFF00
1030303030303030600000FF3000
60FFFFFFFFFFFF40FF2000FF3000
0010601010600000E06000FF3000
0040FF1030FF0000403000FF3000
0080C00030FF000000FFFFFF3000
00C0800030FF0000003030301000
00F0400030FFFFFFFFFFFFFFF000
0040000000202020202020202000
ENDCHAR
STARTCHAR  51A2
ENCODING  20898
SWIDTH  1000 0
DWIDTH  14 0
BBX  14 14 0 -2
BITMAP
0000000000000000000000000000
00FFFFFFFFFFFFFFFFFFFFFFFF30
00FF40202020202020202020FF30
00FF20FFFFFFFFFFFFFFFFC0FF30
0000003080F0FFE0303030200000
000040E0FFA060F0C0000030E030
10C0FFA02010A030FF10A0FFE010
10C03060FFE0E030FF80FF800000
000060E0FFC01030FF20FF600000
00E0F08080C0E030FF00A0E00000
00801060E0F08030FF0020FF6000
0060E0F080100030FF0000A0E000
10F0801000E0FFFFFF000030FF60
0010000000203030300000001010
ENDCHAR
STARTCHAR  51A4
ENCODING  20900
SWIDTH  1000 0
DWIDTH  14 0
BBX  14 14 0 -2
BITMAP
0010101010101010101010101000
30FFFFFFFFFFFFFFFFFFFFFFFF20
30FF10101010101010101010FF20
30FF30FFFFFFFFFFFFFF8000FF20
0030C0801010101060FF20003000
0060FFFFFFFFFFFFFFFFFFFF3000
10F0FF40303040A0303030FF3000
0010FF30000030FF000000FF3000
0000FFFFFFFFFFFFFFFFE0FF3000
000030A0FF603030303020300000
000060FF600030FF0010E0600000
0020F0A0000030FF000020200000
00E0C000000030FFFFFFFFFFFFA0
1030100000000020202020202010
ENDCHAR
STARTCHAR  51A5
ENCODING  20901
SWIDTH  1000 0
DWIDTH  14 0
BBX  13 14 1 -2
BITMAP
00000000000000000000000000
FFFFFFFFFFFFFFFFFFFFFFFF30
FF40202020202020202020FF30
30303030303030303030303000
00FFFFFFFFFFFFFFFFFFFF3000
00FF30FFFFFFFFFFFFA0FF3000
00FF3030303030303010FF3000
00FFFFFFFFFFFFFFFFC0FF3000
00303030303030303020300000
303030303040E0303030303020
FFFFFFFFFFFFFFFFFFFFFFFFC0
00003060A02000A06030000000
C0F0FFE0A01000A0E0FFF0C020
80602000000000000010408020
ENDCHAR
STARTCHAR  51AB
ENCODING  20907
SWIDTH  1000 0
DWIDTH  14 0
BBX  4 13 0 -2
BITMAP
60F00000
10F04000
00A0A000
0060F000
0010F040
00004020
0010FF40
0040FF10
0080C000
00C08000
10FF4000
40F00000
40800000
ENDCHAR
STARTCHAR  51AC
ENCODING  20908
SWIDTH  1000 0
DWIDTH  14 0
BBX  14 14 0 -2
BITMAP
0000C02000000000000000000000
0000FFFFFFFFFFFFFFFFFFFF3000
0000803030303030303030FF3000
0000FF4000000000000030FF3000
0000C0FFE080402080E0FFE02000
0000002080FFFFFFFFC030000000
001060C0FFE08060C0FFF0A04010
60FFF0A040000000001060C0FF60
404000FFE0C0A080604020001020
000000406080A0C0E0FFFFF00000
0060403010000000000020300000
00A0FFFFFFF0E0A0A08060301000
00000020406080A0C0E0F0FF8000
0000000000000000000000101000
ENDCHAR
STARTCHAR  51AF
ENCODING  20911
SWIDTH  1000 0
DWIDTH  14 0
BBX  13 14 0 -2
BITMAP
00000000101010101010101000
60F00020FFFFFFFFFFFFFFFF30
10F0400020602020202020FF30
00A0A00030FF0000000000FF30
0040F01030FF0000000000FF30
0000C04030FF00000000006010
0000803030FFFFFFFFFFFFFFFF
0020FF300030303030303040FF
0060F0000000000000000030FF
00A0A020FFFFFFFFFFFFFF30FF
00E080003030303030303030FF
10FF30000000000000000030FF
40F000000000A0FFFFFFFFFFFF
40600000000010202020202020
ENDCHAR
STARTCHAR  51B0
ENCODING  20912
SWIDTH  1000 0
DWIDTH  14 0
BBX  14 14 0 -2
BITMAP
2010000000000020C00000000000
A0A0000000000030FF000060A010
40F0102030303030FF0010E08000
00F060C0FFFFFF30FF0080E01000
00A0A0000040E030FF20FF600000
0000000000A08030FF40FF200000
0080C00000F04030FF00F0600000
00C0800040F00030FF00C0C00000
00F04000A0A00030FF0060F01000
30FF1000F0600030FF0020FF4000
60E00040FF200030FF0000E0A000
A0A000A0E0000030FF000080E000
E06000E0800080FFFF000040FF20
4010000000001030300000000000
ENDCHAR
STARTCHAR  51B1
ENCODING  20913
SWIDTH  1000 0
DWIDTH  14 0
BBX  14 14 0 -2
BITMAP
0000000000000000000000000000
C08000E0FFFFFFFFFFFFFFFFF000
80E0002060FF3020202020202000
20FF300060F00000000000000000
00E0800080E02030303030300000
0080E000A0C0A0FFFFFFFFFF0000
00106000C0A00000000060F00000
0060E000E0800000000060E00000
00A0A000F0803030302080C00000
00F06010FFFFFFFFFFE0A0C00000
30FF1000000000000000A0A00000
80E00010101010101010C0A01000
C08000FFFFFFFFFFFFFFFFFFFF10
8030002020202020202020202000
ENDCHAR
STARTCHAR  51B2
ENCODING  20914
SWIDTH  1000 0
DWIDTH  14 0
BBX  14 14 0 -2
BITMAP
0000000000000000104000000000
10F040000000000030FF00000000
00A0A0000030303040FF30303000
0060F00030FFFFFFFFFFFFFFFF30
0010F04030FF000030FF0000FF30
0000A0A030FF000030FF0000FF30
0000203030FF000030FF0000FF30
0000A0A030FF000030FF0000FF30
0000F06030FF000030FF0000FF30
0030FF1030FF303040FF3020FF30
0060E00030FFFFFFFFFFFFE0FF30
00A0A0000000000030FF00000000
00F060000000000030FF00000000
108010000000000030FF00000000
ENDCHAR
ENDFONT
